<?xml version="1.0" standalone="no"?>
<!DOCTYPE svg PUBLIC "-//W3C//DTD SVG 1.1//EN" "http://www.w3.org/Graphics/SVG/1.1/DTD/svg11.dtd" >
<svg>
<metadata>
Created by FontForge 20090914 at Thu Nov 29 21:35:42 2018
 By www-data
</metadata>
<defs>
<font id="AlQalamFawadBold" horiz-adv-x="1200" >
  <font-face 
    font-family="AlQalam Fawad Bold"
    font-weight="300"
    font-stretch="normal"
    units-per-em="2048"
    panose-1="2 0 0 0 0 0 0 0 0 0"
    ascent="1638"
    descent="-410"
    x-height="661.002"
    cap-height="1148"
    bbox="-2164.12 -1006 6650 1769"
    underline-thickness="205"
    underline-position="408"
    unicode-range="U+0020-U+FEFB"
  />
<missing-glyph horiz-adv-x="257" 
 />
    <glyph glyph-name="sf277.046" unicode="&#x622;" horiz-adv-x="545" arabic-form="final" 
d="M118 1080l138.001 156.999l62 -839c5.33301 -67.333 22.5 -113.666 51.5 -138.999s80.167 -38 153.5 -38h12c21.333 0 32 -10 32 -30v-163c0 -6 -6.5 -12.167 -19.5 -18.5s-25.833 -9.5 -38.5 -9.5c-26 -4 -61.833 -1.83301 -107.5 6.5s-78.834 18.833 -99.501 31.5
c-32 18.667 -55 47.167 -69 85.5s-24.667 101.5 -32 189.5l-22 257c-10.667 119.333 -31 289.333 -61 510zM495.001 1516c-5.33301 -64.667 -25.335 -113.332 -60.002 -145.999c-34 -30.667 -81 -57.5 -141 -80.5s-113.667 -34.5 -161 -34.5
c-33.333 0 -66.666 4.66699 -99.999 14c-13.333 3.33301 -23 5 -29 5c-22 0 -46.333 -12.667 -73 -38l-6 -6c-9.33301 -9.33301 -16.333 -14 -21 -14c-6.66699 0 -10 7.33301 -10 22c0 39.333 15.167 79.166 45.5 119.499s60.833 60.5 91.5 60.5
c9.33301 0 21.666 -2.33301 36.999 -7l27 -7c32.667 -9.33301 63.334 -14 92.001 -14c126.667 0 229.334 42 308.001 126z" />
    <glyph glyph-name="sf277.045" unicode="&#x624;" horiz-adv-x="874" arabic-form="final" 
d="M667 -2c-33.333 -2 -57.6641 -3 -72.9971 -3c-134.667 0 -202 46.667 -202 140c0 58.667 32.667 132.834 98 222.501s119.333 134.5 162 134.5c29.333 0 56 -24.5 80 -73.5s41.333 -114.833 52 -197.5h92c29.333 0 44 -10 44 -30v-163c0 -6 -6.5 -12.167 -19.5 -18.5
s-26.167 -9.5 -39.5 -9.5h-98c-30.667 -128 -81.334 -238.333 -152.001 -331c-44.667 -58.667 -97.5 -106.334 -158.5 -143.001s-117.833 -55 -170.5 -55c-78.667 0 -157.334 49.333 -236.001 148c-30.667 38.667 -46 68.667 -46 90c0 12.667 4.66699 19 14 19h2
c5.33301 -0.666992 10.666 -2 15.999 -4l44 -16c42 -15.333 93.333 -23 154 -23c114 0 210.667 28.5 290 85.5s128.333 132.833 147 227.5zM692.002 227c-4.66699 30 -16.333 58.5 -35 85.5s-36 40.5 -52 40.5c-14 0 -28.833 -12.167 -44.5 -36.5s-23.5 -47.5 -23.5 -69.5
c0 -4 0.666992 -10.333 2 -19c24.667 -10 51 -15 79 -15s52.667 4.66699 74 14zM555.003 913c-16 26 -35.002 39 -57.002 39c-17.333 0 -34.666 -5 -51.999 -15s-26 -20 -26 -30c0 -12.667 11.333 -26 34 -40s44.334 -21 65.001 -21c51.333 0 121.666 19.667 210.999 59
l-3 -14c-16.667 -70 -50 -112.667 -100 -128c-131.333 -40 -206.666 -90 -225.999 -150c-21.333 15.333 -32 30 -32 44c0 22 12.667 53.667 38 95c-48.667 26 -73 56.667 -73 92c0 44.667 24 91.5 72 140.5s93.667 73.5 137 73.5c20 0 36.833 -6.33301 50.5 -19
s20.5 -28.334 20.5 -47.001c0 -29.333 -19.667 -55.666 -59 -78.999z" />
    <glyph glyph-name="sf300.007" unicode="&#x626;" horiz-adv-x="471" arabic-form="initial" 
d="M266 251c-10 26.667 -28.668 54.667 -56.001 84l-37 40l-10 10c20 51.333 52.333 107 97 167l7 11c64.667 -93.333 97 -190 97 -290c0 -41.333 -10 -84.333 -30 -129s-45.333 -81.334 -76 -110.001c-22 -14.667 -61.333 -24 -118 -28c-12.667 -1.33301 -30 -3 -52 -5
c-40 -3.33301 -69.667 -3.66602 -89 -0.999023c-39.333 -0 -59 10.333 -59 31v158c0 21.333 13.667 32 41 32h163c58.667 0 99.334 10 122.001 30zM233.999 901c-15.333 25.333 -34.334 38 -57.001 38c-17.333 0 -34.666 -4.83301 -51.999 -14.5s-26 -19.5 -26 -29.5
c0 -12.667 11.5 -26.167 34.5 -40.5s44.833 -21.5 65.5 -21.5c50.667 0 121 19.667 211 59l-4 -13c-16.667 -70 -49.667 -112.667 -99 -128c-132 -40.667 -207.667 -91 -227 -151c-21.333 16 -32 31 -32 45c0 22 12.667 53.667 38 95c-48.667 25.333 -73 55.666 -73 90.999
c0 44.667 24 91.5 72 140.5s93.667 73.5 137 73.5c20 0 36.833 -6.16699 50.5 -18.5s20.5 -27.833 20.5 -46.5c0 -29.333 -19.667 -55.666 -59 -78.999z" />
    <glyph glyph-name="sf277.025" unicode="&#x626;" horiz-adv-x="478" arabic-form="medial" 
d="M-59 31l-0.000976562 158.001c0 21.333 14 32 42 32h102c60.667 0 118 35.667 172 107c14 18.667 24.333 28 31 28c8 0 13.667 -7 17 -21l13 -49c6.66699 -25.333 15.167 -42.5 25.5 -51.5s26.833 -13.5 49.5 -13.5h78c29.333 0 44 -10 44 -30v-163
c0 -7.33301 -7.16699 -13.833 -21.5 -19.5s-30.166 -8.5 -47.499 -8.5c-86 0 -143.667 31.667 -173 95c-8.66699 20 -16.334 30 -23.001 30c-8 0 -17.667 -8 -29 -24c-28.667 -38.667 -57.667 -65.334 -87 -80.001s-68.666 -22 -117.999 -22
c-5.33301 0 -10.333 0.333008 -15 1c-40 2.66699 -60 13 -60 31zM267.999 881.001c-15.333 25.333 -34.334 37.999 -57.001 37.999c-17.333 0 -34.666 -4.83301 -51.999 -14.5s-26 -19.5 -26 -29.5c0 -12.667 11.5 -26.167 34.5 -40.5s44.833 -21.5 65.5 -21.5
c50.667 0 121 19.667 211 59l-4 -14c-16.667 -69.333 -49.667 -111.666 -99 -126.999c-132 -40.667 -207.667 -91 -227 -151c-21.333 16 -32 31 -32 45c0 22 12.667 53.667 38 95c-48.667 25.333 -73 55.666 -73 90.999c0 44.667 24 91.5 72 140.5s93.667 73.5 137 73.5
c20 0 37 -6.33301 51 -19s21 -28 21 -46c0 -29.333 -20 -55.666 -60 -78.999z" />
    <glyph glyph-name="sf297.004" unicode="&#x626;" horiz-adv-x="1117" arabic-form="final" 
d="M894 564c-15.333 25.333 -34.334 37.999 -57.001 37.999c-17.333 0 -34.666 -4.83301 -51.999 -14.5s-26 -19.5 -26 -29.5c0 -12.667 11.333 -26.167 34 -40.5s44.667 -21.5 66 -21.5c50.667 0 121 19.667 211 59l-4 -14c-16.667 -69.333 -49.667 -111.666 -99 -126.999
c-132 -40.667 -207.667 -91 -227 -151c-21.333 16 -32 31 -32 45c0 21.333 12.667 53 38 95c-48.667 25.333 -73 55.666 -73 90.999c0 44.667 24 91.5 72 140.5s93.667 73.5 137 73.5c20 0 36.833 -6.33301 50.5 -19s20.5 -28 20.5 -46
c0 -29.333 -19.667 -55.666 -59 -78.999zM1030 -278.001l-0.00292969 5.00293c-2.66699 4.66699 -52.334 18 -149.001 40c-95.333 22 -145 41.667 -149 59c8.66699 75.333 43.667 155.333 105 240c74.667 103.333 157.334 155 248.001 155h66c30 0 45 -10 45 -30v-158
c0 -9.33301 -6.33301 -17 -19 -23l-15 -7c-4 -2 -12.333 -3 -25 -3c-4 -0.666992 -20 -1 -48 -1c-53.333 0 -99.833 -5.16699 -139.5 -15.5s-59.5 -22.5 -59.5 -36.5c0 -12.667 20 -24.334 60 -35.001l79 -21c6 -2 28.667 -7.66699 68 -17
c59.333 -14.667 89 -35.334 89 -62.001c0 -37.333 -15.5 -79.833 -46.5 -127.5s-68.833 -87.834 -113.5 -120.501c-71.333 -50.667 -159.666 -93.167 -264.999 -127.5s-201 -51.5 -287 -51.5c-133.333 0 -235.5 24.5 -306.5 73.5s-106.5 119.5 -106.5 211.5
c0 121.333 42.333 241.666 127 360.999c16.667 23.333 29.334 35 38.001 35c2 0 4.66699 -1 8 -3l3 -2c3.33301 -3.33301 5 -7.33301 5 -12c0 -0.666992 -0.666992 -2.66699 -2 -6l-3 -8c-1.33301 -4.66699 -3.66602 -10 -6.99902 -16l-11 -20l-14 -27
c-36.667 -68.667 -55 -126.667 -55 -174c0 -133.333 120 -200 360 -200c96.667 0 189.167 7.83301 277.5 23.5s150.5 35.5 186.5 59.5l46 30c4.66699 2.66699 7.66699 5.33398 9 8.00098z" />
    <glyph glyph-name="sf277" unicode="&#x627;" horiz-adv-x="516" arabic-form="final" 
d="M118 1080l138.001 156.999l62 -839c5.33301 -67.333 22.5 -113.666 51.5 -138.999s80.167 -38 153.5 -38h12c21.333 0 32 -10 32 -30v-163c0 -6 -6.5 -12.167 -19.5 -18.5s-25.833 -9.5 -38.5 -9.5c-26 -4 -61.833 -1.83301 -107.5 6.5s-78.834 18.833 -99.501 31.5
c-32 18.667 -55 47.167 -69 85.5s-24.667 101.5 -32 189.5l-22 257c-10.667 119.333 -31 289.333 -61 510z" />
    <glyph glyph-name="sf300.001" unicode="&#x628;" horiz-adv-x="400" arabic-form="initial" 
d="M265 251c-10 26.667 -28.6689 54.668 -56.002 84.001l-37 40c-1.33301 1.33301 -4.33301 4.66602 -9 9.99902c19.333 51.333 51.333 107 96 167l8 11c64 -93.333 96 -190 96 -290c0 -41.333 -9.83301 -84.333 -29.5 -129s-45.167 -81.334 -76.5 -110.001
c-21.333 -14.667 -60.666 -24 -117.999 -28c-12.667 -1.33301 -30 -3 -52 -5c-40 -3.33301 -69.667 -3.66602 -89 -0.999023c-38.667 -0 -58 10.333 -58 31v158c0 21.333 13.667 32 41 32h162c58.667 0 99.334 10 122.001 30zM375.998 -325.999
c-44.667 -50 -82.667 -103.998 -114 -161.998c-55.333 51.333 -110.333 90.666 -165 117.999c35.333 41.333 74 94.666 116 159.999c44 -40 98.333 -78.667 163 -116z" />
    <glyph glyph-name="sf277.017" unicode="&#x628;" horiz-adv-x="493" arabic-form="medial" 
d="M-59 31v158.001c0 21.333 13.667 32 41 32h103c60.667 0 118 35.667 172 107c14 18.667 24.333 28 31 28c8 0 13.667 -7 17 -21l13 -49c6.66699 -25.333 15.167 -42.5 25.5 -51.5s27.166 -13.5 50.499 -13.5h77c28.667 0 43 -10 43 -30v-163
c0 -7.33301 -7 -13.833 -21 -19.5s-29.667 -8.5 -47 -8.5c-86 0 -143.333 31.667 -172 95c-8.66699 20 -16.667 30 -24 30s-17 -8 -29 -24c-28 -38.667 -56.833 -65.334 -86.5 -80.001s-69.5 -22 -119.5 -22c-5.33301 0 -10.666 0.333008 -15.999 1
c-38.667 2.66699 -58 13 -58 31zM382 -326.999c-44 -50 -81.668 -104.001 -113.001 -162.001c-55.333 50.667 -110.333 90 -165 118c34.667 41.333 73.334 94.333 116.001 159c44 -39.333 98 -77.666 162 -114.999z" />
    <glyph glyph-name="sf277.002" unicode="&#x628;" horiz-adv-x="1659" arabic-form="final" 
d="M1385 120c-106.667 -65.333 -199.999 -108.331 -279.999 -128.998c-136 -34 -276.667 -51 -422 -51c-199.333 0 -351.333 27.5 -456 82.5s-157 134.833 -157 239.5c0 89.333 30.667 174.333 92 255c17.333 23.333 29.333 35 36 35c9.33301 0 14 -4.33301 14 -13
c0 -3.33301 -2 -9 -6 -17l-6 -12l-8 -16c-15.333 -33.333 -23 -65.666 -23 -96.999c0 -160.667 204 -241 612 -241c236 0 409 24.333 519 73c24.667 11.333 43 37.333 55 78c7.33301 24 17.333 36 30 36c11.333 0 20.666 -11.333 27.999 -34
c12.667 -40 30.667 -64.667 54 -74s79 -14 167 -14h11c22 0 33 -10 33 -30v-163c0 -6 -6.83301 -12.333 -20.5 -19s-26.167 -9.66699 -37.5 -9c-18.667 -2.66699 -46 -1.33398 -82 3.99902s-62.333 11.666 -79 18.999c-40 19.333 -64.667 51.666 -74 96.999z
M912.001 -377.998c-44 -50 -81.668 -103.666 -113.001 -160.999c-55.333 50.667 -110.333 89.667 -165 117c34.667 41.333 73.334 94.666 116.001 159.999c44 -40 98 -78.667 162 -116z" />
    <glyph glyph-name="sf300.003" unicode="&#x62a;" horiz-adv-x="471" arabic-form="initial" 
d="M186 708c-51.333 44.667 -100.333 81.3311 -147 109.998c32 39.333 66.333 88.333 103 147c30 -34 63.667 -62.333 101 -85c28 35.333 52.333 71 73 107c50 -47.333 96.333 -83.666 139 -108.999c-31.333 -40 -61.666 -90.667 -90.999 -152
c-40 36.667 -76.667 65.334 -110 86.001c-22.667 -28 -45.334 -62.667 -68.001 -104zM265 250.997c-10 26.667 -28.6689 54.668 -56.002 84.001l-37 40c-1.33301 1.33301 -4.33301 4.66602 -9 9.99902c19.333 51.333 51.333 107 96 167l8 11c64 -93.333 96 -190 96 -290
c0 -41.333 -9.83301 -84.333 -29.5 -129s-45.167 -81.334 -76.5 -110.001c-21.333 -14.667 -60.666 -24 -117.999 -28c-12.667 -1.33301 -30 -3 -52 -5c-40 -3.33301 -69.667 -3.66602 -89 -0.999023c-38.667 0 -58 10.333 -58 31v158c0 21.333 13.667 32 41 32h162
c58.667 0 99.334 10 122.001 30z" />
    <glyph glyph-name="sf277.003" unicode="&#x62a;" horiz-adv-x="501" arabic-form="medial" 
d="M-59 31l-0.00585938 158.001c0 21.333 13.667 32 41 32h104c60.667 0 117.667 35.667 171 107c14.667 18.667 25.334 28 32.001 28c7.33301 0 13 -7 17 -21l12 -49c6.66699 -25.333 15.334 -42.5 26.001 -51.5s27.334 -13.5 50.001 -13.5h77c29.333 0 44 -10 44 -30v-163
c0 -7.33301 -7.16699 -13.833 -21.5 -19.5s-30.166 -8.5 -47.499 -8.5c-86 0 -143.333 31.667 -172 95c-8.66699 20 -16.667 30 -24 30s-16.666 -8 -27.999 -24c-28.667 -38.667 -57.667 -65.334 -87 -80.001s-69.333 -22 -120 -22c-5.33301 0 -10.666 0.333008 -15.999 1
c-38.667 2.66699 -58 13 -58 31zM177.994 538.001c-51.333 44 -100.333 80.667 -147 110c32 38.667 66.333 87.667 103 147c30 -34 63.667 -62.333 101 -85c28 35.333 52.333 70.666 73 105.999c50 -46.667 96.333 -82.667 139 -108c-31.333 -40 -62 -90.667 -92 -152
c-39.333 36.667 -75.666 65.334 -108.999 86.001c-22.667 -28 -45.334 -62.667 -68.001 -104z" />
    <glyph glyph-name="sf277.027" unicode="&#x62a;" horiz-adv-x="1659" arabic-form="final" 
d="M739 540c-59.333 51.333 -113.666 92.0029 -162.999 122.003c42 54.667 79 109.334 111 164.001c47.333 -44.667 85.333 -76 114 -94c23.333 26.667 50.666 65.667 81.999 117c40 -38.667 92 -78.334 156 -119.001c-25.333 -32.667 -50 -73.334 -74 -122.001
c-6 -10.667 -14.667 -27.334 -26 -50.001l-26 23c-36.667 33.333 -68.667 58.666 -96 75.999c-28.667 -35.333 -54.667 -74.333 -78 -117zM1385 120.003c-106.667 -65.333 -199.997 -108.331 -279.997 -128.998c-136 -34 -276.667 -51 -422 -51
c-199.333 0 -351.333 27.5 -456 82.5s-157 134.833 -157 239.5c0 89.333 30.667 174.333 92 255c17.333 23.333 29.666 35 36.999 35c8.66699 0 13 -4.33301 13 -13c0 -3.33301 -2 -9 -6 -17l-6 -12l-7 -16c-16 -33.333 -24 -65.666 -24 -96.999
c0 -160.667 204.333 -241 613 -241c236 0 408.667 24.333 518 73c24.667 11.333 43.334 37.333 56.001 78c7.33301 24 17 36 29 36c11.333 0 20.666 -11.333 27.999 -34c12.667 -40 30.667 -64.667 54 -74s79.333 -14 168 -14h11c21.333 0 32 -10 32 -30v-163
c0 -6 -6.83301 -12.333 -20.5 -19s-26.167 -9.66699 -37.5 -9c-18.667 -2.66699 -45.834 -1.33398 -81.501 3.99902s-61.834 11.666 -78.501 18.999c-40.667 19.333 -65.667 51.666 -75 96.999z" />
    <glyph glyph-name="sf300.005" unicode="&#x62b;" horiz-adv-x="478" arabic-form="initial" 
d="M186 708c-51.333 44.667 -100.333 81.3311 -147 109.998c32 39.333 66.333 88.333 103 147c30 -34 63.667 -62.333 101 -85c28 35.333 52.333 71 73 107c50 -47.333 96.333 -83.666 139 -108.999c-31.333 -40 -61.666 -90.667 -90.999 -152
c-40 36.667 -76.667 65.334 -110 86.001c-22.667 -28 -45.334 -62.667 -68.001 -104zM231 953.997l-37.001 29.001c-34.667 27.333 -69 51 -103 71c31.333 44.667 61.666 99.667 90.999 165c48.667 -48.667 95.334 -86.334 140.001 -113.001
c-35.333 -54 -65.666 -104.667 -90.999 -152zM264.999 250.998c-10 26.667 -28.6689 54.668 -56.002 84.001l-37 40c-1.33301 1.33301 -4.33301 4.66602 -9 9.99902c19.333 51.333 51.333 107 96 167l8 11c64 -93.333 96 -190 96 -290
c0 -41.333 -9.83301 -84.333 -29.5 -129s-45.167 -81.334 -76.5 -110.001c-21.333 -14.667 -60.666 -24 -117.999 -28c-12.667 -1.33301 -30 -3 -52 -5c-40 -3.33301 -69.667 -3.66602 -89 -0.999023c-38.667 0 -58 10.333 -58 31v158c0 21.333 13.667 32 41 32h162
c58.667 0 99.334 10 122.001 30z" />
    <glyph glyph-name="sf277.022" unicode="&#x62b;" horiz-adv-x="486" arabic-form="medial" 
d="M179 538c-51.333 44 -100.334 80.667 -147.001 110c31.333 38.667 65.333 87.667 102 147c30.667 -34 64.334 -62.333 101.001 -85c28 35.333 52.333 70.666 73 105.999c50 -46.667 96.333 -82.667 139 -108c-30.667 -40 -61 -90.667 -91 -152
c-39.333 36.667 -76 65.334 -110 86.001c-22.667 -28 -45 -62.667 -67 -104zM222.999 783l-37 30.001c-34.667 27.333 -69 51 -103 71c32 44.667 62.333 99.667 91 165c47.333 -48 94 -86 140 -114c-34.667 -52.667 -65 -103.334 -91 -152.001zM-59.001 31.001
l0.000976562 158.001c0 21.333 13.667 32 41 32h104c60.667 0 118 35.667 172 107c14 18.667 24.333 28 31 28c8 0 13.667 -7 17 -21l13 -49c6.66699 -25.333 15.167 -42.5 25.5 -51.5s26.833 -13.5 49.5 -13.5h77c29.333 0 44 -10 44 -30v-163
c0 -7.33301 -7 -13.833 -21 -19.5s-29.667 -8.5 -47 -8.5c-86 0 -143.667 31.667 -173 95c-8.66699 20 -16.334 30 -23.001 30c-8 0 -17.667 -8 -29 -24c-28.667 -38.667 -57.667 -65.334 -87 -80.001s-69.333 -22 -120 -22c-5.33301 0 -10.333 0.333008 -15 1
c-39.333 2.66699 -59 13 -59 31z" />
    <glyph glyph-name="sf277.029" unicode="&#x62b;" horiz-adv-x="1666" arabic-form="final" 
d="M734 538c-51.333 44.667 -100.332 81.334 -146.999 110.001c31.333 39.333 65.666 88.666 102.999 147.999c30 -34 63.667 -62.333 101 -85c27.333 34.667 51.333 70 72 106c50.667 -46.667 97 -82.667 139 -108c-30.667 -40 -61 -91 -91 -153
c-39.333 37.333 -76 66 -110 86c-22 -27.333 -44.333 -62 -67 -104zM779.001 784l-38 30c-34 27.333 -68.333 51 -103 71c32 44.667 62.333 99.334 91 164.001c48 -48 94.667 -85.667 140 -113c-34.667 -52.667 -64.667 -103.334 -90 -152.001zM1384 120
c-106 -65.333 -199.331 -108.331 -279.998 -128.998c-136 -34 -276.333 -51 -421 -51c-200 0 -352.167 27.5 -456.5 82.5s-156.5 134.833 -156.5 239.5c0 89.333 30.333 174.333 91 255c18 23.333 30.333 35 37 35c8.66699 0 13 -4.33301 13 -13c0 -3.33301 -2 -9 -6 -17
c-0.666992 -1.33301 -2.33398 -5.33301 -5.00098 -12l-8 -16c-15.333 -33.333 -23 -65.666 -23 -96.999c0 -160.667 204 -241 612 -241c236 0 409 24.333 519 73c24 11.333 42.333 37.333 55 78c7.33301 24 17 36 29 36s21.333 -11.333 28 -34
c13.333 -40 31.666 -64.667 54.999 -74s79 -14 167 -14h11c22 0 33 -10 33 -30v-163c0 -6 -6.83301 -12.333 -20.5 -19s-26.5 -9.66699 -38.5 -9c-18 -2.66699 -45 -1.33398 -81 3.99902s-62.333 11.666 -79 18.999c-40 19.333 -65 51.666 -75 96.999z" />
    <glyph glyph-name="sf304.001" unicode="&#x62c;" arabic-form="initial" 
d="M556 353c-94.667 55.333 -190.335 83 -287.002 83c-48.667 0 -91.667 -6.66699 -129 -20l-32 -11c-6 -2 -11 -3 -15 -3c-10.667 0 -16 5.33301 -16 16c0 14.667 16 47.334 48 98.001c50.667 80.667 111 121 181 121c34 0 75 -10.667 123 -32l74 -33
c100.667 -45.333 188 -77 262 -95s154.667 -27 242 -27l113 -1l-70 -192c-44 3.33301 -79.333 5 -106 5c-98.667 0 -199.167 -12.5 -301.5 -37.5s-191.166 -58.5 -266.499 -100.5l-72 -40c-58 -32.667 -108.167 -54.834 -150.5 -66.501s-93.166 -17.5 -152.499 -17.5
c-40.667 -0 -61 10.333 -61 31v158c0 21.333 13.667 32 41 32h116c52.667 2.66699 111.667 15.334 177 38.001l90 31l90 32c36 13.333 70 23.666 102 30.999zM712.999 -194c-44.667 -50 -82.667 -104.001 -114 -162.001c-55.333 50.667 -110.333 90 -165 118
c35.333 41.333 74 94.333 116 159c44 -39.333 98.333 -77.666 163 -114.999z" />
    <glyph glyph-name="sf323" unicode="&#x62c;" horiz-adv-x="1247" arabic-form="medial" 
d="M95 221c52.667 2.66699 111.336 15.333 176.003 38l90 30l87 32c28 10 62.667 21.667 104 35c-106 53.333 -201 80 -285 80c-48.667 0 -91.667 -6.66699 -129 -20l-32 -11c-6 -2 -11 -3 -15 -3c-10.667 0 -16 5.33301 -16 16c0 14.667 16 47.334 48 98.001
c50.667 80.667 111 121 181 121c39.333 0 88.666 -12.333 147.999 -37l100 -42c137.333 -58 281.666 -87 432.999 -87c41.333 0 90.333 2 147 6l31 3l-68 -202h-176c0 -38 19.333 -57 58 -57h291c28.667 0 43 -10 43 -30v-163c0 -6 -6.5 -12.167 -19.5 -18.5
s-25.833 -9.5 -38.5 -9.5h-285c-54 0 -97.333 13.167 -130 39.5s-49 61.166 -49 104.499c0 40.667 11.333 79 34 115l8 14l-23 -3c-148.667 -18 -293.334 -66.667 -434.001 -146l-72 -40c-57.333 -32 -107.333 -54 -150 -66s-93 -18 -151 -18c-40 -0 -60 10.333 -60 31v158
c0 21.333 13.667 32 41 32h113zM783.002 -312.001c-44 -50 -81.668 -103.666 -113.001 -160.999c-55.333 50.667 -110.333 89.667 -165 117c34.667 41.333 73.334 94.666 116.001 159.999c44 -40 98 -78.667 162 -116z" />
    <glyph glyph-name="sf277.030" unicode="&#x62c;" horiz-adv-x="1248" arabic-form="final" 
d="M517 321c-68 22 -135.33 32.9961 -201.997 32.9961c-36.667 0 -65.5 -4.83301 -86.5 -14.5s-42.5 -27.5 -64.5 -53.5c-10.667 -12.667 -20.334 -19 -29.001 -19s-13 5.66699 -13 17c0 16 9.66699 45.5 29 88.5s37.666 76.5 54.999 100.5
c50.667 68.667 121.667 103 213 103c31.333 0 71.333 -5 120 -15l78 -17c79.333 -17.333 187.666 -26 324.999 -26l29 1l65 2l46 1c8 0 19.667 1.33301 35 4l-88 -200c-10 0 -28 -1.66699 -54 -5l-44 -6c-24.667 -3.33301 -52.667 -7.66602 -84 -12.999
c3.33301 -54 27 -81 71 -81h349c29.333 0 44 -10 44 -30v-163c0 -6 -6.5 -12.167 -19.5 -18.5s-26.167 -9.5 -39.5 -9.5h-314c-58 0 -105.833 13 -143.5 39s-56.5 59.333 -56.5 100c0 41.333 13.333 91.666 40 150.999c-162.667 -37.333 -300 -108.666 -412 -213.999
s-168 -215.666 -168 -330.999c0 -126.667 57.5 -227.167 172.5 -301.5s270.167 -111.5 465.5 -111.5c109.333 0 228 4.66699 356 14l148 12c30 2 52.333 3 67 3c18.667 0 28 -3.33301 28 -10c0 -9.33301 -25.667 -30.166 -77 -62.499s-104.333 -61.166 -159 -86.499
c-154 -70.667 -292.333 -106 -415 -106c-472 0 -708 177 -708 531c0 270 132.333 491.333 397 664zM842.003 -287.004c-44 -50 -81.668 -104 -113.001 -162c-55.333 50.667 -110.333 89.667 -165 117c34.667 41.333 73.334 94.666 116.001 159.999
c44 -39.333 98 -77.666 162 -114.999z" />
    <glyph glyph-name="sf304.003" unicode="&#x62d;" arabic-form="initial" 
d="M556 353c-94.667 55.333 -190.335 83 -287.002 83c-48.667 0 -91.667 -6.66699 -129 -20l-32 -11c-6 -2 -11 -3 -15 -3c-10.667 0 -16 5.33301 -16 16c0 14.667 16 47.334 48 98.001c50.667 80.667 111 121 181 121c34 0 75 -10.667 123 -32l74 -33
c100.667 -45.333 188 -77 262 -95s154.667 -27 242 -27l113 -1l-70 -192c-44 3.33301 -79.333 5 -106 5c-98.667 0 -199.167 -12.5 -301.5 -37.5s-191.166 -58.5 -266.499 -100.5l-72 -40c-58 -32.667 -108.167 -54.834 -150.5 -66.501s-93.166 -17.5 -152.499 -17.5
c-40.667 -0 -61 10.333 -61 31v158c0 21.333 13.667 32 41 32h116c52.667 2.66699 111.667 15.334 177 38.001l90 31l90 32c36 13.333 70 23.666 102 30.999z" />
    <glyph glyph-name="sf323.002" unicode="&#x62d;" horiz-adv-x="1247" arabic-form="medial" 
d="M95 221c52.667 2.66699 111.336 15.333 176.003 38l90 30l87 32c28 10 62.667 21.667 104 35c-106 53.333 -201 80 -285 80c-48.667 0 -91.667 -6.66699 -129 -20l-32 -11c-6 -2 -11 -3 -15 -3c-10.667 0 -16 5.33301 -16 16c0 14.667 16 47.334 48 98.001
c50.667 80.667 111 121 181 121c39.333 0 88.666 -12.333 147.999 -37l100 -42c137.333 -58 281.666 -87 432.999 -87c41.333 0 90.333 2 147 6l31 3l-68 -202h-176c0 -38 19.333 -57 58 -57h291c28.667 0 43 -10 43 -30v-163c0 -6 -6.5 -12.167 -19.5 -18.5
s-25.833 -9.5 -38.5 -9.5h-285c-54 0 -97.333 13.167 -130 39.5s-49 61.166 -49 104.499c0 40.667 11.333 79 34 115l8 14l-23 -3c-148.667 -18 -293.334 -66.667 -434.001 -146l-72 -40c-57.333 -32 -107.333 -54 -150 -66s-93 -18 -151 -18c-40 -0 -60 10.333 -60 31v158
c0 21.333 13.667 32 41 32h113z" />
    <glyph glyph-name="sf277.032" unicode="&#x62d;" horiz-adv-x="1255" arabic-form="final" 
d="M517 321c-68 22 -135.33 32.9961 -201.997 32.9961c-36.667 0 -65.5 -4.83301 -86.5 -14.5s-42.5 -27.5 -64.5 -53.5c-10.667 -12.667 -20.334 -19 -29.001 -19s-13 5.66699 -13 17c0 16 9.66699 45.5 29 88.5s37.666 76.5 54.999 100.5
c50.667 68.667 121.667 103 213 103c31.333 0 71.333 -5 120 -15l78 -17c79.333 -17.333 187.666 -26 324.999 -26l29 1l65 2l46 1c8 0 19.667 1.33301 35 4l-88 -200c-10 0 -28 -1.66699 -54 -5l-44 -6c-24.667 -3.33301 -52.667 -7.66602 -84 -12.999
c3.33301 -54 27 -81 71 -81h349c29.333 0 44 -10 44 -30v-163c0 -6 -6.5 -12.167 -19.5 -18.5s-26.167 -9.5 -39.5 -9.5h-314c-58 0 -105.833 13 -143.5 39s-56.5 59.333 -56.5 100c0 41.333 13.333 91.666 40 150.999c-162.667 -37.333 -300 -108.666 -412 -213.999
s-168 -215.666 -168 -330.999c0 -126.667 57.5 -227.167 172.5 -301.5s270.167 -111.5 465.5 -111.5c109.333 0 228 4.66699 356 14l148 12c30 2 52.333 3 67 3c18.667 0 28 -3.33301 28 -10c0 -9.33301 -25.667 -30.166 -77 -62.499s-104.333 -61.166 -159 -86.499
c-154 -70.667 -292.333 -106 -415 -106c-472 0 -708 177 -708 531c0 270 132.333 491.333 397 664z" />
    <glyph glyph-name="sf304.004" unicode="&#x62e;" arabic-form="initial" 
d="M556 353c-94.667 55.333 -190.335 83 -287.002 83c-48.667 0 -91.667 -6.66699 -129 -20l-32 -11c-6 -2 -11 -3 -15 -3c-10.667 0 -16 5.33301 -16 16c0 14.667 16 47.334 48 98.001c50.667 80.667 111 121 181 121c34 0 75 -10.667 123 -32l74 -33
c100.667 -45.333 188 -77 262 -95s154.667 -27 242 -27l113 -1l-70 -192c-44 3.33301 -79.333 5 -106 5c-98.667 0 -199.167 -12.5 -301.5 -37.5s-191.166 -58.5 -266.499 -100.5l-72 -40c-58 -32.667 -108.167 -54.834 -150.5 -66.501s-93.166 -17.5 -152.499 -17.5
c-40.667 -0 -61 10.333 -61 31v158c0 21.333 13.667 32 41 32h116c52.667 2.66699 111.667 15.334 177 38.001l90 31l90 32c36 13.333 70 23.666 102 30.999zM878.999 885c-44.667 -50 -82.667 -104.001 -114 -162.001c-55.333 50.667 -110.333 90 -165 118
c35.333 41.333 74 94.333 116 159c44 -39.333 98.333 -77.666 163 -114.999z" />
    <glyph glyph-name="sf323.003" unicode="&#x62e;" horiz-adv-x="1247" arabic-form="medial" 
d="M95 221c52.667 2.66699 111.336 15.333 176.003 38l90 30l87 32c28 10 62.667 21.667 104 35c-106 53.333 -201 80 -285 80c-48.667 0 -91.667 -6.66699 -129 -20l-32 -11c-6 -2 -11 -3 -15 -3c-10.667 0 -16 5.33301 -16 16c0 14.667 16 47.334 48 98.001
c50.667 80.667 111 121 181 121c39.333 0 88.666 -12.333 147.999 -37l100 -42c137.333 -58 281.666 -87 432.999 -87c41.333 0 90.333 2 147 6l31 3l-68 -202h-176c0 -38 19.333 -57 58 -57h291c28.667 0 43 -10 43 -30v-163c0 -6 -6.5 -12.167 -19.5 -18.5
s-25.833 -9.5 -38.5 -9.5h-285c-54 0 -97.333 13.167 -130 39.5s-49 61.166 -49 104.499c0 40.667 11.333 79 34 115l8 14l-23 -3c-148.667 -18 -293.334 -66.667 -434.001 -146l-72 -40c-57.333 -32 -107.333 -54 -150 -66s-93 -18 -151 -18c-40 -0 -60 10.333 -60 31v158
c0 21.333 13.667 32 41 32h113zM678.002 903.999c-44 -50 -81.668 -103.666 -113.001 -160.999c-55.333 50.667 -110.333 89.667 -165 117c34.667 41.333 73.334 94.666 116.001 159.999c44 -40 98 -78.667 162 -116z" />
    <glyph glyph-name="sf277.001" unicode="&#x62e;" horiz-adv-x="1270" arabic-form="final" 
d="M517 321c-68 22 -135.33 32.9961 -201.997 32.9961c-36.667 0 -65.5 -4.83301 -86.5 -14.5s-42.5 -27.5 -64.5 -53.5c-10.667 -12.667 -20.334 -19 -29.001 -19s-13 5.66699 -13 17c0 16 9.66699 45.5 29 88.5s37.666 76.5 54.999 100.5
c50.667 68.667 121.667 103 213 103c31.333 0 71.333 -5 120 -15l78 -17c79.333 -17.333 187.666 -26 324.999 -26l29 1l65 2l46 1c8 0 19.667 1.33301 35 4l-88 -200c-10 0 -28 -1.66699 -54 -5l-44 -6c-24.667 -3.33301 -52.667 -7.66602 -84 -12.999
c3.33301 -54 27 -81 71 -81h349c29.333 0 44 -10 44 -30v-163c0 -6 -6.5 -12.167 -19.5 -18.5s-26.167 -9.5 -39.5 -9.5h-314c-58 0 -105.833 13 -143.5 39s-56.5 59.333 -56.5 100c0 41.333 13.333 91.666 40 150.999c-162.667 -37.333 -300 -108.666 -412 -213.999
s-168 -215.666 -168 -330.999c0 -126.667 57.5 -227.167 172.5 -301.5s270.167 -111.5 465.5 -111.5c109.333 0 228 4.66699 356 14l148 12c30 2 52.333 3 67 3c18.667 0 28 -3.33301 28 -10c0 -9.33301 -25.667 -30.166 -77 -62.499s-104.333 -61.166 -159 -86.499
c-154 -70.667 -292.333 -106 -415 -106c-472 0 -708 177 -708 531c0 270 132.333 491.333 397 664zM842.003 885.996c-44 -50 -81.668 -104 -113.001 -162c-55.333 50.667 -110.333 89.667 -165 117c34.667 41.333 73.334 94.666 116.001 159.999
c44 -39.333 98 -77.666 162 -114.999z" />
    <glyph glyph-name="sf277.014" unicode="&#x62f;" horiz-adv-x="919" arabic-form="final" 
d="M510 810l123.997 143l65 -482c22.667 -166.667 69.334 -250 140.001 -250h71c29.333 0 44 -10 44 -30v-163c0 -19.333 -26 -29 -78 -29c-64.667 0 -115.167 13.833 -151.5 41.5s-61.5 71.167 -75.5 130.5c-6.66699 29.333 -15.667 44 -27 44
c-9.33301 0 -20.666 -11.667 -33.999 -35c-66 -111.333 -169.333 -167 -310 -167c-56.667 0 -107.5 6.83301 -152.5 20.5s-69.167 29.5 -72.5 47.5c2 52 11.5 104.833 28.5 158.5s32.167 80.5 45.5 80.5c4 0 7.33301 -7 10 -21c5.33301 -27.333 23 -48.333 53 -63
s69.667 -22 119 -22c100.667 0 169.834 12.667 207.501 38s56.5 71.333 56.5 138c0 22 -3.33301 59 -10 111l-10 75c-4.66699 36 -19 114 -43 234z" />
    <glyph glyph-name="sf277.039" unicode="&#x630;" horiz-adv-x="926" arabic-form="final" 
d="M689 1185c-44 -50 -81.999 -104.001 -113.999 -162.001c-54.667 50.667 -109.334 90 -164.001 118c34.667 41.333 73 94.333 115 159c44.667 -39.333 99 -77.666 163 -114.999zM510.001 809.999l123.997 143l65 -482c22.667 -166.667 69.334 -250 140.001 -250h71
c29.333 0 44 -10 44 -30v-163c0 -19.333 -26 -29 -78 -29c-64.667 0 -115.167 13.833 -151.5 41.5s-61.5 71.167 -75.5 130.5c-6.66699 29.333 -15.667 44 -27 44c-9.33301 0 -20.666 -11.667 -33.999 -35c-66 -111.333 -169.333 -167 -310 -167
c-56.667 0 -107.5 6.83301 -152.5 20.5s-69.167 29.5 -72.5 47.5c2 52 11.5 104.833 28.5 158.5s32.167 80.5 45.5 80.5c4 0 7.33301 -7 10 -21c5.33301 -27.333 23 -48.333 53 -63s69.667 -22 119 -22c100.667 0 169.834 12.667 207.501 38s56.5 71.333 56.5 138
c0 22 -3.33301 59 -10 111l-10 75c-4.66699 36 -19 114 -43 234z" />
    <glyph glyph-name="sf277.015" unicode="&#x631;" horiz-adv-x="800" arabic-form="final" 
d="M584 12c-16 37.333 -55.334 82.001 -118.001 134.001l100 177c20.667 -38.667 46.667 -65.334 78 -80.001s78 -22 140 -22c29.333 0 44 -10 44 -30v-163c0 -6 -6.5 -12.167 -19.5 -18.5s-26.167 -9.5 -39.5 -9.5h-59c-21.333 0 -35.333 -13 -42 -39
c-41.333 -166 -89.666 -282.667 -144.999 -350c-83.333 -100.667 -175.333 -151 -276 -151c-34.667 0 -83 14.667 -145 44s-96 53.333 -102 72v3c0 7.33301 4.66699 11 14 11h2c1.33301 0 6 -0.666992 14 -2c10.667 -1.33301 23.334 -2 38.001 -2
c51.333 0 111.166 15.667 179.499 47s127.5 70 177.5 116c78.667 73.333 131.667 161 159 263z" />
    <glyph glyph-name="sf277.041" unicode="&#x632;" horiz-adv-x="800" arabic-form="final" 
d="M542 689c-44 -50 -81.999 -104.001 -113.999 -162.001c-54.667 50.667 -109.334 89.667 -164.001 117c34.667 42 73 95.333 115 160c44.667 -39.333 99 -77.666 163 -114.999zM584.001 11.999c-16 37.333 -55.334 82.001 -118.001 134.001l100 177
c20.667 -38.667 46.667 -65.334 78 -80.001s78 -22 140 -22c29.333 0 44 -10 44 -30v-163c0 -6 -6.5 -12.167 -19.5 -18.5s-26.167 -9.5 -39.5 -9.5h-59c-21.333 0 -35.333 -13 -42 -39c-41.333 -166 -89.666 -282.667 -144.999 -350
c-83.333 -100.667 -175.333 -151 -276 -151c-34.667 0 -83 14.667 -145 44s-96 53.333 -102 72v3c0 7.33301 4.66699 11 14 11h2c1.33301 0 6 -0.666992 14 -2c10.667 -1.33301 23.334 -2 38.001 -2c51.333 0 111.166 15.667 179.499 47s127.5 70 177.5 116
c78.667 73.333 131.667 161 159 263z" />
    <glyph glyph-name="sf309" unicode="&#x633;" horiz-adv-x="1121" arabic-form="initial" 
d="M968 265c-10 35.333 -28.666 68.667 -55.999 100c28.667 66.667 62.334 116.667 101.001 150c44.667 -45.333 67 -106 67 -182c0 -86.667 -17.5 -154 -52.5 -202s-83.833 -72 -146.5 -72c-54.667 0 -113 26.333 -175 79c-64 -92.667 -143 -139 -237 -139
c-74 0 -136 37 -186 111c-10 14.667 -18.333 22 -25 22c-7.33301 0 -23.666 -15.667 -48.999 -47c-46.667 -56.667 -116.334 -85 -209.001 -85c-40 -0 -60 10.333 -60 31v158c0 14 5.83301 23.167 17.5 27.5s36.167 6.5 73.5 6.5c110 0 185.333 29 226 87
c21.333 30 35.666 45 42.999 45s15 -13 23 -39c19.333 -63.333 67.666 -95 144.999 -95c56.667 0 103.167 10.667 139.5 32s69.833 57.333 100.5 108c23.333 38.667 41.333 58 54 58c10 0 17.333 -7 22 -21l9 -30c21.333 -68.667 77 -103 167 -103h8z" />
    <glyph glyph-name="sf327" unicode="&#x633;" horiz-adv-x="1128" arabic-form="medial" 
d="M-59 31l0.000976562 158.002c0 21.333 13.667 32 41 32l50 1c55.333 0 102.5 9.16699 141.5 27.5s72.833 47.166 101.5 86.499c9.33301 12.667 17.333 19 24 19c8 0 13.333 -7 16 -21c9.33301 -42 24.5 -71.333 45.5 -88s53.833 -25 98.5 -25c50 0 90.333 7.66699 121 23
s60.667 42.666 90 81.999c14.667 19.333 26.667 29 36 29c8.66699 0 15 -7 19 -21c14.667 -51.333 28.5 -85 41.5 -101s33.5 -24 61.5 -24c52.667 0 90 36.667 112 110c8 24 18 36 30 36c8 0 14.333 -6 19 -18l11 -28c21.333 -58.667 73 -88 155 -88c29.333 0 44 -10 44 -30
v-163c0 -19.333 -23.667 -29 -71 -29c-56.667 0 -101.667 28.667 -135 86c-10 17.333 -18.333 26 -25 26c-7.33301 0 -19.666 -12.667 -36.999 -38c-33.333 -49.333 -72.333 -74 -117 -74s-79 23.333 -103 70l-19 37c-8.66699 17.333 -17.667 26 -27 26
c-8.66699 0 -21.334 -12.667 -38.001 -38c-42 -63.333 -97.333 -95 -166 -95c-65.333 0 -122.333 33 -171 99c-16.667 22 -28.334 33 -35.001 33c-8 0 -23 -14.333 -45 -43c-44.667 -58.667 -112 -88 -202 -88c-44.667 -0 -67 10.333 -67 31z" />
    <glyph glyph-name="sf277.004" unicode="&#x633;" horiz-adv-x="1800" arabic-form="final" 
d="M980 13c0 -183.333 -51 -328.833 -153 -436.5s-239.667 -161.5 -413 -161.5c-104 0 -188.833 28.833 -254.5 86.5s-98.5 131.834 -98.5 222.501c0 63.333 16.5 135.5 49.5 216.5s62.5 121.5 88.5 121.5c10 0 15 -6.33301 15 -19c0 -6.66699 -3.33301 -17.334 -10 -32.001
c-36.667 -80.667 -55 -144.334 -55 -191.001c0 -54 28.167 -98 84.5 -132s129.166 -51 218.499 -51c146 0 265.333 33 358 99c58.667 42 88 112 88 210c0 32 -6.33301 70 -19 114c-48.667 44 -82 88.667 -100 134c29.333 66 65.666 119.333 108.999 160
c26 -54 53 -89.667 81 -107s72.333 -26 133 -26c56.667 0 100.667 7.33301 132 22s62.333 42.334 93 83.001c14.667 19.333 26.667 29 36 29c8.66699 0 15 -7 19 -21c14 -51.333 27.667 -85 41 -101s34 -24 62 -24c52.667 0 90 36.667 112 110c7.33301 24 17 36 29 36
c8.66699 0 15.334 -6 20.001 -18l10 -28c22 -58.667 72.333 -88 151 -88h11c22 0 33 -10 33 -30v-163c0 -7.33301 -7.16699 -13.833 -21.5 -19.5s-30.166 -8.5 -47.499 -8.5c-54.667 -0 -98.667 28.333 -132 85c-10 17.333 -18.333 26 -25 26
c-7.33301 0 -19.666 -12.667 -36.999 -38c-34 -49.333 -73 -74 -117 -74c-44.667 0 -79 23.333 -103 70l-19 37c-8.66699 17.333 -17.667 26 -27 26c-8.66699 0 -21.334 -12.667 -38.001 -38c-42 -63.333 -100.333 -95 -175 -95c-28 0 -71 4.66699 -129 14z" />
    <glyph glyph-name="sf309.001" unicode="&#x634;" horiz-adv-x="1128" arabic-form="initial" 
d="M671 637c-51.333 44 -100.332 80.667 -146.999 110c31.333 38.667 65.666 87.667 102.999 147c30 -34 63.667 -62.333 101 -85c27.333 35.333 51.333 70.666 72 105.999c50.667 -46.667 97 -82.667 139 -108c-30.667 -40 -61 -90.667 -91 -152
c-39.333 36.667 -76 65.334 -110 86.001c-22 -28 -44.333 -62.667 -67 -104zM716.001 882l-37 30.001c-34.667 27.333 -69 51 -103 71c31.333 44.667 61.333 99.667 90 165c48 -48 94.667 -86 140 -114c-34.667 -52.667 -64.667 -103.334 -90 -152.001zM968.001 265.001
c-10 35.333 -28.666 68.667 -55.999 100c28.667 66.667 62.334 116.667 101.001 150c44.667 -45.333 67 -106 67 -182c0 -86.667 -17.5 -154 -52.5 -202s-83.833 -72 -146.5 -72c-54.667 0 -113 26.333 -175 79c-64 -92.667 -143 -139 -237 -139c-74 0 -136 37 -186 111
c-10 14.667 -18.333 22 -25 22c-7.33301 0 -23.666 -15.667 -48.999 -47c-46.667 -56.667 -116.334 -85 -209.001 -85c-40 0 -60 10.333 -60 31v158c0 14 5.83301 23.167 17.5 27.5s36.167 6.5 73.5 6.5c110 0 185.333 29 226 87c21.333 30 35.666 45 42.999 45
s15 -13 23 -39c19.333 -63.333 67.666 -95 144.999 -95c56.667 0 103.167 10.667 139.5 32s69.833 57.333 100.5 108c23.333 38.667 41.333 58 54 58c10 0 17.333 -7 22 -21l9 -30c21.333 -68.667 77 -103 167 -103h8z" />
    <glyph glyph-name="sf327.001" unicode="&#x634;" horiz-adv-x="1128" arabic-form="medial" 
d="M710 540c-51.333 44 -100.332 80.667 -146.999 110c31.333 38.667 65.666 87.667 102.999 147c30 -34 63.667 -62.333 101 -85c27.333 35.333 51.333 70.666 72 105.999c50.667 -46.667 97 -82.667 139 -108c-30.667 -40 -61 -90.667 -91 -152
c-39.333 36.667 -76 65.334 -110 86.001c-22 -28 -44.333 -62.667 -67 -104zM755.001 785l-38 30.001c-34 27.333 -68.333 51 -103 71c32 44.667 62.333 99.667 91 165c47.333 -48 94 -86 140 -114c-34.667 -52.667 -64.667 -103.334 -90 -152.001zM-58.999 31.001
l0.000976562 158.002c0 21.333 13.667 32 41 32l50 1c55.333 0 102.5 9.16699 141.5 27.5s72.833 47.166 101.5 86.499c9.33301 12.667 17.333 19 24 19c8 0 13.333 -7 16 -21c9.33301 -42 24.5 -71.333 45.5 -88s53.833 -25 98.5 -25c50 0 90.333 7.66699 121 23
s60.667 42.666 90 81.999c14.667 19.333 26.667 29 36 29c8.66699 0 15 -7 19 -21c14.667 -51.333 28.5 -85 41.5 -101s33.5 -24 61.5 -24c52.667 0 90 36.667 112 110c8 24 18 36 30 36c8 0 14.333 -6 19 -18l11 -28c21.333 -58.667 73 -88 155 -88c29.333 0 44 -10 44 -30
v-163c0 -19.333 -23.667 -29 -71 -29c-56.667 0 -101.667 28.667 -135 86c-10 17.333 -18.333 26 -25 26c-7.33301 0 -19.666 -12.667 -36.999 -38c-33.333 -49.333 -72.333 -74 -117 -74s-79 23.333 -103 70l-19 37c-8.66699 17.333 -17.667 26 -27 26
c-8.66699 0 -21.334 -12.667 -38.001 -38c-42 -63.333 -97.333 -95 -166 -95c-65.333 0 -122.333 33 -171 99c-16.667 22 -28.334 33 -35.001 33c-8 0 -23 -14.333 -45 -43c-44.667 -58.667 -112 -88 -202 -88c-44.667 0 -67 10.333 -67 31z" />
    <glyph glyph-name="sf277.033" unicode="&#x634;" horiz-adv-x="1800" arabic-form="final" 
d="M1366 543c-51.333 44.667 -100.332 81.3311 -146.999 109.998c31.333 38.667 65.666 87.667 102.999 147c30 -34 63.333 -62.333 100 -85c28 35.333 52.333 71 73 107c50 -47.333 96.333 -83.666 139 -108.999c-30.667 -40 -61 -90.667 -91 -152
c-39.333 36.667 -76 65.334 -110 86.001c-22.667 -28 -45 -62.667 -67 -104zM1411 788.997l-38 29c-34 27.333 -68.333 51 -103 71c32 44.667 62.333 99.667 91 165c47.333 -48 94 -86 140 -114c-34.667 -52.667 -64.667 -103 -90 -151zM980.001 12.9971
c0 -183.333 -51 -328.833 -153 -436.5s-239.667 -161.5 -413 -161.5c-104 0 -188.833 28.833 -254.5 86.5s-98.5 131.834 -98.5 222.501c0 63.333 16.5 135.5 49.5 216.5s62.5 121.5 88.5 121.5c10 0 15 -6.33301 15 -19c0 -6.66699 -3.33301 -17.334 -10 -32.001
c-36.667 -80.667 -55 -144.334 -55 -191.001c0 -54 28.167 -98 84.5 -132s129.166 -51 218.499 -51c146 0 265.333 33 358 99c58.667 42 88 112 88 210c0 32 -6.33301 70 -19 114c-48.667 44 -82 88.667 -100 134c29.333 66 65.666 119.333 108.999 160
c26 -54 53 -89.667 81 -107s72.333 -26 133 -26c56.667 0 100.667 7.33301 132 22s62.333 42.334 93 83.001c14.667 19.333 26.667 29 36 29c8.66699 0 15 -7 19 -21c14 -51.333 27.667 -85 41 -101s34 -24 62 -24c52.667 0 90 36.667 112 110c7.33301 24 17 36 29 36
c8.66699 0 15.334 -6 20.001 -18l10 -28c22 -58.667 72.333 -88 151 -88h11c22 0 33 -10 33 -30v-163c0 -7.33301 -7.16699 -13.833 -21.5 -19.5s-30.166 -8.5 -47.499 -8.5c-54.667 0 -98.667 28.333 -132 85c-10 17.333 -18.333 26 -25 26
c-7.33301 0 -19.666 -12.667 -36.999 -38c-34 -49.333 -73 -74 -117 -74c-44.667 0 -79 23.333 -103 70l-19 37c-8.66699 17.333 -17.667 26 -27 26c-8.66699 0 -21.334 -12.667 -38.001 -38c-42 -63.333 -100.333 -95 -175 -95c-28 0 -71 4.66699 -129 14z" />
    <glyph glyph-name="sf310.002" unicode="&#x635;" horiz-adv-x="1464" arabic-form="initial" 
d="M606 221c110.667 140 217.336 248.666 320.003 325.999s191.667 116 267 116c60 0 110.333 -20.5 151 -61.5s61 -91.5 61 -151.5c0 -125.333 -58 -223.666 -174 -294.999c-72.667 -45.333 -167.834 -82.5 -285.501 -111.5s-230.834 -43.5 -339.501 -43.5l-3 -6l-27 -57
l-21 -42c-13.333 -27.333 -26.333 -41 -39 -41c-18.667 0 -28 13 -28 39c0 31.333 9.66699 67 29 107c-93.333 0 -162 26 -206 78l-37 43c-6 7.33301 -12 11 -18 11c-6.66699 0 -20.667 -14.333 -42 -43c-45.333 -59.333 -115.333 -89 -210 -89c-42 -0 -63 10.333 -63 31
v158c0 21.333 14 32 42 32l57 1c111.333 0 189.666 37.333 234.999 112c8 14.667 16 22 24 22s14 -7 18 -21l13 -43c14 -47.333 56 -71 126 -71h150zM726.002 211.999c104.667 0 211.332 16.667 319.999 50c56.667 18 111 39.667 163 65s78 43.333 78 54
c0 16 -20.833 33.333 -62.5 52s-80.5 28 -116.5 28c-63.333 0 -130.166 -23 -200.499 -69s-130.833 -106 -181.5 -180z" />
    <glyph glyph-name="sf328" unicode="&#x635;" horiz-adv-x="1487" arabic-form="medial" 
d="M722 212c104.667 0 211.332 16.667 319.999 50c57.333 18 111.833 39.667 163.5 65s77.5 43.333 77.5 54c0 16 -20.833 33.333 -62.5 52s-80.5 28 -116.5 28c-63.333 0 -130.166 -23 -200.499 -69s-130.833 -106 -181.5 -180zM512.998 0
c-90.667 0 -158.332 25.999 -202.999 77.999l-36 43c-6.66699 7.33301 -12.667 11 -18 11c-6.66699 0 -21 -14.333 -43 -43c-45.333 -59.333 -115.333 -89 -210 -89c-41.333 0 -62 10.333 -62 31v158c0 21.333 13.667 32 41 32l58 1c111.333 0 189.333 37.333 234 112
c8.66699 14.667 16.667 22 24 22c8 0 14 -7 18 -21l13 -43c14.667 -47.333 57 -71 127 -71h149c110 139.333 216.5 247.833 319.5 325.5s191.5 116.5 265.5 116.5c59.333 0 109.333 -20.333 150 -61s61 -90.667 61 -150c0 -36 -10 -79.167 -30 -129.5
s-41.333 -86.5 -64 -108.5c-3.33301 -2.66699 -5 -5 -5 -7l1 -3c0.666992 -0.666992 2 -1 4 -1c4.66699 0 12 1.33301 22 4c2.66699 0.666992 10 2 22 4l23 4l26 2l22 3c9.33301 0.666992 23.666 1 42.999 1h29c29.333 0 44 -10 44 -30v-163c0 -19.333 -35.667 -29 -107 -29
c-106 0 -245.333 7.33301 -418 22c-27.333 2.66699 -45.666 4 -54.999 4c-6.66699 0 -30.334 -1.33301 -71.001 -4l-91 -4l-133 -13c-10.667 -1.33301 -31 -2.66602 -61 -3.99902l-3 -6l-27 -57l-21 -42c-12.667 -27.333 -25.667 -41 -39 -41c-18.667 0 -28 13 -28 39
c0 31.333 9.66699 67 29 107z" />
    <glyph glyph-name="sf277.005" unicode="&#x635;" horiz-adv-x="2129" arabic-form="final" 
d="M1383 212c105.333 0 212 16.667 320 50c57.333 18 111.833 39.667 163.5 65s77.5 43.333 77.5 54c0 16 -20.667 33.333 -62 52s-80.333 28 -117 28c-63.333 0 -130 -23 -200 -69s-130.667 -106 -182 -180zM1264 0l-3.99609 -6.00098l-27 -57l-21 -42
c-12.667 -27.333 -25.334 -41 -38.001 -41c-19.333 0 -29 13 -29 39c0 31.333 9.66699 67 29 107c-67.333 0 -124.333 3 -171 9l-25 4c0 -182.667 -51.5 -328.334 -154.5 -437.001s-241.167 -163 -414.5 -163c-103.333 0 -187.166 29.333 -251.499 88
s-96.5 134.667 -96.5 228c0 60 16.5 130.667 49.5 212s61.5 122 85.5 122c11.333 0 17 -6.33301 17 -19c0 -5.33301 -4 -16.666 -12 -33.999c-34.667 -74.667 -52 -135 -52 -181c0 -59.333 26.833 -106.5 80.5 -141.5s125.5 -52.5 215.5 -52.5c66 0 134.333 10.167 205 30.5
s126.667 45.833 168 76.5c50.667 38.667 76 98.334 76 179.001c0 55.333 -5 101.666 -15 138.999c-48 38 -82.333 83.333 -103 136c27.333 55.333 63.666 108.333 108.999 159l9 -16c27.333 -49.333 54.5 -81.333 81.5 -96s71.833 -22 134.5 -22h157
c109.333 139.333 215.5 247.833 318.5 325.5s191.833 116.5 266.5 116.5c58.667 0 108.5 -20.333 149.5 -61s61.5 -90.667 61.5 -150c0 -36 -10 -79.167 -30 -129.5s-41.667 -86.5 -65 -108.5c-3.33301 -2.66699 -5 -5 -5 -7l1 -3c1.33301 -0.666992 2.66602 -1 3.99902 -1
c4.66699 0 12 1.33301 22 4c2.66699 0.666992 10 2 22 4l23 4l26 2l22 3c9.33301 0.666992 23.666 1 42.999 1h30c28.667 0 43 -10 43 -30v-163c0 -19.333 -30.667 -29 -92 -29c-112 0 -256.333 7.33301 -433 22c-28 2.66699 -46.333 4 -55 4
c-6.66699 0 -30.334 -1.33301 -71.001 -4l-91 -4l-133 -13c-10 -1.33301 -30 -2.66602 -60 -3.99902z" />
    <glyph glyph-name="sf310.003" unicode="&#x636;" horiz-adv-x="1472" arabic-form="initial" 
d="M606 221c110.667 140 217.336 248.666 320.003 325.999s191.667 116 267 116c60 0 110.333 -20.5 151 -61.5s61 -91.5 61 -151.5c0 -125.333 -58 -223.666 -174 -294.999c-72.667 -45.333 -167.834 -82.5 -285.501 -111.5s-230.834 -43.5 -339.501 -43.5l-3 -6l-27 -57
l-21 -42c-13.333 -27.333 -26.333 -41 -39 -41c-18.667 0 -28 13 -28 39c0 31.333 9.66699 67 29 107c-93.333 0 -162 26 -206 78l-37 43c-6 7.33301 -12 11 -18 11c-6.66699 0 -20.667 -14.333 -42 -43c-45.333 -59.333 -115.333 -89 -210 -89c-42 -0 -63 10.333 -63 31
v158c0 21.333 14 32 42 32l57 1c111.333 0 189.666 37.333 234.999 112c8 14.667 16 22 24 22s14 -7 18 -21l13 -43c14 -47.333 56 -71 126 -71h150zM1091 1017c-44.667 -50 -82.667 -104 -114 -162c-50 46.667 -104 86 -162 118c46 60.667 83.667 114 113 160
c44.667 -40 99 -78.667 163 -116zM726.002 211.999c104.667 0 211.332 16.667 319.999 50c56.667 18 111 39.667 163 65s78 43.333 78 54c0 16 -20.833 33.333 -62.5 52s-80.5 28 -116.5 28c-63.333 0 -130.166 -23 -200.499 -69s-130.833 -106 -181.5 -180z" />
    <glyph glyph-name="sf328.001" unicode="&#x636;" horiz-adv-x="1487" arabic-form="medial" 
d="M1087 917c-44 -50 -81.999 -103.998 -113.999 -161.998c-54.667 51.333 -109.334 90.666 -164.001 117.999c34.667 41.333 73 94.666 115 159.999c44.667 -40 99 -78.667 163 -116zM722.001 212.002c104.667 0 211.332 16.667 319.999 50
c57.333 18 111.833 39.667 163.5 65s77.5 43.333 77.5 54c0 16 -20.833 33.333 -62.5 52s-80.5 28 -116.5 28c-63.333 0 -130.166 -23 -200.499 -69s-130.833 -106 -181.5 -180zM512.999 0.00195312c-90.667 0 -158.332 25.999 -202.999 77.999l-36 43
c-6.66699 7.33301 -12.667 11 -18 11c-6.66699 0 -21 -14.333 -43 -43c-45.333 -59.333 -115.333 -89 -210 -89c-41.333 0 -62 10.333 -62 31v158c0 21.333 13.667 32 41 32l58 1c111.333 0 189.333 37.333 234 112c8.66699 14.667 16.667 22 24 22c8 0 14 -7 18 -21l13 -43
c14.667 -47.333 57 -71 127 -71h149c110 139.333 216.5 247.833 319.5 325.5s191.5 116.5 265.5 116.5c59.333 0 109.333 -20.333 150 -61s61 -90.667 61 -150c0 -36 -10 -79.167 -30 -129.5s-41.333 -86.5 -64 -108.5c-3.33301 -2.66699 -5 -5 -5 -7l1 -3
c0.666992 -0.666992 2 -1 4 -1c4.66699 0 12 1.33301 22 4c2.66699 0.666992 10 2 22 4l23 4l26 2l22 3c9.33301 0.666992 23.666 1 42.999 1h29c29.333 0 44 -10 44 -30v-163c0 -19.333 -35.667 -29 -107 -29c-106 0 -245.333 7.33301 -418 22
c-27.333 2.66699 -45.666 4 -54.999 4c-6.66699 0 -30.334 -1.33301 -71.001 -4l-91 -4l-133 -13c-10.667 -1.33301 -31 -2.66602 -61 -3.99902l-3 -6l-27 -57l-21 -42c-12.667 -27.333 -25.667 -41 -39 -41c-18.667 0 -28 13 -28 39c0 31.333 9.66699 67 29 107z" />
    <glyph glyph-name="sf277.034" unicode="&#x636;" horiz-adv-x="2122" arabic-form="final" 
d="M1746 919c-44.667 -50 -82.667 -104.001 -114 -162.001c-55.333 50.667 -110.333 90 -165 118c35.333 41.333 74 94.333 116 159c44 -39.333 98.333 -77.666 163 -114.999zM1383 211.999c105.333 0 212 16.667 320 50c57.333 18 111.833 39.667 163.5 65
s77.5 43.333 77.5 54c0 16 -20.667 33.333 -62 52s-80.333 28 -117 28c-63.333 0 -130 -23 -200 -69s-130.667 -106 -182 -180zM1264 -0.000976562l-3.99609 -6.00098l-27 -57l-21 -42c-12.667 -27.333 -25.334 -41 -38.001 -41c-19.333 0 -29 13 -29 39
c0 31.333 9.66699 67 29 107c-67.333 0 -124.333 3 -171 9l-25 4c0 -182.667 -51.5 -328.334 -154.5 -437.001s-241.167 -163 -414.5 -163c-103.333 0 -187.166 29.333 -251.499 88s-96.5 134.667 -96.5 228c0 60 16.5 130.667 49.5 212s61.5 122 85.5 122
c11.333 0 17 -6.33301 17 -19c0 -5.33301 -4 -16.666 -12 -33.999c-34.667 -74.667 -52 -135 -52 -181c0 -59.333 26.833 -106.5 80.5 -141.5s125.5 -52.5 215.5 -52.5c66 0 134.333 10.167 205 30.5s126.667 45.833 168 76.5c50.667 38.667 76 98.334 76 179.001
c0 55.333 -5 101.666 -15 138.999c-48 38 -82.333 83.333 -103 136c27.333 55.333 63.666 108.333 108.999 159l9 -16c27.333 -49.333 54.5 -81.333 81.5 -96s71.833 -22 134.5 -22h157c109.333 139.333 215.5 247.833 318.5 325.5s191.833 116.5 266.5 116.5
c58.667 0 108.5 -20.333 149.5 -61s61.5 -90.667 61.5 -150c0 -36 -10 -79.167 -30 -129.5s-41.667 -86.5 -65 -108.5c-3.33301 -2.66699 -5 -5 -5 -7l1 -3c1.33301 -0.666992 2.66602 -1 3.99902 -1c4.66699 0 12 1.33301 22 4c2.66699 0.666992 10 2 22 4l23 4l26 2l22 3
c9.33301 0.666992 23.666 1 42.999 1h30c28.667 0 43 -10 43 -30v-163c0 -19.333 -30.667 -29 -92 -29c-112 0 -256.333 7.33301 -433 22c-28 2.66699 -46.333 4 -55 4c-6.66699 0 -30.334 -1.33301 -71.001 -4l-91 -4l-133 -13c-10 -1.33301 -30 -2.66602 -60 -3.99902z
" />
    <glyph glyph-name="sf311" unicode="&#x637;" horiz-adv-x="1000" arabic-form="initial" 
d="M343 436l22 17.001c172.667 138.667 301.667 208 387 208c54.667 0 101.5 -20.167 140.5 -60.5s58.5 -88.5 58.5 -144.5c0 -126 -52.333 -223 -157 -291c-63.333 -41.333 -155 -79.333 -275 -114s-220.667 -52 -302 -52l-218 1c-38.667 0 -58 10.333 -58 31v158
c0 21.333 13.667 32 41 32l65 2c56 0 101.667 16 137 48c36 32 54 100.333 54 205v18c0 178 -33 399 -99 663c53.333 29.333 95 77.666 125 144.999c26 -61.333 64.333 -118 115 -170c-48 -42 -72 -90.667 -72 -146c0 -14 1.66699 -30.667 5 -50l17 -89
c14 -73.333 21 -159.333 21 -258c0 -7.33301 -1.33301 -41 -4 -101c-2 -28 -3 -45.333 -3 -52zM834 377.001c-49.333 54.667 -107.667 82 -175 82c-105.333 0 -213.333 -57 -324 -171c-33.333 -34 -50 -56.333 -50 -67c0 -7.33301 5.66699 -11 17 -11
c80 0 173 16.667 279 50s190.333 72.333 253 117z" />
    <glyph glyph-name="sf329" unicode="&#x637;" horiz-adv-x="1046" arabic-form="medial" 
d="M832 377c-49.333 54.667 -108 82 -176 82c-105.333 0 -213.333 -57 -324 -171c-33.333 -34 -50 -56.333 -50 -67c0 -7.33301 5.66699 -11 17 -11c80 0 173.167 16.667 279.5 50s190.833 72.333 253.5 117zM865 221h175c29.333 0 44 -10 44 -30v-163
c0 -19.333 -31.333 -29 -94 -29c-73.333 0 -189 5.33301 -347 16c-86.667 6 -146.334 9 -179.001 9c-42.667 0 -76.667 -1 -102 -3l-138 -13c-52.667 -5.33301 -115.667 -8 -189 -8c-62.667 -0 -94 10.333 -94 31v158c0 21.333 14 32 42 32l61 2
c56.667 0 102.334 16 137.001 48c36 32 54 100.333 54 205v24c0 174 -33 393 -99 657c54 29.333 96 77.666 126 144.999c25.333 -61.333 63.333 -118 114 -170c-48 -42 -72 -90.667 -72 -146c0 -14 2 -30.667 6 -50l16 -89c14 -73.333 21 -159.333 21 -258
c0 -7.33301 -1.33301 -41 -4 -101c-1.33301 -28 -2 -45.333 -2 -52l21 17c172.667 138.667 302 208 388 208c54 0 100.5 -20.167 139.5 -60.5s58.5 -88.5 58.5 -144.5c0 -75.333 -27.667 -153.666 -83 -234.999z" />
    <glyph glyph-name="sf277.006" unicode="&#x637;" horiz-adv-x="1290" arabic-form="final" 
d="M378 1157c54 29.333 96.001 77.667 126.001 145c25.333 -61.333 63.333 -118 114 -170c-48 -42 -72 -90.667 -72 -146c0 -14 2 -30.667 6 -50l16 -89c14 -73.333 21 -159.333 21 -258c0 -7.33301 -1.33301 -41 -4 -101c-1.33301 -28 -2 -45.333 -2 -52l21 17
c172.667 138.667 301.667 208 387 208c54.667 0 101.5 -20.167 140.5 -60.5s58.5 -88.5 58.5 -144.5c0 -75.333 -27.667 -153.666 -83 -234.999h179c29.333 0 44 -10 44 -30v-163c0 -19.333 -32 -29 -96 -29c-74.667 0 -191 5.33301 -349 16
c-86.667 6 -146.334 9 -179.001 9c-42.667 0 -76.667 -1 -102 -3l-138 -13c-52.667 -5.33301 -98.667 -8 -138 -8c-76.667 0 -143.667 30.667 -201 92c-39.333 42 -59 76 -59 102c0 16 13.333 24 40 24l30 3l88 2c70 0 125 9.33301 165 28
c34 15.333 56.833 38.666 68.5 69.999s17.5 83 17.5 155v26c0 172.667 -33 391 -99 655zM1074 377.001c-49.333 54.667 -108 82 -176 82c-105.333 0 -213.333 -57 -324 -171c-33.333 -34 -50 -56.333 -50 -67c0 -7.33301 5.66699 -11 17 -11c80 0 173.167 16.667 279.5 50
s190.833 72.333 253.5 117z" />
    <glyph glyph-name="sf311.001" unicode="&#x638;" horiz-adv-x="1000" arabic-form="initial" 
d="M781 980c-44 -50 -81.668 -103.998 -113.001 -161.998c-55.333 51.333 -110.333 90.666 -165 117.999c34.667 41.333 73.334 94.666 116.001 159.999c44 -40 98 -78.667 162 -116zM342.999 436.002l22 17.001c172.667 138.667 301.667 208 387 208
c54.667 0 101.5 -20.167 140.5 -60.5s58.5 -88.5 58.5 -144.5c0 -126 -52.333 -223 -157 -291c-63.333 -41.333 -155 -79.333 -275 -114s-220.667 -52 -302 -52l-218 1c-38.667 0 -58 10.333 -58 31v158c0 21.333 13.667 32 41 32l65 2c56 0 101.667 16 137 48
c36 32 54 100.333 54 205v18c0 178 -33 399 -99 663c53.333 29.333 95 77.666 125 144.999c26 -61.333 64.333 -118 115 -170c-48 -42 -72 -90.667 -72 -146c0 -14 1.66699 -30.667 5 -50l17 -89c14 -73.333 21 -159.333 21 -258c0 -7.33301 -1.33301 -41 -4 -101
c-2 -28 -3 -45.333 -3 -52zM833.999 377.003c-49.333 54.667 -107.667 82 -175 82c-105.333 0 -213.333 -57 -324 -171c-33.333 -34 -50 -56.333 -50 -67c0 -7.33301 5.66699 -11 17 -11c80 0 173 16.667 279 50s190.333 72.333 253 117z" />
    <glyph glyph-name="sf329.001" unicode="&#x638;" horiz-adv-x="1031" arabic-form="medial" 
d="M770 980c-44.667 -50 -82.667 -103.998 -114 -161.998c-54.667 51.333 -109.667 90.666 -165 117.999c35.333 41.333 74 94.666 116 159.999c44.667 -40 99 -78.667 163 -116zM832 377.002c-49.333 54.667 -108 82 -176 82c-105.333 0 -213.333 -57 -324 -171
c-33.333 -34 -50 -56.333 -50 -67c0 -7.33301 5.66699 -11 17 -11c80 0 173.167 16.667 279.5 50s190.833 72.333 253.5 117zM865 221.002h175c29.333 0 44 -10 44 -30v-163c0 -19.333 -31.333 -29 -94 -29c-73.333 0 -189 5.33301 -347 16c-86.667 6 -146.334 9 -179.001 9
c-42.667 0 -76.667 -1 -102 -3l-138 -13c-52.667 -5.33301 -115.667 -8 -189 -8c-62.667 0 -94 10.333 -94 31v158c0 21.333 14 32 42 32l61 2c56.667 0 102.334 16 137.001 48c36 32 54 100.333 54 205v24c0 174 -33 393 -99 657c54 29.333 96 77.666 126 144.999
c25.333 -61.333 63.333 -118 114 -170c-48 -42 -72 -90.667 -72 -146c0 -14 2 -30.667 6 -50l16 -89c14 -73.333 21 -159.333 21 -258c0 -7.33301 -1.33301 -41 -4 -101c-1.33301 -28 -2 -45.333 -2 -52l21 17c172.667 138.667 302 208 388 208
c54 0 100.5 -20.167 139.5 -60.5s58.5 -88.5 58.5 -144.5c0 -75.333 -27.667 -153.666 -83 -234.999z" />
    <glyph glyph-name="sf277.035" unicode="&#x638;" horiz-adv-x="1290" arabic-form="final" 
d="M1013 980c-44 -50 -81.668 -103.998 -113.001 -161.998c-55.333 51.333 -110.333 90.666 -165 117.999c34.667 41.333 73.334 94.666 116.001 159.999c44 -40 98 -78.667 162 -116zM377.999 1157c54 29.333 96.001 77.667 126.001 145
c25.333 -61.333 63.333 -118 114 -170c-48 -42 -72 -90.667 -72 -146c0 -14 2 -30.667 6 -50l16 -89c14 -73.333 21 -159.333 21 -258c0 -7.33301 -1.33301 -41 -4 -101c-1.33301 -28 -2 -45.333 -2 -52l21 17c172.667 138.667 301.667 208 387 208
c54.667 0 101.5 -20.167 140.5 -60.5s58.5 -88.5 58.5 -144.5c0 -75.333 -27.667 -153.666 -83 -234.999h179c29.333 0 44 -10 44 -30v-163c0 -19.333 -32 -29 -96 -29c-74.667 0 -191 5.33301 -349 16c-86.667 6 -146.334 9 -179.001 9c-42.667 0 -76.667 -1 -102 -3
l-138 -13c-52.667 -5.33301 -98.667 -8 -138 -8c-76.667 0 -143.667 30.667 -201 92c-39.333 42 -59 76 -59 102c0 16 13.333 24 40 24l30 3l88 2c70 0 125 9.33301 165 28c34 15.333 56.833 38.666 68.5 69.999s17.5 83 17.5 155v26c0 172.667 -33 391 -99 655z
M1074 377.003c-49.333 54.667 -108 82 -176 82c-105.333 0 -213.333 -57 -324 -171c-33.333 -34 -50 -56.333 -50 -67c0 -7.33301 5.66699 -11 17 -11c80 0 173.167 16.667 279.5 50s190.833 72.333 253.5 117z" />
    <glyph glyph-name="sf299" unicode="&#x639;" horiz-adv-x="897" arabic-form="initial" 
d="M842 498c0 -89.333 -7.66699 -160.002 -23 -212.002l-361 -169c-166.667 -78 -315 -117 -445 -117c-48.667 0 -73 10.333 -73 31v158c0 21.333 13.667 32 41 32l105 1c62.667 4.66699 112.667 11.334 150 20.001c-58.667 41.333 -88 91.333 -88 150
c0 33.333 13.333 74.333 40 123s59.667 92.667 99 132c70.667 70 139 105 205 105c56.667 0 113 -25 169 -75c52 -46.667 78 -83.667 78 -111c0 -12.667 -6 -19 -18 -19c-4 0 -15 3.33301 -33 10c-47.333 16.667 -89 25 -125 25c-54 0 -110.667 -10.667 -170 -32
s-89 -41.666 -89 -60.999c0 -32 21 -63 63 -93s87 -46.333 135 -49c48 8.66699 161.333 59 340 151z" />
    <glyph glyph-name="sf318" unicode="&#x639;" horiz-adv-x="800" arabic-form="medial" 
d="M292 278c-28.667 23.333 -74.999 42.9971 -138.999 58.9971c13.333 72.667 45.333 130.334 96 173.001s112 64 184 64c60.667 0 111.834 -14.333 153.501 -43s62.5 -64 62.5 -106c0 -49.333 -38 -91 -114 -125c21.333 -29.333 52.166 -49.833 92.499 -61.5
s102.166 -17.5 185.499 -17.5h11c21.333 0 32 -10 32 -30v-163c0 -6 -6.5 -12.167 -19.5 -18.5s-25.833 -9.5 -38.5 -9.5c-51.333 -8 -98.5 -2.66699 -141.5 16s-96.5 56.334 -160.5 113.001c-34 30.667 -58.667 46 -74 46s-35 -8 -59 -24
c-98.667 -66.667 -172.167 -110.167 -220.5 -130.5s-95.833 -27.166 -142.5 -20.499c-39.333 -0 -59 10.333 -59 31v158c0 21.333 14 32 42 32c10 2 46 3 108 3c97.333 0 164.333 18 201 54z" />
    <glyph glyph-name="sf277.008" unicode="&#x639;" horiz-adv-x="1000" arabic-form="final" 
d="M536 170c-60.667 -22 -123.998 -69.002 -189.998 -141.002c-98 -106 -147 -226 -147 -360c0 -74.667 22.5 -137 67.5 -187s115.833 -91.333 212.5 -124c133.333 -44.667 302.666 -67 507.999 -67c94 0 168.333 4.66699 223 14l26 4c6 0.666992 11.667 1 17 1
c18.667 0 28 -8.33301 28 -25s-24 -40 -72 -70c-156 -96.667 -315.333 -145 -478 -145c-107.333 0 -209.333 18.333 -306 55s-173.667 86.667 -231 150c-78.667 86.667 -118 199.334 -118 338.001c0 210.667 111.333 421 334 631c-50.667 41.333 -100 62 -148 62
c-2.66699 0 -7.66699 -0.333008 -15 -1c13.333 78 46.166 140.5 98.499 187.5s115.166 70.5 188.499 70.5c58.667 0 112.667 -17.167 162 -51.5s74 -71.833 74 -112.5c0 -44 -38.333 -86.333 -115 -127c20 -19.333 42.667 -32.666 68 -39.999s61 -11 107 -11h146
c29.333 0 44 -10 44 -30v-163c0 -6 -6.5 -12.167 -19.5 -18.5s-25.833 -9.5 -38.5 -9.5h-164c-111.333 0 -198.666 56.667 -261.999 170z" />
    <glyph glyph-name="sf299.001" unicode="&#x63a;" horiz-adv-x="904" arabic-form="initial" 
d="M527 1046c-44 -50 -81.999 -103.999 -113.999 -161.999c-54.667 50.667 -109.334 89.667 -164.001 117c34.667 41.333 73 94.666 115 159.999c44.667 -40 99 -78.333 163 -115zM842.001 498.001c0 -89.333 -7.66699 -160.002 -23 -212.002l-361 -169
c-166.667 -78 -315 -117 -445 -117c-48.667 0 -73 10.333 -73 31v158c0 21.333 13.667 32 41 32l105 1c62.667 4.66699 112.667 11.334 150 20.001c-58.667 41.333 -88 91.333 -88 150c0 33.333 13.333 74.333 40 123s59.667 92.667 99 132c70.667 70 139 105 205 105
c56.667 0 113 -25 169 -75c52 -46.667 78 -83.667 78 -111c0 -12.667 -6 -19 -18 -19c-4 0 -15 3.33301 -33 10c-47.333 16.667 -89 25 -125 25c-54 0 -110.667 -10.667 -170 -32s-89 -41.666 -89 -60.999c0 -32 21 -63 63 -93s87 -46.333 135 -49
c48 8.66699 161.333 59 340 151z" />
    <glyph glyph-name="sf318.001" unicode="&#x63a;" horiz-adv-x="800" arabic-form="medial" 
d="M541 920c-44 -50 -81.668 -104.001 -113.001 -162.001c-55.333 50.667 -110.333 90 -165 118c34.667 41.333 73.334 94.333 116.001 159c44 -39.333 98 -77.666 162 -114.999zM291.999 277.999c-28.667 23.333 -74.999 42.9971 -138.999 58.9971
c13.333 72.667 45.333 130.334 96 173.001s112 64 184 64c60.667 0 111.834 -14.333 153.501 -43s62.5 -64 62.5 -106c0 -49.333 -38 -91 -114 -125c21.333 -29.333 52.166 -49.833 92.499 -61.5s102.166 -17.5 185.499 -17.5h11c21.333 0 32 -10 32 -30v-163
c0 -6 -6.5 -12.167 -19.5 -18.5s-25.833 -9.5 -38.5 -9.5c-51.333 -8 -98.5 -2.66699 -141.5 16s-96.5 56.334 -160.5 113.001c-34 30.667 -58.667 46 -74 46s-35 -8 -59 -24c-98.667 -66.667 -172.167 -110.167 -220.5 -130.5s-95.833 -27.166 -142.5 -20.499
c-39.333 0 -59 10.333 -59 31v158c0 21.333 14 32 42 32c10 2 46 3 108 3c97.333 0 164.333 18 201 54z" />
    <glyph glyph-name="sf277.036" unicode="&#x63a;" horiz-adv-x="1000" arabic-form="final" 
d="M641 897c-44.667 -50 -82.667 -104.001 -114 -162.001c-54.667 50.667 -109.667 90 -165 118c35.333 41.333 74 94.333 116 159c44.667 -39.333 99 -77.666 163 -114.999zM536 169.999c-60.667 -22 -123.998 -69.002 -189.998 -141.002c-98 -106 -147 -226 -147 -360
c0 -74.667 22.5 -137 67.5 -187s115.833 -91.333 212.5 -124c133.333 -44.667 302.666 -67 507.999 -67c94 0 168.333 4.66699 223 14l26 4c6 0.666992 11.667 1 17 1c18.667 0 28 -8.33301 28 -25s-24 -40 -72 -70c-156 -96.667 -315.333 -145 -478 -145
c-107.333 0 -209.333 18.333 -306 55s-173.667 86.667 -231 150c-78.667 86.667 -118 199.334 -118 338.001c0 210.667 111.333 421 334 631c-50.667 41.333 -100 62 -148 62c-2.66699 0 -7.66699 -0.333008 -15 -1c13.333 78 46.166 140.5 98.499 187.5
s115.166 70.5 188.499 70.5c58.667 0 112.667 -17.167 162 -51.5s74 -71.833 74 -112.5c0 -44 -38.333 -86.333 -115 -127c20 -19.333 42.667 -32.666 68 -39.999s61 -11 107 -11h146c29.333 0 44 -10 44 -30v-163c0 -6 -6.5 -12.167 -19.5 -18.5s-25.833 -9.5 -38.5 -9.5
h-164c-111.333 0 -198.666 56.667 -261.999 170z" />
    <glyph glyph-name="sf301" unicode="&#x641;" horiz-adv-x="600" arabic-form="initial" 
d="M196 507c14 -6 28.332 -9 42.999 -9c12.667 0 24.834 4.33301 36.501 13s17.5 18 17.5 28c0 8.66699 -6.33301 19.667 -19 33s-23 20 -31 20c-8.66699 0 -17.5 -8.5 -26.5 -25.5s-15.833 -36.833 -20.5 -59.5zM415.999 323
c0.666992 4.66699 0.99707 8.33398 0.99707 11.001c0 19.333 -4.33301 38.333 -13 57s-17.667 28 -27 28s-18.333 -7 -27 -21c-25.333 -40.667 -66.666 -61 -123.999 -61c-78.667 0 -118 33.333 -118 100c0 69.333 19.5 144.666 58.5 225.999s75.167 122 108.5 122
c44.667 0 94.334 -53 149.001 -159c45.333 -86.667 68 -168.667 68 -246c0 -138.667 -35.667 -233.667 -107 -285c-87.333 -63.333 -216 -95 -386 -95c-39.333 -0 -59 10.333 -59 31v158c0 21.333 13.667 32 41 32h145c116.667 0 213.334 34 290.001 102zM365.996 1079
c-44 -50 -81.668 -103.666 -113.001 -160.999c-55.333 50.667 -110.333 89.667 -165 117c34.667 41.333 73.334 94.666 116.001 159.999c44 -40 98 -78.667 162 -116z" />
    <glyph glyph-name="sf321" unicode="&#x641;" horiz-adv-x="710" arabic-form="medial" 
d="M383 285c38 0 71.5 10.832 100.5 32.499s43.5 46.5 43.5 74.5c0 30 -12 56.833 -36 80.5s-50.667 35.5 -80 35.5c-30 0 -63 -13.833 -99 -41.5s-54 -53.167 -54 -76.5s13.833 -46.666 41.5 -69.999s55.5 -35 83.5 -35zM741 190.999l-0.000976562 -163
c0 -6 -6.5 -12.167 -19.5 -18.5s-25.833 -9.5 -38.5 -9.5h-72c-72.667 0 -151.667 24.333 -237 73c-21.333 12.667 -38.666 19 -51.999 19c-16 0 -38.667 -7.66699 -68 -23c-88 -46 -173.333 -69 -256 -69c-38 0 -57 10.333 -57 31v158c0 21.333 14 32 42 32h95
c12.667 0 22.667 0.333008 30 1l28 2c32 2.66699 48 11 48 25c0 2 -0.333008 4.33301 -1 7l-5 17c-4 12 -6 23.333 -6 34c0 67.333 41 150.166 123 248.499s151 147.5 207 147.5c30 0 56.5 -21.167 79.5 -63.5s34.5 -91.166 34.5 -146.499
c0 -75.333 -28.667 -154.333 -86 -237c-4.66699 -6.66699 -7 -12 -7 -16c0 -12.667 18.333 -19 55 -19h120c28.667 0 43 -10 43 -30zM571.999 1057c-44.667 -50 -82.667 -104 -114 -162c-54.667 50.667 -109.667 89.667 -165 117c35.333 41.333 74 94.666 116 159.999
c44.667 -39.333 99 -77.666 163 -114.999z" />
    <glyph glyph-name="sf277.009" unicode="&#x641;" horiz-adv-x="1733" arabic-form="final" 
d="M1409 283c33.333 -2 65.333 8.5 96 31.5s46 48.5 46 76.5c0 29.333 -11.833 56 -35.5 80s-50.5 36 -80.5 36s-62.833 -13.833 -98.5 -41.5s-53.5 -53.167 -53.5 -76.5c0 -20 14.5 -42.333 43.5 -67s56.5 -37.667 82.5 -39zM1603 220l124.001 0.00292969
c28.667 0 43 -10 43 -30v-163c0 -6.66699 -6.5 -13 -19.5 -19s-25.833 -9 -38.5 -9h-76c-70.667 0 -149.667 24.333 -237 73c-22.667 12.667 -39 19 -49 19s-42 -15 -96 -45c-126 -70 -320.667 -105 -584 -105c-188.667 0 -335.834 27.333 -441.501 82
s-158.5 131 -158.5 229c0 84 25.333 165.333 76 244c24 37.333 41.333 56 52 56c9.33301 0 14 -4.66699 14 -14c0 -4 -3.33301 -12.667 -10 -26c-21.333 -42 -32 -80.667 -32 -116c0 -160.667 206 -241 618 -241c99.333 0 194.333 10.167 285 30.5s136 41.5 136 63.5
c0 1.33301 -0.333008 3 -1 5l-6 18c-3.33301 12 -5 23.333 -5 34c0 67.333 41 150.166 123 248.499s151 147.5 207 147.5c29.333 0 55.5 -21.333 78.5 -64s34.5 -91.334 34.5 -146.001c0 -75.333 -28.333 -154.333 -85 -237c-4.66699 -6.66699 -7 -12.334 -7 -17.001
c0 -12 18.333 -18 55 -18zM1596 1056c-44 -50 -81.668 -103.999 -113.001 -161.999c-55.333 50.667 -110.333 89.667 -165 117c34.667 41.333 73.334 94.666 116.001 159.999c44 -40 98 -78.333 162 -115z" />
    <glyph glyph-name="sf301.001" unicode="&#x642;" horiz-adv-x="600" arabic-form="initial" 
d="M204 914c-60 51.333 -114.332 91.667 -162.999 121c42 54 79.333 109 112 165c46 -44.667 83.667 -76 113 -94c24.667 28.667 52 67.334 82 116.001c40 -38.667 92 -78 156 -118c-24.667 -32.667 -49.334 -73.334 -74.001 -122.001l-26 -50l-26 23
c-36.667 32.667 -68.667 58 -96 76c-29.333 -36.667 -55.333 -75.667 -78 -117zM197.001 507.001c13.333 -6 27.333 -9 42 -9c12.667 0 25 4.33301 37 13s18 18 18 28c0 8.66699 -6.5 19.667 -19.5 33s-23.5 20 -31.5 20s-16.667 -8.5 -26 -25.5s-16 -36.833 -20 -59.5z
M417.001 323.001v11.001c0 19.333 -4.33301 38.333 -13 57s-17.334 28 -26.001 28c-9.33301 0 -18.333 -7 -27 -21c-25.333 -40.667 -67 -61 -125 -61c-78 0 -117 33.333 -117 100c0 69.333 19.333 144.666 58 225.999s74.667 122 108 122c45.333 0 95.333 -53 150 -159
c44.667 -86.667 67 -168.667 67 -246c0 -138.667 -35.667 -233.667 -107 -285c-87.333 -63.333 -215.666 -95 -384.999 -95c-39.333 0 -59 10.333 -59 31v158c0 21.333 13.667 32 41 32h144c116.667 0 213.667 34 291 102z" />
    <glyph glyph-name="sf321.001" unicode="&#x642;" horiz-adv-x="702" arabic-form="medial" 
d="M281 795c-60.667 52 -115.332 92.6689 -163.999 122.002c42 54 79.333 108.667 112 164c46 -44 84 -75.333 114 -94c24 28.667 51 67.667 81 117c40.667 -38.667 92.667 -78.334 156 -119.001c-24.667 -32 -49.334 -72.333 -74.001 -121
c-5.33301 -11.333 -14 -28.333 -26 -51l-26 23c-36 33.333 -67.667 58.666 -95 75.999c-30 -36 -56 -75 -78 -117zM384.002 285.002c37.333 0 70.5 10.832 99.5 32.499s43.5 46.5 43.5 74.5c0 30 -11.833 56.833 -35.5 80.5s-50.5 35.5 -80.5 35.5s-63 -13.833 -99 -41.5
s-54 -53.167 -54 -76.5s14 -46.666 42 -69.999s56 -35 84 -35zM742.002 191.001v-163c0 -6 -6.5 -12.167 -19.5 -18.5s-26.167 -9.5 -39.5 -9.5h-72c-72 0 -150.667 24.333 -236 73c-22 12.667 -39.667 19 -53 19c-16 0 -38.667 -7.66699 -68 -23
c-87.333 -46 -172.333 -69 -255 -69c-38.667 0 -58 10.333 -58 31v158c0 21.333 14 32 42 32h95c12.667 0 23 0.333008 31 1l27 2c32.667 2.66699 49 11 49 25c0 2 -0.333008 4.33301 -1 7l-6 17c-4 12 -6 23.333 -6 34c0 67.333 41 150.166 123 248.499
s151.333 147.5 208 147.5c29.333 0 55.5 -21.167 78.5 -63.5s34.5 -91.166 34.5 -146.499c0 -75.333 -28.667 -154.333 -86 -237c-4.66699 -6.66699 -7 -12 -7 -16c0 -12.667 18.667 -19 56 -19h119c29.333 0 44 -10 44 -30z" />
    <glyph glyph-name="sf277.010" unicode="&#x642;" horiz-adv-x="1113" arabic-form="final" 
d="M913 203c-22 67.333 -52.666 101 -91.999 101s-59 -17.667 -59 -53c0 -33.333 38 -50 114 -50c9.33301 0 21.666 0.666992 36.999 2zM919.001 0l-16.9961 0.000976562c-78.667 0 -136.5 12.667 -173.5 38s-55.5 65 -55.5 119c0 60 23.333 125.5 70 196.5
s90 106.5 130 106.5c56 0 104 -79.667 144 -239h105c29.333 0 44 -10 44 -30v-163c0 -6 -6.5 -12.167 -19.5 -18.5s-26.167 -9.5 -39.5 -9.5h-113c-14 -118 -73.667 -218.333 -179 -301c-57.333 -44.667 -124.166 -81.834 -200.499 -111.501s-143.5 -44.5 -201.5 -44.5
c-94.667 0 -175.834 32.333 -243.501 97s-101.5 142 -101.5 232c0 46.667 12.167 99.334 36.5 158.001s55.166 110 92.499 154l18 21c7.33301 8.66699 13.666 13 18.999 13c10 0 15 -4.66699 15 -14c0 -6 -4.66699 -17 -14 -33l-11 -19
c-44.667 -78.667 -67 -147.667 -67 -207c0 -56.667 28 -102.5 84 -137.5s129 -52.5 219 -52.5c79.333 0 161.166 14.667 245.499 44s148.166 65.666 191.499 108.999zM727.005 606.001c-65.333 54 -120 93.668 -164 119.001l40 54c26 35.333 51 72.666 75 111.999
c40 -40 77 -71 111 -93c28 32 55 70.667 81 116c50 -46.667 102.667 -86.667 158 -120c-37.333 -44.667 -71.666 -101.667 -102.999 -171c-36.667 36 -77.334 68 -122.001 96c-26 -29.333 -51.333 -67 -76 -113z" />
    <glyph glyph-name="sf302.001" unicode="&#x643;" horiz-adv-x="800" arabic-form="initial" 
d="M769 1006c-114 -36.667 -226.833 -78.5 -338.5 -125.5s-188.834 -84.833 -231.501 -113.5l31 -18l81 -47c90.667 -52.667 160.334 -113.834 209.001 -183.501s73 -143.5 73 -221.5c0 -198 -120 -297 -360 -297h-235c-38.667 0 -58 10.333 -58 31v158
c0 21.333 13.667 32 41 32h332c58 0 106.667 6.83301 146 20.5s59 30.5 59 50.5c0 25.333 -28.5 63.833 -85.5 115.5s-115.833 92.167 -176.5 121.5l-92 45c-32 15.333 -53.667 35.166 -65 59.499s-17 61.833 -17 112.5c0 29.333 3.16699 51.333 9.5 66
s20.5 32.334 42.5 53.001c66 59.333 171 123.833 315 193.5s284 123.834 420 162.501z" />
    <glyph glyph-name="sf322.003" unicode="&#x643;" horiz-adv-x="1024" arabic-form="medial" 
d="M1007 1316l-120.001 -234c-155.333 -52.667 -300.666 -110.667 -435.999 -174c-170 -80.667 -255 -133 -255 -157c0 -10.667 38.333 -31.667 115 -63c75.333 -30 156.333 -72.667 243 -128s158 -109.666 214 -162.999l75 -71c72.667 -70 138.334 -105 197.001 -105h11
c21.333 0 32 -10 32 -30v-163c0 -6.66699 -6.83301 -13 -20.5 -19s-28.167 -9 -43.5 -9c-55.333 0 -126 42 -212 126l-86 83l-43 42c-14.667 14 -30.334 30 -47.001 48c-30 31.333 -53.333 52 -70 62l-4 2c-4 0 -6 -4 -6 -12l2 -48
c0 -96.667 -35.833 -171.334 -107.5 -224.001s-172.834 -79 -303.501 -79h-142c-39.333 -0 -59 10.333 -59 31v158c0 21.333 14 32 42 32h153c98.667 0 180.334 12.5 245.001 37.5s97 56.5 97 94.5c0 20 -12.333 39.5 -37 58.5s-73.667 46.5 -147 82.5l-64 31
c-37.333 18.667 -68.333 49.5 -93 92.5s-37 88.167 -37 135.5c0 66 74 147.333 222 244s341.333 190 580 280l84 31z" />
    <glyph glyph-name="sf322.004" unicode="&#x643;" horiz-adv-x="1621" arabic-form="final" 
d="M1340 229l-22.002 0.00195312c-27.333 -79.333 -54.666 -134.333 -81.999 -165s-70.333 -54.334 -129 -71.001c-84 -23.333 -230.333 -35 -439 -35c-205.333 0 -356.666 27 -453.999 81s-146 138.333 -146 253c0 49.333 14 107 42 173s52.333 99 73 99
c9.33301 0 14 -4.33301 14 -13c0 -3.33301 -1.33301 -7.66602 -4 -12.999c-25.333 -44.667 -38 -87.334 -38 -128.001c0 -80.667 42 -139.167 126 -175.5s219.333 -54.5 406 -54.5c250.667 0 415 17 493 51c60.667 26 91 87 91 183v32l-35 659l125 143l32 -628
c9.33301 -158.667 25.5 -264.834 48.5 -318.501s63.833 -80.5 122.5 -80.5h38c28.667 0 43 -10 43 -30v-163c0 -19.333 -29 -29 -87 -29c-62 0 -107 14.667 -135 44s-55.667 91.333 -83 186zM571.998 574.002v24.999c15.333 -1.33301 30 -2 44 -2
c46.667 0 91.667 6.5 135 19.5s65 26.5 65 40.5c0 5.33301 -15 12 -45 20c-46 12 -77.5 24.167 -94.5 36.5s-25.5 29.5 -25.5 51.5c0 31.333 13 70.833 39 118.5s55 84.834 87 111.501c29.333 24.667 59.333 39 90 43l13 -110c-27.333 -4.66699 -52.333 -14.5 -75 -29.5
s-34 -29.5 -34 -43.5c0 -13.333 13.333 -24 40 -32c51.333 -14.667 85.166 -28.5 101.499 -41.5s24.5 -32.5 24.5 -58.5c0 -48 -21 -94.667 -63 -140s-85.333 -68 -130 -68c-47.333 0 -104.666 19.667 -171.999 59z" />
    <glyph glyph-name="sf306" unicode="&#x644;" horiz-adv-x="441" arabic-form="initial" 
d="M141 1171l27.001 33c32 38.667 57.333 71 76 97c37.333 -81.333 80 -143 128 -185c-40.667 -38 -61 -82 -61 -132c0 -24 2.66699 -50.333 8 -79l17 -90c36 -195.333 54 -344.333 54 -447c0 -103.333 -29.333 -205.333 -88 -306
c-62.667 -41.333 -164.334 -62 -305.001 -62c-38 -0 -57 10.333 -57 31v158c0 21.333 13.667 32 41 32h128c101.333 0 152 43.667 152 131c0 20 -2.66699 45.667 -8 77l-21 130c-21.333 134 -35.333 238 -42 312l-10 111c-7.33301 81.333 -20.333 144.333 -39 189z" />
    <glyph glyph-name="sf325" unicode="&#x644;" horiz-adv-x="568" arabic-form="medial" 
d="M177 1148l133 151.998l38 -475c0 -98 7.66699 -209.667 23 -335l7 -59c10.667 -85.333 29.334 -141.666 56.001 -168.999s77 -41 151 -41c29.333 0 44 -10 44 -30v-163c0 -6.66699 -7 -13 -21 -19s-29 -9 -45 -9c-58 0 -100 5.66699 -126 17
c-24.667 11.333 -48 31.333 -70 60s-36 57.667 -42 87c-7.33301 32 -16 48 -26 48c-8.66699 0 -18.334 -13.667 -29.001 -41c-43.333 -114 -103 -171 -179 -171h-91c-39.333 0 -59 10.333 -59 31v158c0 22 20.667 33 62 33l13 -1c94 0 156.667 10.667 188 32s47 64 47 128
c0 112.667 -21.667 342.334 -65 689.001z" />
    <glyph glyph-name="sf277.011" unicode="&#x644;" horiz-adv-x="1136" arabic-form="final" 
d="M772 1104l125.001 144.999l12 -428c0 -139.333 16.667 -283.666 50 -432.999c15.333 -70.667 34.166 -116.167 56.499 -136.5s64.5 -30.5 126.5 -30.5c28.667 0 43 -10 43 -30v-163c0 -19.333 -26.667 -29 -80 -29c-92 0 -153.667 44.667 -185 134l-16 -5
c1.33301 -20 2.33301 -33.333 3 -40l3 -62l3 -64l-1 -34v-62c0 -176.667 -42.333 -307 -127 -391c-37.333 -38 -91.333 -69.167 -162 -93.5s-142 -36.5 -214 -36.5c-110 0 -195.5 27 -256.5 81s-91.5 129.667 -91.5 227c0 99.333 44.333 218.333 133 357
c22 34.667 38.333 52 49 52c12 0 18 -6 18 -18c0 -6.66699 -5.66699 -19.667 -17 -39c-62 -104 -93 -188.333 -93 -253c0 -50.667 28.167 -94.167 84.5 -130.5s123.5 -54.5 201.5 -54.5c104 0 204 27.667 300 83c40 23.333 65.5 45 76.5 65s16.5 54.667 16.5 104
c0 39.333 -3.33301 117.333 -10 234l-13 260l-20 323c-4.66699 82 -7 144 -7 186z" />
    <glyph glyph-name="sf307" unicode="&#x645;" horiz-adv-x="687" arabic-form="initial" 
d="M518 292c0 32 -12.668 64.499 -38.001 97.499s-50.333 49.5 -75 49.5c-14.667 0 -30.167 -9.66699 -46.5 -29s-24.5 -38.333 -24.5 -57c0 -19.333 16.333 -38.666 49 -57.999s65.334 -29 98.001 -29c24.667 0 37 8.66699 37 26zM627.999 183.999
c-7.33301 -6.66699 -12 -11 -14 -13l-33 -32c-44 -41.333 -76.667 -62 -98 -62c-19.333 0 -64.666 19.667 -135.999 59c-42 23.333 -71.333 35 -88 35c-18 0 -37 -16.333 -57 -49c-32 -52 -60.667 -85.333 -86 -100s-66 -22 -122 -22c-36 0 -54 10.333 -54 31v158
c0 21.333 13.667 32 41 32c6.66699 0.666992 17.667 1 33 1c72 0 122 8.83301 150 26.5s59.333 60.167 94 127.5c43.333 86 79.833 144.167 109.5 174.5s64.167 45.5 103.5 45.5c51.333 0 87.666 -28 108.999 -84s37.333 -165.333 48 -328z" />
    <glyph glyph-name="sf326" unicode="&#x645;" horiz-adv-x="919" arabic-form="medial" 
d="M509 180c16.667 0 25 12.335 25 37.002c0 39.333 -9.83301 76.666 -29.5 111.999s-40.167 53 -61.5 53c-14 0 -33.167 -11.833 -57.5 -35.5s-36.5 -42.167 -36.5 -55.5c0 -12.667 22.167 -34.334 66.5 -65.001s75.5 -46 93.5 -46zM-59 31.002l-0.000976562 158.002
c0 21.333 18.333 32 55 32h33c60.667 0 107.167 7.5 139.5 22.5s61.5 42.5 87.5 82.5c78 118.667 138.333 178 181 178c27.333 0 61.333 -21.333 102 -64c84.667 -90.667 146.334 -149.834 185.001 -177.501s78.667 -41.5 120 -41.5h81c29.333 0 44 -10 44 -30v-163
c0 -19.333 -25.333 -29 -76 -29c-67.333 0 -127.333 19.667 -180 59c-26 18.667 -42.667 28 -50 28c-10 0 -18 -20 -24 -60c-8.66699 -56 -31.334 -84 -68.001 -84c-28.667 0 -90 35 -184 105l-77 57c-35.333 26.667 -60 40 -74 40c-8 0 -17 -6 -27 -18l-28 -33
c-31.333 -36.667 -59.166 -61.334 -83.499 -74.001s-55.5 -19 -93.5 -19c-42 0 -63 10.333 -63 31z" />
    <glyph glyph-name="sf277.012" unicode="&#x645;" horiz-adv-x="1000" arabic-form="final" 
d="M384 379c21.333 29.333 39 44.002 53 44.002c12.667 0 28.667 -11 48 -33l22 -27c81.333 -94.667 238 -142 470 -142h12c21.333 0 32 -10 32 -30v-163c0 -18.667 -23.333 -28 -70 -28c-136 0 -234.667 17 -296 51c-10 6 -16.333 9 -19 9c-12 0 -18 -23.333 -18 -70v-23
c0 -43.333 -9.5 -78 -28.5 -104s-43.833 -39 -74.5 -39c-39.333 0 -72.833 19.333 -100.5 58s-45.5 91.334 -53.5 158.001c-4.66699 37.333 -19 56 -43 56c-41.333 0 -77 -15 -107 -45s-45 -66.333 -45 -109c0 -33.333 10 -102.666 30 -207.999
c10.667 -60 17 -96.333 19 -109l13 -85c27.333 -174.667 41 -319.334 41 -434.001c0 -68 -11.667 -102 -35 -102c-16 0 -30.333 32 -43 96l-15 78l-19 107l-16 94c-7.33301 41.333 -12.333 73.333 -15 96l-11 84l-19 146l-17 149c-7.33301 59.333 -11 98.666 -11 117.999
c0 75.333 21.667 145.166 65 209.499s103 115.833 179 154.5c34 17.333 58 31.666 72 42.999z" />
    <glyph glyph-name="sf300.008" unicode="&#x646;" horiz-adv-x="478" arabic-form="initial" 
d="M366 930c-44.667 -50 -82.667 -103.666 -114 -160.999c-54.667 50.667 -109.667 89.667 -165 117c35.333 41.333 74 94.666 116 159.999c44.667 -40 99 -78.667 163 -116zM266 251.001c-10 26.667 -28.668 54.667 -56.001 84l-37 40l-10 10c20 51.333 52.333 107 97 167
l7 11c64.667 -93.333 97 -190 97 -290c0 -41.333 -10 -84.333 -30 -129s-45.333 -81.334 -76 -110.001c-22 -14.667 -61.333 -24 -118 -28c-12.667 -1.33301 -30 -3 -52 -5c-40 -3.33301 -69.667 -3.66602 -89 -0.999023c-39.333 0 -59 10.333 -59 31v158
c0 21.333 13.667 32 41 32h163c58.667 0 99.334 10 122.001 30z" />
    <glyph glyph-name="sf277.023" unicode="&#x646;" horiz-adv-x="486" arabic-form="medial" 
d="M337 733c-44 -50 -81.999 -104.001 -113.999 -162.001c-54.667 50.667 -109.334 89.667 -164.001 117c34.667 42 73 95.333 115 160c44.667 -39.333 99 -77.666 163 -114.999zM-58.999 30.999l-0.000976562 158.001c0 21.333 14 32 42 32h102
c60.667 0 118 35.667 172 107c14 18.667 24.333 28 31 28c8 0 13.667 -7 17 -21l13 -49c6.66699 -25.333 15.167 -42.5 25.5 -51.5s26.833 -13.5 49.5 -13.5h78c29.333 0 44 -10 44 -30v-163c0 -7.33301 -7.16699 -13.833 -21.5 -19.5s-30.166 -8.5 -47.499 -8.5
c-86 0 -143.667 31.667 -173 95c-8.66699 20 -16.334 30 -23.001 30c-8 0 -17.667 -8 -29 -24c-28.667 -38.667 -57.667 -65.334 -87 -80.001s-68.666 -22 -117.999 -22c-5.33301 0 -10.333 0.333008 -15 1c-40 2.66699 -60 13 -60 31z" />
    <glyph glyph-name="sf277.020" unicode="&#x646;" horiz-adv-x="1136" arabic-form="final" 
d="M976 12c0 -182 -51.332 -327.003 -153.999 -435.003s-240.334 -162 -413.001 -162c-104 0 -188 29.333 -252 88s-96 135.667 -96 231c0 60.667 16.333 130.834 49 210.501s61.667 119.5 87 119.5c10.667 0 16 -6.33301 16 -19c0 -5.33301 -4 -16.666 -12 -33.999
c-35.333 -78 -53 -140.667 -53 -188c0 -57.333 27.167 -102.5 81.5 -135.5s128.5 -49.5 222.5 -49.5c146 0 265 34 357 102c56 42 84 106.667 84 194c0 33.333 -5.33301 76 -16 128c-48 38.667 -82.333 83.667 -103 135c24 52 60.333 105 109 159
c32 -59.333 62.667 -96.666 92 -111.999s83 -23 161 -23c22 0 33 -10 33 -30v-163c0 -18.667 -24.333 -28 -73 -28c-36 0 -76 4 -120 12zM646.001 558.997c-44.667 -50 -82.667 -103.998 -114 -161.998c-55.333 51.333 -110.333 90.666 -165 117.999
c35.333 41.333 74 94.666 116 159.999c44 -40 98.333 -78.667 163 -116z" />
    <glyph glyph-name="afii57470.init" unicode="&#x647;" horiz-adv-x="892" arabic-form="initial" 
d="M573 460c-6 -3.33301 -9.66699 -9.00098 -11 -17.001l-2 -18c-6 -43.333 -19.333 -80.666 -40 -111.999c102 -41.333 172.667 -62 212 -62c12.667 0 19 4.66699 19 14c0 18.667 -25.167 55.5 -75.5 110.5s-84.5 83.167 -102.5 84.5zM390 327.999
c22.667 0 44.334 7.16797 65.001 21.501s31 29.166 31 44.499c0 23.333 -8.33301 47.666 -25 72.999s-32.667 38 -48 38c-24.667 0 -54.334 -13.667 -89.001 -41s-52 -50.666 -52 -69.999c0 -14 13.5 -28.5 40.5 -43.5s52.833 -22.5 77.5 -22.5zM227 250
c-20.667 29.333 -30.998 57.667 -30.998 85c0 62 40 136.333 120 223l16 18l-47 18c6 56.667 17.667 101.5 35 134.5s37.666 49.5 60.999 49.5c28.667 0 69.5 -17.5 122.5 -52.5s104.5 -77.833 154.5 -128.5c112 -116 168 -220.667 168 -314
c0 -137.333 -35.333 -206 -106 -206c-22 0 -73 15.667 -153 47c-68.667 26.667 -120.667 40 -156 40c-46.667 0 -96 -26 -148 -78c-58 -57.333 -145 -86 -261 -86c-41.333 -0 -62 10.333 -62 31v158c0 21.333 17.667 32 53 32h35c97.333 0 163.666 9.66699 198.999 29z" />
    <glyph glyph-name="afii57470.medi" unicode="&#x647;" horiz-adv-x="800" arabic-form="medial" 
d="M574 -206c0 14.667 -9.00098 31.832 -27.001 51.499s-40.333 36.834 -67 51.501c-33.333 18 -66.166 32.833 -98.499 44.5s-56.833 17.5 -73.5 17.5c-17.333 0 -26 -7.33301 -26 -22c0 -10 4.5 -26.5 13.5 -49.5s18.5 -42.833 28.5 -59.5
c44.667 -73.333 91 -110 139 -110c28 0 53.5 7.83301 76.5 23.5s34.5 33.167 34.5 52.5zM316.999 217.998c44.667 14.667 94 36.666 148 65.999c29.333 16 49.833 29.833 61.5 41.5s17.5 24.5 17.5 38.5c0 18 -8 34.667 -24 50s-33 23 -51 23
c-37.333 0 -75.666 -30.667 -114.999 -92c-12.667 -20 -24.334 -42.167 -35.001 -66.5s-16 -41.166 -16 -50.499c0 -8.66699 2.66699 -13 8 -13c1.33301 0 3.33301 1 6 3zM233.999 186.997c14 82 48.667 163.667 104 245c35.333 52.667 72.833 97.667 112.5 135
s69.834 56 90.501 56c36.667 0 55 -59.667 55 -179c0 -42 -5.33301 -79.667 -16 -113s-27.667 -66 -51 -98c-14.667 -20 -33.667 -40.833 -57 -62.5s-45 -38.834 -65 -51.501l12 -16c60.667 20.667 111.667 35 153 43s88 12 140 12c22 0 38.667 -0.333008 50 -1l28 -1l20 -1
c26.667 0 40 -8.66699 40 -26v-94c0 -10.667 -5.16699 -19.167 -15.5 -25.5s-24.166 -9.5 -41.499 -9.5l-59 1c-43.333 0 -77.666 -1.16699 -102.999 -3.5s-49 -6.5 -71 -12.5c38 -61.333 57 -120.333 57 -177c0 -60 -19 -116.333 -57 -169
c-16 -22 -34.667 -39.167 -56 -51.5s-43 -18.5 -65 -18.5c-64.667 0 -118.334 43 -161.001 129c-34.667 71.333 -52 148.666 -52 231.999c0 10 1 23.333 3 40l-55 -5l-21 56c-22.667 -9.33301 -41 -15.166 -55 -17.499s-37 -3.5 -69 -3.5
c-22.667 0 -36.834 0.333008 -42.501 1s-11.834 2.33398 -18.501 5.00098c-18 8.66699 -27 19 -27 31l1 92c0 7.33301 4.16699 13.5 12.5 18.5s18.5 7.5 30.5 7.5l16 1l33 1l34 1c21.333 0 48.833 3 82.5 9s61.5 12.667 83.5 20z" />
    <glyph glyph-name="afii57470.fina" unicode="&#x647;" horiz-adv-x="702" arabic-form="final" 
d="M428 240c-6.66699 -6 -11.6699 -10.6699 -15.0029 -14.0029l-28 -28l-33 -32c-22 -21.333 -43.667 -32 -65 -32c-24 0 -58.667 4.66699 -104 14s-73.666 17.666 -84.999 24.999c-20 12 -30 31.667 -30 59c0 60.667 31.833 126.334 95.5 197.001
s134.834 119.334 213.501 146.001l-14 83l97 129l70 -452l4 -27c5.33301 -37.333 16.333 -61.166 33 -71.499s51.334 -15.5 104.001 -15.5c29.333 0 44 -10 44 -30v-163c0 -18.667 -25.333 -28 -76 -28c-54 0 -95 11 -123 33s-49 59 -63 111l-16 61
c-1.33301 6.66699 -4.33301 18.334 -9 35.001zM215.997 353.997c0.666992 -4 4.66699 -6.66699 12 -8l63 -12c31.333 -6 60.333 -9 87 -9c13.333 0 22.166 4.16699 26.499 12.5s6.5 24.833 6.5 49.5c0 55.333 -8.66699 83 -26 83c-15.333 0 -37.333 -7.83301 -66 -23.5
s-51 -32.167 -67 -49.5l-29 -30c-5.33301 -6 -7.66602 -10.333 -6.99902 -13z" />
    <glyph glyph-name="sf277.016" unicode="&#x648;" horiz-adv-x="874" arabic-form="final" 
d="M667 -2c-33.333 -2 -57.6641 -3 -72.9971 -3c-134.667 0 -202 46.667 -202 140c0 58.667 32.667 132.834 98 222.501s119.333 134.5 162 134.5c29.333 0 56 -24.5 80 -73.5s41.333 -114.833 52 -197.5h92c29.333 0 44 -10 44 -30v-163c0 -6 -6.5 -12.167 -19.5 -18.5
s-26.167 -9.5 -39.5 -9.5h-98c-30.667 -128 -81.334 -238.333 -152.001 -331c-44.667 -58.667 -97.5 -106.334 -158.5 -143.001s-117.833 -55 -170.5 -55c-78.667 0 -157.334 49.333 -236.001 148c-30.667 38.667 -46 68.667 -46 90c0 12.667 4.66699 19 14 19h2
c5.33301 -0.666992 10.666 -2 15.999 -4l44 -16c42 -15.333 93.333 -23 154 -23c114 0 210.667 28.5 290 85.5s128.333 132.833 147 227.5zM692.002 227c-4.66699 30 -16.333 58.5 -35 85.5s-36 40.5 -52 40.5c-14 0 -28.833 -12.167 -44.5 -36.5s-23.5 -47.5 -23.5 -69.5
c0 -4 0.666992 -10.333 2 -19c24.667 -10 51 -15 79 -15s52.667 4.66699 74 14z" />
    <glyph glyph-name="sf300.006" unicode="&#x649;" horiz-adv-x="478" 
d="M164 -431c-51.333 44 -100.333 80.667 -147 110c32 38.667 66.333 87.667 103 147c30.667 -34 64.334 -62.333 101.001 -85c28 35.333 52.333 70.666 73 105.999c50 -46.667 96.333 -82.667 139 -108c-30.667 -40 -61 -90.667 -91 -152
c-39.333 36.667 -76 65.334 -110 86.001c-22.667 -28 -45.334 -62.667 -68.001 -104zM266 251c-10 26.667 -28.668 54.667 -56.001 84l-37 40l-10 10c20 51.333 52.333 107 97 167l7 11c64.667 -93.333 97 -190 97 -290c0 -41.333 -10 -84.333 -30 -129
s-45.333 -81.334 -76 -110.001c-22 -14.667 -61.333 -24 -118 -28c-12.667 -1.33301 -30 -3 -52 -5c-40 -3.33301 -69.667 -3.66602 -89 -0.999023c-39.333 -0 -59 10.333 -59 31v158c0 21.333 13.667 32 41 32h163c58.667 0 99.334 10 122.001 30z" />
    <glyph glyph-name="sf277.024" unicode="&#x649;" horiz-adv-x="508" 
d="M-59 31l-0.000976562 158.001c0 21.333 14 32 42 32h102c60.667 0 118 35.667 172 107c14 18.667 24.333 28 31 28c8 0 13.667 -7 17 -21l13 -49c6.66699 -25.333 15.167 -42.5 25.5 -51.5s26.833 -13.5 49.5 -13.5h78c29.333 0 44 -10 44 -30v-163
c0 -7.33301 -7.16699 -13.833 -21.5 -19.5s-30.166 -8.5 -47.499 -8.5c-86 0 -143.667 31.667 -173 95c-8.66699 20 -16.334 30 -23.001 30c-8 0 -17.667 -8 -29 -24c-28.667 -38.667 -57.667 -65.334 -87 -80.001s-68.666 -22 -117.999 -22
c-5.33301 0 -10.333 0.333008 -15 1c-40 2.66699 -60 13 -60 31zM158.999 -428.999c-51.333 44.667 -100.334 81.333 -147.001 110c32 38.667 66.333 87.667 103 147c30 -34 63.667 -62.333 101 -85c28 35.333 52 70.666 72 105.999
c50.667 -46.667 97.334 -82.667 140.001 -108c-31.333 -40 -62 -90.667 -92 -152c-39.333 36.667 -75.666 65.334 -108.999 86.001c-22.667 -28 -45.334 -62.667 -68.001 -104z" />
    <glyph glyph-name="sf297.001" unicode="&#x649;" horiz-adv-x="1126" arabic-form="final" 
d="M1030 -278l-0.00292969 5.00293c-2.66699 4.66699 -52.334 18 -149.001 40c-95.333 22 -145 41.667 -149 59c8.66699 75.333 43.667 155.333 105 240c74.667 103.333 157.334 155 248.001 155h66c30 0 45 -10 45 -30v-158c0 -9.33301 -6.33301 -17 -19 -23l-15 -7
c-4 -2 -12.333 -3 -25 -3c-4 -0.666992 -20 -1 -48 -1c-53.333 0 -99.833 -5.16699 -139.5 -15.5s-59.5 -22.5 -59.5 -36.5c0 -12.667 20 -24.334 60 -35.001l79 -21c6 -2 28.667 -7.66699 68 -17c59.333 -14.667 89 -35.334 89 -62.001
c0 -37.333 -15.5 -79.833 -46.5 -127.5s-68.833 -87.834 -113.5 -120.501c-71.333 -50.667 -159.666 -93.167 -264.999 -127.5s-201 -51.5 -287 -51.5c-133.333 0 -235.5 24.5 -306.5 73.5s-106.5 119.5 -106.5 211.5c0 121.333 42.333 241.666 127 360.999
c16.667 23.333 29.334 35 38.001 35c2 0 4.66699 -1 8 -3l3 -2c3.33301 -3.33301 5 -7.33301 5 -12c0 -0.666992 -0.666992 -2.66699 -2 -6l-3 -8c-1.33301 -4.66699 -3.66602 -10 -6.99902 -16l-11 -20l-14 -27c-36.667 -68.667 -55 -126.667 -55 -174
c0 -133.333 120 -200 360 -200c96.667 0 189.167 7.83301 277.5 23.5s150.5 35.5 186.5 59.5l46 30c4.66699 2.66699 7.66699 5.33398 9 8.00098z" />
    <glyph glyph-name="sf271.002.fina" unicode="&#x64a;" horiz-adv-x="1117" arabic-form="final" 
d="M1030 -278l-0.00292969 5.00293c-2.66699 4.66699 -52.334 18 -149.001 40c-95.333 22 -145 41.667 -149 59c8.66699 75.333 43.667 155.333 105 240c74.667 103.333 157.334 155 248.001 155h66c30 0 45 -10 45 -30v-158c0 -9.33301 -6.33301 -17 -19 -23l-15 -7
c-4 -2 -12.333 -3 -25 -3c-4 -0.666992 -20 -1 -48 -1c-53.333 0 -99.833 -5.16699 -139.5 -15.5s-59.5 -22.5 -59.5 -36.5c0 -12.667 20 -24.334 60 -35.001l79 -21c6 -2 28.667 -7.66699 68 -17c59.333 -14.667 89 -35.334 89 -62.001
c0 -37.333 -15.5 -79.833 -46.5 -127.5s-68.833 -87.834 -113.5 -120.501c-71.333 -50.667 -159.666 -93.167 -264.999 -127.5s-201 -51.5 -287 -51.5c-133.333 0 -235.5 24.5 -306.5 73.5s-106.5 119.5 -106.5 211.5c0 121.333 42.333 241.666 127 360.999
c16.667 23.333 29.334 35 38.001 35c2 0 4.66699 -1 8 -3l3 -2c3.33301 -3.33301 5 -7.33301 5 -12c0 -0.666992 -0.666992 -2.66699 -2 -6l-3 -8c-1.33301 -4.66699 -3.66602 -10 -6.99902 -16l-11 -20l-14 -27c-36.667 -68.667 -55 -126.667 -55 -174
c0 -133.333 120 -200 360 -200c96.667 0 189.167 7.83301 277.5 23.5s150.5 35.5 186.5 59.5l46 30c4.66699 2.66699 7.66699 5.33398 9 8.00098zM530.997 -999.997c-51.333 44.667 -100.333 81.332 -147 109.999c32 39.333 66.333 88.666 103 147.999
c30 -34 63.667 -62.333 101 -85c28 34.667 52.333 70 73 106c50 -47.333 96.333 -83.666 139 -108.999c-31.333 -39.333 -62 -90 -92 -152c-39.333 36.667 -75.666 65.334 -108.999 86.001c-22.667 -28 -45.334 -62.667 -68.001 -104z" />
    <glyph glyph-name="sf300.004" unicode="&#x679;" horiz-adv-x="523" arabic-form="initial" 
d="M265 251c-10 26.667 -28.6689 54.668 -56.002 84.001l-37 40c-1.33301 1.33301 -4.33301 4.66602 -9 9.99902c19.333 51.333 51.333 107 96 167l8 11c64 -93.333 96 -190 96 -290c0 -41.333 -9.83301 -84.333 -29.5 -129s-45.167 -81.334 -76.5 -110.001
c-21.333 -14.667 -60.666 -24 -117.999 -28c-12.667 -1.33301 -30 -3 -52 -5c-40 -3.33301 -69.667 -3.66602 -89 -0.999023c-38.667 -0 -58 10.333 -58 31v158c0 21.333 13.667 32 41 32h162c58.667 0 99.334 10 122.001 30zM216.998 880.001l10.001 8
c81.333 66 142.333 99 183 99c26 0 48.167 -9.66699 66.5 -29s27.5 -42.666 27.5 -69.999c0 -54.667 -21.333 -97 -64 -127c-38.667 -28 -87.834 -49.5 -147.501 -64.5s-123.834 -22.5 -192.501 -22.5c-40.667 0 -74.667 14.667 -102 44c-18.667 19.333 -28 35.333 -28 48
c0 7.33301 6.33301 11 19 11c0.666992 0 5.33398 0.666992 14.001 2h42c34.667 0 61.667 4.66699 81 14c16 7.33301 26.833 18.333 32.5 33s8.5 39 8.5 73v10c0 83.333 -15.667 187.333 -47 312c25.333 14 45.333 37 60 69c12 -29.333 29.667 -56.333 53 -81
c-22.667 -19.333 -34 -42.333 -34 -69c0 -6.66699 1 -14.334 3 -23.001l8 -42c6.66699 -34.667 10 -75.334 10 -122.001c0 -4 -0.666992 -20 -2 -48c-0.666992 -13.333 -1 -21.666 -1 -24.999zM448.999 852.001c-23.333 26 -50.999 39 -82.999 39c-50 0 -101 -27 -153 -81
c-16 -16 -24 -26.333 -24 -31c0 -4 2.66699 -6 8 -6c38 0 82.167 8 132.5 24s90.166 34.333 119.499 55z" />
    <glyph glyph-name="sf277.043" unicode="&#x679;" horiz-adv-x="486" arabic-form="medial" 
d="M-59 31l-0.00585938 158.001c0 21.333 13.667 32 41 32h104c60.667 0 117.667 35.667 171 107c14.667 18.667 25.334 28 32.001 28c7.33301 0 13 -7 17 -21l12 -49c6.66699 -25.333 15.334 -42.5 26.001 -51.5s27.334 -13.5 50.001 -13.5h77c29.333 0 44 -10 44 -30v-163
c0 -7.33301 -7.16699 -13.833 -21.5 -19.5s-30.166 -8.5 -47.499 -8.5c-86 0 -143.333 31.667 -172 95c-8.66699 20 -16.667 30 -24 30s-16.666 -8 -27.999 -24c-28.667 -38.667 -57.667 -65.334 -87 -80.001s-69.333 -22 -120 -22c-5.33301 0 -10.666 0.333008 -15.999 1
c-38.667 2.66699 -58 13 -58 31zM246.994 806.001l10.001 8c81.333 66 142.333 99 183 99c26 0 48.167 -9.66699 66.5 -29s27.5 -42.666 27.5 -69.999c0 -54.667 -21.333 -97 -64 -127c-38.667 -28 -87.834 -49.5 -147.501 -64.5s-123.834 -22.5 -192.501 -22.5
c-40.667 0 -74.667 14.667 -102 44c-18.667 19.333 -28 35.333 -28 48c0 7.33301 6.33301 11 19 11c0.666992 0 5.33398 0.666992 14.001 2h42c34.667 0 61.667 4.66699 81 14c16 7.33301 26.833 18.333 32.5 33s8.5 39 8.5 73v10c0 83.333 -15.667 187.333 -47 312
c25.333 14 45.333 37 60 69c12 -29.333 29.667 -56.333 53 -81c-22.667 -19.333 -34 -42.333 -34 -69c0 -6.66699 1 -14.334 3 -23.001l8 -42c6.66699 -34.667 10 -75.334 10 -122.001c0 -4 -0.666992 -20 -2 -48c-0.666992 -13.333 -1 -21.666 -1 -24.999zM478.995 778.001
c-23.333 26 -50.999 39 -82.999 39c-50 0 -101 -27 -153 -81c-16 -16 -24 -26.333 -24 -31c0 -4 2.66699 -6 8 -6c38 0 82.167 8 132.5 24s90.166 34.333 119.499 55z" />
    <glyph glyph-name="sf277.028" unicode="&#x679;" horiz-adv-x="1651" arabic-form="final" 
d="M1385 120c-106.667 -65.333 -199.997 -108.331 -279.997 -128.998c-136 -34 -276.667 -51 -422 -51c-199.333 0 -351.333 27.5 -456 82.5s-157 134.833 -157 239.5c0 89.333 30.667 174.333 92 255c17.333 23.333 29.666 35 36.999 35c8.66699 0 13 -4.33301 13 -13
c0 -3.33301 -2 -9 -6 -17l-6 -12l-7 -16c-16 -33.333 -24 -65.666 -24 -96.999c0 -160.667 204.333 -241 613 -241c236 0 408.667 24.333 518 73c24.667 11.333 43.334 37.333 56.001 78c7.33301 24 17 36 29 36c11.333 0 20.666 -11.333 27.999 -34
c12.667 -40 30.667 -64.667 54 -74s79.333 -14 168 -14h11c21.333 0 32 -10 32 -30v-163c0 -6 -6.83301 -12.333 -20.5 -19s-26.167 -9.66699 -37.5 -9c-18.667 -2.66699 -45.834 -1.33398 -81.501 3.99902s-61.834 11.666 -78.501 18.999
c-40.667 19.333 -65.667 51.666 -75 96.999zM777.003 806.002l10.001 8c81.333 66 142.333 99 183 99c26 0 48.167 -9.66699 66.5 -29s27.5 -42.666 27.5 -69.999c0 -54.667 -21.333 -97 -64 -127c-38.667 -28 -87.834 -49.5 -147.501 -64.5s-123.834 -22.5 -192.501 -22.5
c-40.667 0 -74.667 14.667 -102 44c-18.667 19.333 -28 35.333 -28 48c0 7.33301 6.33301 11 19 11c0.666992 0 5.33398 0.666992 14.001 2h42c34.667 0 61.667 4.66699 81 14c16 7.33301 26.833 18.333 32.5 33s8.5 39 8.5 73v10c0 83.333 -15.667 187.333 -47 312
c25.333 14 45.333 37 60 69c12 -29.333 29.667 -56.333 53 -81c-22.667 -19.333 -34 -42.333 -34 -69c0 -6.66699 1 -14.334 3 -23.001l8 -42c6.66699 -34.667 10 -75.334 10 -122.001c0 -4 -0.666992 -20 -2 -48c-0.666992 -13.333 -1 -21.666 -1 -24.999zM1009 778.002
c-23.333 26 -50.999 39 -82.999 39c-50 0 -101 -27 -153 -81c-16 -16 -24 -26.333 -24 -31c0 -4 2.66699 -6 8 -6c38 0 82.167 8 132.5 24s90.166 34.333 119.499 55z" />
    <glyph glyph-name="sf300.002" unicode="&#x67e;" horiz-adv-x="400" arabic-form="initial" 
d="M265 251c-10 26.667 -28.6689 54.668 -56.002 84.001l-37 40c-1.33301 1.33301 -4.33301 4.66602 -9 9.99902c19.333 51.333 51.333 107 96 167l8 11c64 -93.333 96 -190 96 -290c0 -41.333 -9.83301 -84.333 -29.5 -129s-45.167 -81.334 -76.5 -110.001
c-21.333 -14.667 -60.666 -24 -117.999 -28c-12.667 -1.33301 -30 -3 -52 -5c-40 -3.33301 -69.667 -3.66602 -89 -0.999023c-38.667 -0 -58 10.333 -58 31v158c0 21.333 13.667 32 41 32h162c58.667 0 99.334 10 122.001 30zM232.998 -199.999
c51.333 -44.667 100.334 -81.3311 147.001 -109.998c-32 -39.333 -66.333 -88.333 -103 -147c-30 34 -63.667 62.333 -101 85c-28 -35.333 -52 -71 -72 -107c-50.667 47.333 -97.334 83.666 -140.001 108.999c31.333 40 62 90.667 92 152
c39.333 -36.667 75.666 -65.334 108.999 -86.001c22.667 28 45.334 62.667 68.001 104zM187.999 -445.996l37 -29c34.667 -27.333 69 -51 103 -71c-31.333 -44.667 -61.333 -99.667 -90 -165c-48 48 -94.667 85.667 -140 113c34.667 53.333 64.667 104 90 152z" />
    <glyph glyph-name="sf277.021" unicode="&#x67e;" horiz-adv-x="486" arabic-form="medial" 
d="M-59 31v158.001c0 21.333 13.667 32 41 32h103c60.667 0 118 35.667 172 107c14 18.667 24.333 28 31 28c8 0 13.667 -7 17 -21l13 -49c6.66699 -25.333 15.167 -42.5 25.5 -51.5s27.166 -13.5 50.499 -13.5h77c28.667 0 43 -10 43 -30v-163
c0 -7.33301 -7 -13.833 -21 -19.5s-29.667 -8.5 -47 -8.5c-86 0 -143.333 31.667 -172 95c-8.66699 20 -16.667 30 -24 30s-17 -8 -29 -24c-28 -38.667 -56.833 -65.334 -86.5 -80.001s-69.5 -22 -119.5 -22c-5.33301 0 -10.666 0.333008 -15.999 1
c-38.667 2.66699 -58 13 -58 31zM271 -143.999c51.333 -44.667 100.334 -81.3311 147.001 -109.998c-32 -39.333 -66.333 -88.333 -103 -147c-30 34 -63.667 62.333 -101 85c-28 -35.333 -52 -71 -72 -107c-50.667 47.333 -97.334 83.666 -140.001 108.999
c31.333 40 62 90.667 92 152c39.333 -36.667 75.666 -65.334 108.999 -86.001c22.667 28 45.334 62.667 68.001 104zM226.001 -389.996l37 -29c34.667 -27.333 69 -51 103 -71c-31.333 -44.667 -61.333 -99.667 -90 -165c-48 48 -94.667 85.667 -140 113
c34.667 53.333 64.667 104 90 152z" />
    <glyph glyph-name="sf277.026" unicode="&#x67e;" horiz-adv-x="1659" arabic-form="final" 
d="M1385 120c-106.667 -65.333 -199.999 -108.331 -279.999 -128.998c-136 -34 -276.667 -51 -422 -51c-199.333 0 -351.333 27.5 -456 82.5s-157 134.833 -157 239.5c0 89.333 30.667 174.333 92 255c17.333 23.333 29.333 35 36 35c9.33301 0 14 -4.33301 14 -13
c0 -3.33301 -2 -9 -6 -17l-6 -12l-8 -16c-15.333 -33.333 -23 -65.666 -23 -96.999c0 -160.667 204 -241 612 -241c236 0 409 24.333 519 73c24.667 11.333 43 37.333 55 78c7.33301 24 17.333 36 30 36c11.333 0 20.666 -11.333 27.999 -34
c12.667 -40 30.667 -64.667 54 -74s79 -14 167 -14h11c22 0 33 -10 33 -30v-163c0 -6 -6.83301 -12.333 -20.5 -19s-26.167 -9.66699 -37.5 -9c-18.667 -2.66699 -46 -1.33398 -82 3.99902s-62.333 11.666 -79 18.999c-40 19.333 -64.667 51.666 -74 96.999z
M839.001 -203.998c51.333 -44.667 100.334 -81.3311 147.001 -109.998c-32 -39.333 -66.333 -88.333 -103 -147c-30 34 -63.667 62.333 -101 85c-28 -35.333 -52 -71 -72 -107c-50.667 47.333 -97.334 83.666 -140.001 108.999c31.333 40 62 90.667 92 152
c39.333 -36.667 75.666 -65.334 108.999 -86.001c22.667 28 45.334 62.667 68.001 104zM794.002 -449.995l37 -29c34.667 -27.333 69 -51 103 -71c-31.333 -44.667 -61.333 -99.667 -90 -165c-48 48 -94.667 85.667 -140 113c34.667 53.333 64.667 104 90 152z" />
    <glyph glyph-name="sf304.002" unicode="&#x686;" arabic-form="initial" 
d="M556 353c-94.667 55.333 -190.335 83 -287.002 83c-48.667 0 -91.667 -6.66699 -129 -20l-32 -11c-6 -2 -11 -3 -15 -3c-10.667 0 -16 5.33301 -16 16c0 14.667 16 47.334 48 98.001c50.667 80.667 111 121 181 121c34 0 75 -10.667 123 -32l74 -33
c100.667 -45.333 188 -77 262 -95s154.667 -27 242 -27l113 -1l-70 -192c-44 3.33301 -79.333 5 -106 5c-98.667 0 -199.167 -12.5 -301.5 -37.5s-191.166 -58.5 -266.499 -100.5l-72 -40c-58 -32.667 -108.167 -54.834 -150.5 -66.501s-93.166 -17.5 -152.499 -17.5
c-40.667 -0 -61 10.333 -61 31v158c0 21.333 13.667 32 41 32h116c52.667 2.66699 111.667 15.334 177 38.001l90 31l90 32c36 13.333 70 23.666 102 30.999zM652.999 -89c51.333 -44.667 100.334 -81.3311 147.001 -109.998c-32 -39.333 -66.333 -88.333 -103 -147
c-30 34 -63.667 62.333 -101 85c-28 -35.333 -52 -71 -72 -107c-50.667 47.333 -97.334 83.666 -140.001 108.999c31.333 40 62 90.667 92 152c39.333 -36.667 75.666 -65.334 108.999 -86.001c22.667 28 45.334 62.667 68.001 104zM608 -334.997l37 -29
c34.667 -27.333 69 -51 103 -71c-31.333 -44.667 -61.333 -99.667 -90 -165c-48 48 -94.667 85.667 -140 113c34.667 53.333 64.667 104 90 152z" />
    <glyph glyph-name="sf323.001" unicode="&#x686;" horiz-adv-x="1247" arabic-form="medial" 
d="M95 221c52.667 2.66699 111.336 15.333 176.003 38l90 30l87 32c28 10 62.667 21.667 104 35c-106 53.333 -201 80 -285 80c-48.667 0 -91.667 -6.66699 -129 -20l-32 -11c-6 -2 -11 -3 -15 -3c-10.667 0 -16 5.33301 -16 16c0 14.667 16 47.334 48 98.001
c50.667 80.667 111 121 181 121c39.333 0 88.666 -12.333 147.999 -37l100 -42c137.333 -58 281.666 -87 432.999 -87c41.333 0 90.333 2 147 6l31 3l-68 -202h-176c0 -38 19.333 -57 58 -57h291c28.667 0 43 -10 43 -30v-163c0 -6 -6.5 -12.167 -19.5 -18.5
s-25.833 -9.5 -38.5 -9.5h-285c-54 0 -97.333 13.167 -130 39.5s-49 61.166 -49 104.499c0 40.667 11.333 79 34 115l8 14l-23 -3c-148.667 -18 -293.334 -66.667 -434.001 -146l-72 -40c-57.333 -32 -107.333 -54 -150 -66s-93 -18 -151 -18c-40 -0 -60 10.333 -60 31v158
c0 21.333 13.667 32 41 32h113zM623.002 -74.001c51.333 -44.667 100.334 -81.3311 147.001 -109.998c-32 -39.333 -66.333 -88.333 -103 -147c-30 34 -63.667 62.333 -101 85c-28 -35.333 -52 -71 -72 -107c-50.667 47.333 -97.334 83.666 -140.001 108.999
c31.333 40 62 90.667 92 152c39.333 -36.667 75.666 -65.334 108.999 -86.001c22.667 28 45.334 62.667 68.001 104zM578.003 -319.998l37 -29c34.667 -27.333 69 -51 103 -71c-31.333 -44.667 -61.333 -99.667 -90 -165c-48 48 -94.667 85.667 -140 113
c34.667 53.333 64.667 104 90 152z" />
    <glyph glyph-name="sf277.031" unicode="&#x686;" horiz-adv-x="1255" arabic-form="final" 
d="M517 321c-68 22 -135.33 32.9961 -201.997 32.9961c-36.667 0 -65.5 -4.83301 -86.5 -14.5s-42.5 -27.5 -64.5 -53.5c-10.667 -12.667 -20.334 -19 -29.001 -19s-13 5.66699 -13 17c0 16 9.66699 45.5 29 88.5s37.666 76.5 54.999 100.5
c50.667 68.667 121.667 103 213 103c31.333 0 71.333 -5 120 -15l78 -17c79.333 -17.333 187.666 -26 324.999 -26l29 1l65 2l46 1c8 0 19.667 1.33301 35 4l-88 -200c-10 0 -28 -1.66699 -54 -5l-44 -6c-24.667 -3.33301 -52.667 -7.66602 -84 -12.999
c3.33301 -54 27 -81 71 -81h349c29.333 0 44 -10 44 -30v-163c0 -6 -6.5 -12.167 -19.5 -18.5s-26.167 -9.5 -39.5 -9.5h-314c-58 0 -105.833 13 -143.5 39s-56.5 59.333 -56.5 100c0 41.333 13.333 91.666 40 150.999c-162.667 -37.333 -300 -108.666 -412 -213.999
s-168 -215.666 -168 -330.999c0 -126.667 57.5 -227.167 172.5 -301.5s270.167 -111.5 465.5 -111.5c109.333 0 228 4.66699 356 14l148 12c30 2 52.333 3 67 3c18.667 0 28 -3.33301 28 -10c0 -9.33301 -25.667 -30.166 -77 -62.499s-104.333 -61.166 -159 -86.499
c-154 -70.667 -292.333 -106 -415 -106c-472 0 -708 177 -708 531c0 270 132.333 491.333 397 664zM771.003 -89.0039c51.333 -44.667 100.334 -81.3311 147.001 -109.998c-32 -39.333 -66.333 -88.333 -103 -147c-30 34 -63.667 62.333 -101 85
c-28 -35.333 -52 -71 -72 -107c-50.667 47.333 -97.334 83.666 -140.001 108.999c31.333 40 62 90.667 92 152c39.333 -36.667 75.666 -65.334 108.999 -86.001c22.667 28 45.334 62.667 68.001 104zM726.004 -335.001l37 -29c34.667 -27.333 69 -51 103 -71
c-31.333 -44.667 -61.333 -99.667 -90 -165c-48 48 -94.667 85.667 -140 113c34.667 53.333 64.667 104 90 152z" />
    <glyph glyph-name="sf277.038" unicode="&#x688;" horiz-adv-x="919" arabic-form="final" 
d="M510 810l123.997 143l65 -482c22.667 -166.667 69.334 -250 140.001 -250h71c29.333 0 44 -10 44 -30v-163c0 -19.333 -26 -29 -78 -29c-64.667 0 -115.167 13.833 -151.5 41.5s-61.5 71.167 -75.5 130.5c-6.66699 29.333 -15.667 44 -27 44
c-9.33301 0 -20.666 -11.667 -33.999 -35c-66 -111.333 -169.333 -167 -310 -167c-56.667 0 -107.5 6.83301 -152.5 20.5s-69.167 29.5 -72.5 47.5c2 52 11.5 104.833 28.5 158.5s32.167 80.5 45.5 80.5c4 0 7.33301 -7 10 -21c5.33301 -27.333 23 -48.333 53 -63
s69.667 -22 119 -22c100.667 0 169.834 12.667 207.501 38s56.5 71.333 56.5 138c0 22 -3.33301 59 -10 111l-10 75c-4.66699 36 -19 114 -43 234zM512.997 1206l10.001 8c81.333 66 142.333 99 183 99c26 0 48.167 -9.66699 66.5 -29s27.5 -42.666 27.5 -69.999
c0 -54.667 -21.333 -97 -64 -127c-38.667 -28 -87.834 -49.5 -147.501 -64.5s-123.834 -22.5 -192.501 -22.5c-40.667 0 -74.667 14.667 -102 44c-18.667 19.333 -28 35.333 -28 48c0 7.33301 6.33301 11 19 11c0.666992 0 5.33398 0.666992 14.001 2h42
c34.667 0 61.667 4.66699 81 14c16 7.33301 26.833 18.333 32.5 33s8.5 39 8.5 73v10c0 83.333 -15.667 187.333 -47 312c25.333 14 45.333 37 60 69c12 -29.333 29.667 -56.333 53 -81c-22.667 -19.333 -34 -42.333 -34 -69c0 -6.66699 1 -14.334 3 -23.001l8 -42
c6.66699 -34.667 10 -75.334 10 -122.001c0 -4 -0.666992 -20 -2 -48c-0.666992 -13.333 -1 -21.666 -1 -24.999zM744.998 1178c-23.333 26 -50.999 39 -82.999 39c-50 0 -101 -27 -153 -81c-16 -16 -24 -26.333 -24 -31c0 -4 2.66699 -6 8 -6c38 0 82.167 8 132.5 24
s90.166 34.333 119.499 55z" />
    <glyph glyph-name="sf277.040" unicode="&#x691;" horiz-adv-x="800" arabic-form="final" 
d="M457 730l10.001 8c81.333 66 142.333 99 183 99c26 0 48.167 -9.66699 66.5 -29s27.5 -42.666 27.5 -69.999c0 -54.667 -21.333 -97 -64 -127c-38.667 -28 -87.834 -49.5 -147.501 -64.5s-123.834 -22.5 -192.501 -22.5c-40.667 0 -74.667 14.667 -102 44
c-18.667 19.333 -28 35.333 -28 48c0 7.33301 6.33301 11 19 11c0.666992 0 5.33398 0.666992 14.001 2h42c34.667 0 61.667 4.66699 81 14c16 7.33301 26.833 18.333 32.5 33s8.5 39 8.5 73v10c0 83.333 -15.667 187.333 -47 312c25.333 14 45.333 37 60 69
c12 -29.333 29.667 -56.333 53 -81c-22.667 -19.333 -34 -42.333 -34 -69c0 -6.66699 1 -14.334 3 -23.001l8 -42c6.66699 -34.667 10 -75.334 10 -122.001c0 -4 -0.666992 -20 -2 -48c-0.666992 -13.333 -1 -21.666 -1 -24.999zM689.001 702
c-23.333 26 -50.999 39 -82.999 39c-50 0 -101 -27 -153 -81c-16 -16 -24 -26.333 -24 -31c0 -4 2.66699 -6 8 -6c38 0 82.167 8 132.5 24s90.166 34.333 119.499 55zM584.002 12c-16 37.333 -55.334 82.001 -118.001 134.001l100 177
c20.667 -38.667 46.667 -65.334 78 -80.001s78 -22 140 -22c29.333 0 44 -10 44 -30v-163c0 -6 -6.5 -12.167 -19.5 -18.5s-26.167 -9.5 -39.5 -9.5h-59c-21.333 0 -35.333 -13 -42 -39c-41.333 -166 -89.666 -282.667 -144.999 -350
c-83.333 -100.667 -175.333 -151 -276 -151c-34.667 0 -83 14.667 -145 44s-96 53.333 -102 72v3c0 7.33301 4.66699 11 14 11h2c1.33301 0 6 -0.666992 14 -2c10.667 -1.33301 23.334 -2 38.001 -2c51.333 0 111.166 15.667 179.499 47s127.5 70 177.5 116
c78.667 73.333 131.667 161 159 263z" />
    <glyph glyph-name="sf277.042" unicode="&#x698;" horiz-adv-x="800" arabic-form="final" 
d="M584 12c-16 37.333 -55.334 82.001 -118.001 134.001l100 177c20.667 -38.667 46.667 -65.334 78 -80.001s78 -22 140 -22c29.333 0 44 -10 44 -30v-163c0 -6 -6.5 -12.167 -19.5 -18.5s-26.167 -9.5 -39.5 -9.5h-59c-21.333 0 -35.333 -13 -42 -39
c-41.333 -166 -89.666 -282.667 -144.999 -350c-83.333 -100.667 -175.333 -151 -276 -151c-34.667 0 -83 14.667 -145 44s-96 53.333 -102 72v3c0 7.33301 4.66699 11 14 11h2c1.33301 0 6 -0.666992 14 -2c10.667 -1.33301 23.334 -2 38.001 -2
c51.333 0 111.166 15.667 179.499 47s127.5 70 177.5 116c78.667 73.333 131.667 161 159 263zM413.999 501.001c-51.333 44.667 -100.334 81.3311 -147.001 109.998c32 39.333 66.333 88.333 103 147c30 -34 63.667 -62.333 101 -85c28 35.333 52 71 72 107
c50.667 -47.333 97.334 -83.666 140.001 -108.999c-31.333 -40 -62 -90.667 -92 -152c-39.333 36.667 -75.666 65.334 -108.999 86.001c-22.667 -28 -45.334 -62.667 -68.001 -104zM458.998 746.998l-37 29c-34.667 27.333 -69 51 -103 71
c31.333 44.667 61.333 99.667 90 165c48 -48 94.667 -85.667 140 -113c-34.667 -53.333 -64.667 -104 -90 -152z" />
    <glyph glyph-name="sf302.002" unicode="&#x6af;" horiz-adv-x="897" arabic-form="initial" 
d="M-59 31c0 -4 1.83496 -7.83203 5.50195 -11.499s8.5 -7 14.5 -10s12.5 -5.33301 19.5 -7s13.5 -2.5 19.5 -2.5h229c53.333 0 102.166 5.16699 146.499 15.5s82.5 27.5 114.5 51.5s57 55.333 75 94s27 86 27 142s-11 106.833 -33 152.5s-51.333 87.334 -88 125.001
s-79 72.167 -127 103.5s-97.667 60.666 -149 87.999c13.333 10 32.666 21.5 57.999 34.5s54.333 26.833 87 41.5l106 45.5l114 45.5l110.5 41.5c35.667 13 68.167 24.167 97.5 33.5l102 217c-42 -13.333 -85.667 -28 -131 -44s-90.666 -33.333 -135.999 -52
s-90 -38.167 -134 -58.5s-85.333 -40.833 -124 -61.5s-74.167 -41.334 -106.5 -62.001s-59.833 -40.667 -82.5 -60c-15.333 -13.333 -28 -25 -38 -35s-18 -19.667 -24 -29s-10.167 -19 -12.5 -29s-3.5 -22 -3.5 -36c0 -28 1.16699 -52 3.5 -72s6.66602 -37 12.999 -51
s14.833 -25.833 25.5 -35.5s24.667 -18.167 42 -25.5c64.667 -29.333 119.5 -59 164.5 -89s81.667 -58.167 110 -84.5s48.833 -49.5 61.5 -69.5s18.667 -34.667 18 -44c0 -6.66699 -4 -14.167 -12 -22.5s-20.333 -16 -37 -23s-38 -12.833 -64 -17.5s-56.667 -7 -92 -7h-327
c-10.667 0 -20.5 -2.5 -29.5 -7.5s-13.5 -12.5 -13.5 -22.5v-162zM170.002 1008c54 36 111.836 71.499 173.503 106.499s123 67.333 184 97s119.333 55 175 76s104.167 35.5 145.5 43.5l45 146c-34 -7.33301 -71.333 -18 -112 -32s-82.834 -30.5 -126.501 -49.5
s-87.834 -39.667 -132.501 -62s-87.834 -45.166 -129.501 -68.499s-81 -46.5 -118 -69.5s-69.167 -44.833 -96.5 -65.5z" />
    <glyph glyph-name="sf322.001" unicode="&#x6af;" horiz-adv-x="1046" arabic-form="medial" 
d="M172 1016l126.5 73.501l147.5 79.5l154.5 78l147 70.5c46.333 21.667 88.5 40.5 126.5 56.5s68.333 27.667 91 35l59 158c-38 -12.667 -81 -29 -129 -49s-98.333 -42.5 -151 -67.5l-160 -79.5l-155.5 -83.5c-49.667 -27.667 -95.5 -54.334 -137.5 -80.001
s-77.667 -48.5 -107 -68.5zM1008 1325l-121.502 -46.5l-138 -56c-48.333 -20.333 -98.166 -42.666 -149.499 -66.999s-103 -50.5 -155 -78.5c-66 -36 -121.333 -69 -166 -99s-80.5 -57.833 -107.5 -83.5s-46.167 -49.834 -57.5 -72.501s-17 -45.334 -17 -68.001
c0 -14.667 2.16699 -30.5 6.5 -47.5s9.83301 -33.833 16.5 -50.5s14.334 -32.667 23.001 -48s17.334 -28.333 26.001 -39c7.33301 -9.33301 20.166 -19.166 38.499 -29.499s38.833 -21 61.5 -32l71 -34.5c24.667 -12 47.167 -24.5 67.5 -37.5s37.166 -26.167 50.499 -39.5
s20 -26.666 20 -39.999c0 -14 -6.16699 -28.667 -18.5 -44s-32 -29.666 -59 -42.999s-62.5 -24.333 -106.5 -33s-97.333 -13 -160 -13h-149c-10.667 0 -20.5 -2.5 -29.5 -7.5s-13.5 -12.5 -13.5 -22.5v-162c0 -4 1.83301 -7.83301 5.5 -11.5s8.5 -7 14.5 -10
s12.5 -5.33301 19.5 -7s13.5 -2.5 19.5 -2.5h139c63.333 0 117.333 5.33301 162 16s82.334 24.5 113.001 41.5s54.834 36.5 72.501 58.5s31.334 44.5 41.001 67.5s16 45.5 19 67.5s4.66699 41.5 5 58.5s0.5 30.833 0.5 41.5s1.66699 16 5 16s10.5 -4.83301 21.5 -14.5
s24.167 -22 39.5 -37l50 -50.5l53 -54l79 -79c26 -25.333 51.667 -47.833 77 -67.5s50.166 -35.334 74.499 -47.001s48.5 -17.5 72.5 -17.5c6 0 12.5 0.833008 19.5 2.5s13.5 4 19.5 7s10.833 6.33301 14.5 10s5.5 7.5 5.5 11.5v162c0 10 -4.5 17.5 -13.5 22.5
s-18.833 7.5 -29.5 7.5c-21.333 0 -40.666 2.66699 -57.999 8s-35.833 14.666 -55.5 27.999s-41.834 31.166 -66.501 53.499l-90 84.5c-44 41.333 -88.667 78.5 -134 111.5s-89.333 62 -132 87s-82.834 46.5 -120.501 64.5l-99 46l-67 30.5
c-16.333 7.66699 -24.5 13.5 -24.5 17.5c0 14 29 38.333 87 73s148.333 79.334 271 134.001c54 24.667 109.833 48.167 167.5 70.5s114.5 41.833 170.5 58.5z" />
    <glyph glyph-name="sf322.002" unicode="&#x6af;" horiz-adv-x="1757" arabic-form="final" 
d="M1714 1325l-120.995 -46.4951l-138 -56c-48 -20.333 -97.667 -42.666 -149 -66.999s-103 -50.5 -155 -78.5c-66 -36 -121.333 -69 -166 -99s-80.5 -57.833 -107.5 -83.5s-46.167 -49.834 -57.5 -72.501s-17 -45.334 -17 -68.001c0 -14.667 2.16699 -30.5 6.5 -47.5
s9.83301 -33.833 16.5 -50.5s14.167 -32.667 22.5 -48s16.833 -28.333 25.5 -39c7.33301 -9.33301 20.166 -19.166 38.499 -29.499s39 -21 62 -32l71.5 -34.5c24.667 -12 47.167 -24.5 67.5 -37.5s37.166 -26.167 50.499 -39.5s20 -26.666 20 -39.999
c-0.666992 -21.333 -9.83398 -43.666 -27.501 -66.999s-46.167 -44.833 -85.5 -64.5s-91 -36 -155 -49s-142.667 -19.5 -236 -19.5c-98 0 -180.167 6.66699 -246.5 20s-119.5 31.5 -159.5 54.5s-68 50.167 -84 81.5s-22.667 64.666 -20 99.999
c0 20.667 4.16699 41.5 12.5 62.5s17.166 39.5 26.499 55.5c3.33301 6.66699 3.5 12.5 0.5 17.5s-7.16699 7.5 -12.5 7.5c-8 0 -19 -9 -33 -27s-28 -41.5 -42 -70.5s-26.167 -61.333 -36.5 -97s-15.5 -71.167 -15.5 -106.5c1.33301 -44.667 11.5 -83.334 30.5 -116.001
s43.167 -60.5 72.5 -83.5s62.833 -41.833 100.5 -56.5s76 -26.334 115 -35.001s77.5 -14.5 115.5 -17.5s72 -4.5 102 -4.5c107.333 0 202 7.33301 284 22s150.5 38.667 205.5 72s96.667 77.166 125 131.499s42.833 121.166 43.5 200.499c3.33301 0 10.5 -4.83301 21.5 -14.5
s24.167 -22 39.5 -37l49.5 -50.5l52.5 -54l80 -79c26 -25.333 51.5 -47.833 76.5 -67.5s49.833 -35.334 74.5 -47.001s49 -17.5 73 -17.5c6 0 12.5 0.833008 19.5 2.5s13.333 4 19 7s10.5 6.33301 14.5 10s6 7.5 6 11.5v162c0 10 -4.66699 17.5 -14 22.5s-19 7.5 -29 7.5
c-21.333 0 -40.666 2.66699 -57.999 8s-35.833 14.666 -55.5 27.999s-41.834 31.166 -66.501 53.499l-90 84.5c-44 41.333 -88.833 78.5 -134.5 111.5s-89.834 62 -132.501 87s-82.834 46.5 -120.501 64.5l-99 46l-67 30.5c-16.333 7.66699 -24.5 13.5 -24.5 17.5
c0 14 29.167 38.333 87.5 73s148.5 79.334 270.5 134.001c54.667 24.667 110.834 48.167 168.501 70.5s114.167 41.833 169.5 58.5zM879.005 1016l126.499 73.501l147.5 79.5l154.5 78l147 70.5c46.333 21.667 88.333 40.5 126 56.5s67.834 27.667 90.501 35l60 158
c-38 -12.667 -81.167 -29 -129.5 -49s-98.833 -42.5 -151.5 -67.5l-160 -79.5l-155.5 -83.5c-49.667 -27.667 -95.5 -54.334 -137.5 -80.001s-77.333 -48.5 -106 -68.5z" />
    <glyph glyph-name="sf277.044" unicode="&#x6ba;" horiz-adv-x="1121" arabic-form="final" 
d="M976 12c0 -182 -51.332 -327.003 -153.999 -435.003s-240.334 -162 -413.001 -162c-104 0 -188 29.333 -252 88s-96 135.667 -96 231c0 60.667 16.333 130.834 49 210.501s61.667 119.5 87 119.5c10.667 0 16 -6.33301 16 -19c0 -5.33301 -4 -16.666 -12 -33.999
c-35.333 -78 -53 -140.667 -53 -188c0 -57.333 27.167 -102.5 81.5 -135.5s128.5 -49.5 222.5 -49.5c146 0 265 34 357 102c56 42 84 106.667 84 194c0 33.333 -5.33301 76 -16 128c-48 38.667 -82.333 83.667 -103 135c24 52 60.333 105 109 159
c32 -59.333 62.667 -96.666 92 -111.999s83 -23 161 -23c22 0 33 -10 33 -30v-163c0 -18.667 -24.333 -28 -73 -28c-36 0 -76 4 -120 12z" />
    <glyph glyph-name="sf305" unicode="&#x6be;" horiz-adv-x="897" arabic-form="initial" 
d="M573 460c-6 -3.33301 -9.66699 -9.00098 -11 -17.001l-2 -18c-6 -43.333 -19.333 -80.666 -40 -111.999c102 -41.333 172.667 -62 212 -62c12.667 0 19 4.66699 19 14c0 18.667 -25.167 55.5 -75.5 110.5s-84.5 83.167 -102.5 84.5zM390 327.999
c22.667 0 44.334 7.16797 65.001 21.501s31 29.166 31 44.499c0 23.333 -8.33301 47.666 -25 72.999s-32.667 38 -48 38c-24.667 0 -54.334 -13.667 -89.001 -41s-52 -50.666 -52 -69.999c0 -14 13.5 -28.5 40.5 -43.5s52.833 -22.5 77.5 -22.5zM227 250
c-20.667 29.333 -30.998 57.667 -30.998 85c0 62 40 136.333 120 223l16 18l-47 18c6 56.667 17.667 101.5 35 134.5s37.666 49.5 60.999 49.5c28.667 0 69.5 -17.5 122.5 -52.5s104.5 -77.833 154.5 -128.5c112 -116 168 -220.667 168 -314
c0 -137.333 -35.333 -206 -106 -206c-22 0 -73 15.667 -153 47c-68.667 26.667 -120.667 40 -156 40c-46.667 0 -96 -26 -148 -78c-58 -57.333 -145 -86 -261 -86c-41.333 -0 -62 10.333 -62 31v158c0 21.333 17.667 32 53 32h35c97.333 0 163.666 9.66699 198.999 29z" />
    <glyph glyph-name="sf324" unicode="&#x6be;" horiz-adv-x="822" arabic-form="medial" 
d="M570 -190c1.33301 26.667 -29.001 57.501 -91.001 92.501s-117.333 52.5 -166 52.5c-16 0 -24 -6.33301 -24 -19c0 -22.667 17 -57.334 51 -104.001c42.667 -58.667 88.667 -88 138 -88c21.333 0 41.833 7 61.5 21s29.834 29 30.501 45zM534.999 409.001
c0.666992 12 -8.16699 26.832 -26.5 44.499s-34.166 26.5 -47.499 26.5c-22 0 -53.333 -24.167 -94 -72.5s-61 -85.833 -61 -112.5c0 -6 4.33301 -9 13 -9c32 0 75.667 15.833 131 47.5s83.666 56.834 84.999 75.501zM582.998 -13
c37.333 -70 55.9971 -130.669 55.9971 -182.002c0 -62 -20 -118.667 -60 -170s-84 -77 -132 -77c-69.333 0 -126 36.333 -170 109s-70 172.667 -78 300l-46 -9l-12 54c-50 -8 -95.333 -12 -136 -12c-42.667 0 -64 10.333 -64 31v158c0 18.667 14 29.334 42 32.001h46
c76.667 0 138 7.33301 184 22c26.667 110.667 72.334 207.334 137.001 290.001c34.667 44.667 72.334 81.5 113.001 110.5s74.667 43.5 102 43.5c22 0 37 -12.667 45 -38s12 -72 12 -140c0 -72.667 -13.667 -134 -41 -184s-74.333 -99 -141 -147l11 -6
c90.667 32.667 211.334 49 362.001 49c28.667 0 43 -10 43 -30v-163c0 -14 -19.333 -23.333 -58 -28l-68 -1l-63 -3c-25.333 0 -53.333 -3 -84 -9z" />
    <glyph glyph-name="sf324.001" unicode="&#x6be;" horiz-adv-x="725" arabic-form="final" 
d="M500 -190c1.33301 26.667 -29.001 57.501 -91.001 92.501s-117.333 52.5 -166 52.5c-16 0 -24 -6.33301 -24 -19c0 -22.667 17 -57.334 51 -104.001c42.667 -58.667 88.667 -88 138 -88c21.333 0 41.833 7 61.5 21s29.834 29 30.501 45zM464.999 409.001
c0.666992 12 -8.16699 26.832 -26.5 44.499s-34.166 26.5 -47.499 26.5c-22 0 -53.333 -24.167 -94 -72.5s-61 -85.833 -61 -112.5c0 -6 4.33301 -9 13 -9c32 0 75.667 15.833 131 47.5s83.666 56.834 84.999 75.501zM512.998 -13
c37.333 -70 55.9971 -130.668 55.9971 -182.001c0 -62 -20 -118.667 -60 -170s-84 -77 -132 -77c-69.333 0 -126 36.333 -170 109s-70 172.667 -78 300l-46 -9l-12 54c2 139.333 26 216.333 72 231c26.667 110.667 72.334 207.334 137.001 290.001
c34.667 44.667 72.334 81.5 113.001 110.5s74.667 43.5 102 43.5c22 0 37 -12.667 45 -38s12 -72 12 -140c0 -72.667 -13.667 -134 -41 -184s-74.333 -99 -141 -147l11 -6c90.667 32.667 211.334 49 362.001 49c28.667 0 43 -10 43 -30v-163c0 -14 -19.333 -23.333 -58 -28
l-68 -1l-63 -3c-25.333 0 -53.333 -3 -84 -9z" />
    <glyph glyph-name="sf265.001.init" unicode="&#x6c1;" horiz-adv-x="732" arabic-form="initial" 
d="M440 -300c17.333 4 30.667 6.16797 40 6.50098s19 -1.83398 29 -6.50098c22.667 -9.33301 38.334 -25.833 47.001 -49.5s8 -47.5 -2 -71.5c-10.667 -26 -27.334 -43.833 -50.001 -53.5s-47 -9.16699 -73 1.5c-38 16 -63.167 49.167 -75.5 99.5s-7.5 102.166 14.5 155.499
c10 25.333 26.833 50.5 50.5 75.5s51.167 46.5 82.5 64.5c44 26.667 73.667 37 89 31c4 -1.33301 6.66699 -3.66602 8 -6.99902s1.33301 -7 0 -11c-1.33301 -2.66699 -3.66602 -5.16699 -6.99902 -7.5s-12.666 -7.5 -27.999 -15.5
c-28.667 -14 -53.334 -31.167 -74.001 -51.5s-35.334 -41.166 -44.001 -62.499c-5.33301 -14.667 -8.83301 -30.834 -10.5 -48.501s-0.5 -34.167 3.5 -49.5zM266.001 251.001c-10 26.667 -28.668 54.667 -56.001 84l-37 40l-10 10c20 51.333 52.333 107 97 167l7 11
c64.667 -93.333 97 -190 97 -290c0 -41.333 -10 -84.333 -30 -129s-45.333 -81.334 -76 -110.001c-22 -14.667 -61.333 -24 -118 -28c-12.667 -1.33301 -30 -3 -52 -5c-40 -3.33301 -69.667 -3.66602 -89 -0.999023c-39.333 0 -59 10.333 -59 31v158
c0 21.333 13.667 32 41 32h163c58.667 0 99.334 10 122.001 30zM600 251.001c-10 26.667 -28.668 54.667 -56.001 84l-37 40l-10 10c20 51.333 52.333 107 97 167l7 11c64.667 -93.333 97 -190 97 -290c0 -41.333 -10 -84.333 -30 -129s-45.333 -81.334 -76 -110.001
c-22 -14.667 -61.333 -24 -118 -28c-12.667 -1.33301 -30 -3 -52 -5c-40 -3.33301 -69.667 -3.66602 -89 -0.999023c-39.333 0 -59 10.333 -59 31v158c0 21.333 13.667 32 41 32h163c58.667 0 99.334 10 122.001 30z" />
    <glyph glyph-name="sf297" unicode="&#x6c1;" horiz-adv-x="785" arabic-form="medial" 
d="M588 198c-16.667 0.666992 -56.333 -32 -119 -98s-94 -156 -94 -270c0 -46.667 7.33301 -87.667 22 -123c6.66699 -14.667 10 -23.667 10 -27c0 -14 -13.167 -36.167 -39.5 -66.5s-45.166 -45.5 -56.499 -45.5c-20.667 0 -43.667 26.667 -69 80
c-28.667 57.333 -43 127 -43 209c0 50 2.66699 92.667 8 128c3.33301 22.667 5.33301 37.334 6 44.001l-3 2c-49.333 -20.667 -93 -31 -131 -31h-48c-43.333 0 -65 10.333 -65 31v158c0 21.333 16 32 48 32h47c67.333 0 118.333 9.33301 153 28s72.334 56.667 113.001 114
c21.333 30 40.666 45 57.999 45c11.333 0 17 -4.66699 17 -14c0 -4 -3 -12.333 -9 -25c-62.667 -132.667 -94 -248 -94 -346c0 -4.66699 0.666992 -12.334 2 -23.001l10 3l12 25c57.333 120 126.666 213.667 207.999 281c37.333 30 64 45.333 80 46
c1.33301 0.666992 2.66602 1 3.99902 1c8 0 13.667 -7 17 -21l13 -49c6.66699 -25.333 15.167 -42.5 25.5 -51.5s26.833 -13.5 49.5 -13.5h78c29.333 0 44 -10 44 -30v-163c0 -7.33301 -7.16699 -13.833 -21.5 -19.5s-30.166 -8.5 -47.499 -8.5
c-86 0 -143.667 31.667 -173 95c-5.33301 12.667 -9.33301 47 -12 103zM439.001 -618c17.333 4 30.667 6.16797 40 6.50098s19 -1.83398 29 -6.50098c22.667 -9.33301 38.334 -25.833 47.001 -49.5s8 -47.5 -2 -71.5c-10.667 -26 -27.334 -43.833 -50.001 -53.5
s-47 -9.16699 -73 1.5c-38 16 -63.167 49.167 -75.5 99.5s-7.5 102.166 14.5 155.499c10 25.333 26.833 50.5 50.5 75.5s51.167 46.5 82.5 64.5c44 26.667 73.667 37 89 31c4 -1.33301 6.66699 -3.66602 8 -6.99902s1.33301 -7 0 -11
c-1.33301 -2.66699 -3.66602 -5.16699 -6.99902 -7.5s-12.666 -7.5 -27.999 -15.5c-28.667 -14 -53.334 -31.167 -74.001 -51.5s-35.334 -41.166 -44.001 -62.499c-5.33301 -14.667 -8.83301 -30.834 -10.5 -48.501s-0.5 -34.167 3.5 -49.5z" />
    <glyph glyph-name="sf277.013" unicode="&#x6c1;" horiz-adv-x="681" arabic-form="final" 
d="M428 240c-6.66699 -6 -11.667 -10.6689 -15 -14.002l-28 -28l-33 -32c-21.333 -21.333 -43 -32 -65 -32c-24 0 -58.5 4.66699 -103.5 14s-73.5 17.666 -85.5 24.999c-20 12 -30 31.667 -30 59c0 60.667 32 126.334 96 197.001s135.333 119.334 214 146.001l-14 83l97 129
l70 -452l3 -27c6 -37.333 17.167 -61.166 33.5 -71.499s51.166 -15.5 104.499 -15.5c28.667 0 43 -10 43 -30v-163c0 -18.667 -25 -28 -75 -28c-54 0 -95.167 11 -123.5 33s-49.166 59 -62.499 111l-16 61zM216 353.998c1.33301 -4 5.66797 -6.66699 13.001 -8l63 -12
c30.667 -6 59.667 -9 87 -9c13.333 0 22.166 4.16699 26.499 12.5s6.5 24.833 6.5 49.5c0 55.333 -9 83 -27 83c-14.667 0 -36.5 -7.83301 -65.5 -23.5s-51.5 -32.167 -67.5 -49.5l-28 -30c-5.33301 -6 -8 -10.333 -8 -13z" />
    <glyph glyph-name="sf277.047" unicode="&#x6c2;" horiz-adv-x="717" 
d="M426 1078c-16 26 -35.002 39 -57.002 39c-17.333 0 -34.666 -5 -51.999 -15s-26 -20 -26 -30c0 -12.667 11.333 -26 34 -40s44.334 -21 65.001 -21c51.333 0 121.666 19.667 210.999 59l-3 -14c-16.667 -70 -50 -112.667 -100 -128
c-131.333 -40 -206.666 -90 -225.999 -150c-21.333 15.333 -32 30 -32 44c0 22 12.667 53.667 38 95c-48.667 26 -73 56.667 -73 92c0 44.667 24 91.5 72 140.5s93.667 73.5 137 73.5c20 0 36.833 -6.33301 50.5 -19s20.5 -28.334 20.5 -47.001
c0 -29.333 -19.667 -55.666 -59 -78.999zM427.998 240c-6.66699 -6 -11.6699 -10.6699 -15.0029 -14.0029l-28 -28l-33 -32c-22 -21.333 -43.667 -32 -65 -32c-24 0 -58.667 4.66699 -104 14s-73.666 17.666 -84.999 24.999c-20 12 -30 31.667 -30 59
c0 60.667 31.833 126.334 95.5 197.001s134.834 119.334 213.501 146.001l-14 83l97 129l70 -452l4 -27c5.33301 -37.333 16.333 -61.166 33 -71.499s51.334 -15.5 104.001 -15.5c29.333 0 44 -10 44 -30v-163c0 -18.667 -25.333 -28 -76 -28c-54 0 -95 11 -123 33
s-49 59 -63 111l-16 61c-1.33301 6.66699 -4.33301 18.334 -9 35.001zM215.995 353.997c0.666992 -4 4.66699 -6.66699 12 -8l63 -12c31.333 -6 60.333 -9 87 -9c13.333 0 22.166 4.16699 26.499 12.5s6.5 24.833 6.5 49.5c0 55.333 -8.66699 83 -26 83
c-15.333 0 -37.333 -7.83301 -66 -23.5s-51 -32.167 -67 -49.5l-29 -30c-5.33301 -6 -7.66602 -10.333 -6.99902 -13z" />
    <glyph glyph-name="sf265.002.fina" unicode="&#x6c3;" horiz-adv-x="681" 
d="M428 240c-6.66699 -6 -11.667 -10.6689 -15 -14.002l-28 -28l-33 -32c-21.333 -21.333 -43 -32 -65 -32c-24 0 -58.5 4.66699 -103.5 14s-73.5 17.666 -85.5 24.999c-20 12 -30 31.667 -30 59c0 60.667 32 126.334 96 197.001s135.333 119.334 214 146.001l-14 83l97 129
l70 -452l3 -27c6 -37.333 17.167 -61.166 33.5 -71.499s51.166 -15.5 104.499 -15.5c28.667 0 43 -10 43 -30v-163c0 -18.667 -25 -28 -75 -28c-54 0 -95.167 11 -123.5 33s-49.166 59 -62.499 111l-16 61zM216 353.998c1.33301 -4 5.66797 -6.66699 13.001 -8l63 -12
c30.667 -6 59.667 -9 87 -9c13.333 0 22.166 4.16699 26.499 12.5s6.5 24.833 6.5 49.5c0 55.333 -9 83 -27 83c-14.667 0 -36.5 -7.83301 -65.5 -23.5s-51.5 -32.167 -67.5 -49.5l-28 -30c-5.33301 -6 -8 -10.333 -8 -13zM193.002 799.998
c-51.333 44.667 -100.332 81.332 -146.999 109.999c31.333 39.333 65.666 88.666 102.999 147.999c30 -34.667 63.667 -63 101 -85c27.333 34.667 51.333 70 72 106c50.667 -47.333 97 -83.666 139 -108.999c-30.667 -40 -61 -90.667 -91 -152
c-39.333 36.667 -76 65.334 -110 86.001c-22 -28 -44.333 -62.667 -67 -104z" />
    <glyph glyph-name="sf297.002" unicode="&#x6d2;" horiz-adv-x="1000" arabic-form="final" 
d="M929 -738h-364c-195.333 7.33301 -324.666 22.666 -387.999 45.999c-66 18 -99 52.667 -99 104c0 56.667 31.667 115.334 95 176.001c50 50 132.667 97.5 248 142.5s199.333 93.5 252 145.5c22.667 24 48.667 66 78 126c33.333 53.333 69.666 107.666 108.999 162.999
c40 31.333 89.333 47 148 47v-210c-64.667 0 -117 -22 -157 -66l-153 -155c-58 -58 -129 -108.333 -213 -151c-7.33301 -3.33301 -66 -28.333 -176 -75c-63.333 -20 -95 -39.333 -95 -58c0 -6 2.33301 -11.333 7 -16c30.667 -17.333 126 -27.666 286 -30.999l781 -7h119
c27.333 -10 41 -17.333 41 -22c0 -24.667 -11.333 -43 -34 -55l-77 -42c-64 -41.333 -200 -62 -408 -62z" />
    <glyph glyph-name="sf297.003" unicode="&#x6d3;" horiz-adv-x="1000" arabic-form="final" 
d="M820 564c-15.333 25.333 -34.334 37.999 -57.001 37.999c-17.333 0 -34.666 -4.83301 -51.999 -14.5s-26 -19.5 -26 -29.5c0 -12.667 11.333 -26.167 34 -40.5s44.667 -21.5 66 -21.5c50.667 0 121 19.667 211 59l-4 -14c-16.667 -69.333 -49.667 -111.666 -99 -126.999
c-132 -40.667 -207.667 -91 -227 -151c-21.333 16 -32 31 -32 45c0 21.333 12.667 53 38 95c-48.667 25.333 -73 55.666 -73 90.999c0 44.667 24 91.5 72 140.5s93.667 73.5 137 73.5c20 0 36.833 -6.33301 50.5 -19s20.5 -28 20.5 -46
c0 -29.333 -19.667 -55.666 -59 -78.999zM928.999 -738.001h-364c-195.333 7.33301 -324.666 22.666 -387.999 45.999c-66 18 -99 52.667 -99 104c0 56.667 31.667 115.334 95 176.001c50 50 132.667 97.5 248 142.5s199.333 93.5 252 145.5c22.667 24 48.667 66 78 126
c33.333 53.333 69.666 107.666 108.999 162.999c40 31.333 89.333 47 148 47v-210c-64.667 0 -117 -22 -157 -66l-153 -155c-58 -58 -129 -108.333 -213 -151c-7.33301 -3.33301 -66 -28.333 -176 -75c-63.333 -20 -95 -39.333 -95 -58c0 -6 2.33301 -11.333 7 -16
c30.667 -17.333 126 -27.666 286 -30.999l781 -7h119c27.333 -10 41 -17.333 41 -22c0 -24.667 -11.333 -43 -34 -55l-77 -42c-64 -41.333 -200 -62 -408 -62z" />
    <glyph glyph-name="sf270.009" unicode="&#xfdf2;" horiz-adv-x="1255" arabic-form="isolated" 
d="M779 131c-18.667 -57.333 -43.833 -98.1709 -75.5 -122.504s-75.5 -36.5 -131.5 -36.5c-124 0 -186 90.333 -186 271c-6 -5.33301 -10 -9 -12 -11l-32 -30c-32.667 -32 -73.667 -48 -123 -48c-100.667 0 -151 17.667 -151 53c0 16 10.667 45.833 32 89.5
s43.333 80.167 66 109.5c40 52.667 116 99.667 228 141c11.333 50 29.333 92.333 54 127l9 12c9.33301 13.333 15.666 20 18.999 20c8 0 12 -19 12 -57c0 -28 -1.33301 -64.667 -4 -110c-2.66699 -44 -4 -91 -4 -141v-63c0 -54 9 -92 27 -114s49 -33 93 -33
c46.667 0 80.167 11 100.5 33s30.5 59 30.5 111c0 48.667 -2.66699 93.334 -8 134.001l-9 74c-8 70 -12.333 105.667 -13 107c-1.33301 6.66699 -2 11.334 -2 14.001c0 10.667 12.833 35.5 38.5 74.5s42.167 58.5 49.5 58.5c9.33301 0 15.333 -12.333 18 -37l7 -72
c2 -22 3 -41.333 3 -58c0 -124.667 16.833 -227 50.5 -307s76.834 -120 129.501 -120c55.333 0 83 19.667 83 59c0 33.333 -11 83 -33 149c-5.33301 16 -8.33301 24.667 -9 26l-16 59l-16 59c-8 34.667 -12 71 -12 109c0 26.667 9.16699 57.834 27.5 93.501
s34.5 53.5 48.5 53.5c10 0 15 -11.667 15 -35s2.33301 -45.666 7 -66.999l10 -48l14 -64l10 -38c28.667 -109.333 43 -196.333 43 -261c0 -206.667 -57 -310 -171 -310c-81.333 0 -149 41.333 -203 124zM209.001 335.995c25.333 -14.667 53.667 -22 85 -22
c15.333 0 34.833 3.16699 58.5 9.5s35.5 11.5 35.5 15.5v107c-1.33301 1.33301 -5 1 -11 -1l-18 -6c-60 -22 -110 -56.333 -150 -103zM892.002 1158c0 -4.66699 -0.667969 -12.666 -2.00098 -23.999c-2.66699 -19.333 -4 -38 -4 -56c0 -53.333 -9.66699 -97.833 -29 -133.5
s-43.333 -53.5 -72 -53.5c-20.667 0 -43.334 5.66699 -68.001 17l-15 -14c-31.333 -26.667 -60.333 -40 -87 -40c-48 0 -72 26.667 -72 80c0 31.333 8 65.666 24 102.999s30.667 56 44 56c7.33301 0 11 -3.66699 11 -11c0 -4 -1.66699 -10.667 -5 -20
c-9.33301 -30.667 -14 -52.667 -14 -66c0 -23.333 11 -35 33 -35c32 0 53.333 23.333 64 70c8.66699 40 24.334 60 47.001 60c4.66699 0 7.33398 -1.66699 8.00098 -5v-3c0 -1.33301 -0.666992 -4.66602 -2 -9.99902c-4.66699 -14.667 -7 -26.667 -7 -36
c0 -26.667 21.667 -40 65 -40c12.667 0 19 5 19 15c0 1.33301 -0.333008 2.66602 -1 3.99902l-2 12c-2.66699 14.667 -4 26 -4 34c0 23.333 13.333 47 40 71l15 13c3.33301 3.33301 8 7.33301 14 12zM693.001 1465c35.333 -70 53.001 -132 53.001 -186
c0 -20.667 -4.83301 -46 -14.5 -76s-17.834 -45 -24.501 -45c-3.33301 0 -5 3 -5 9l-1 9l-2 19c0 2 -1 10.333 -3 25l-2 16c-5.33301 40 -21 88 -47 144l5 11c15.333 32 29 56.667 41 74z" />
    <glyph glyph-name="mhmd" unicode="&#xfdf4;" horiz-adv-x="2996" arabic-form="isolated" 
d="M1450 180c16.667 0 25 12.335 25 37.002c0 39.333 -9.83301 76.666 -29.5 111.999s-40.167 53 -61.5 53c-14 0 -33.167 -11.833 -57.5 -35.5s-36.5 -42.167 -36.5 -55.5c0 -12.667 22.167 -34.334 66.5 -65.001s75.5 -46 93.5 -46zM970 221.002
c60.667 0 107.165 7.50195 139.498 22.502s61.5 42.5 87.5 82.5c78 118.667 138.333 178 181 178c27.333 0 61.333 -21.333 102 -64c84.667 -90.667 146.334 -149.834 185.001 -177.501s78.667 -41.5 120 -41.5h21l93 2c87.333 0 186.333 17.333 297 52l76 24
c22 6.66699 37.333 12.334 46 17.001v3c-13.333 4 -30 8 -50 12c-136 24.667 -250.667 53.667 -344 87c10.667 48 27.167 85.167 49.5 111.5s60.166 54.166 113.499 83.499c101.333 54.667 223 106.667 365 156c-10.667 13.333 -28.334 30.666 -53.001 51.999
c19.333 62.667 47 117.667 83 165l24 -10c167.333 -65.333 251 -113.666 251 -144.999c0 -40 -35 -104 -105 -192c-112 0 -226 -19 -342 -57c-88.667 -29.333 -133 -49 -133 -59c0 -6 27.667 -16.5 83 -31.5s114 -27.833 176 -38.5c90.667 -16 160.5 -26.167 209.5 -30.5
s121.167 -6.5 216.5 -6.5h37c-11.333 -77.333 -27.333 -142.333 -48 -195l-82 2c-202.667 0 -422.667 -54.333 -660 -163c-76.667 -35.333 -157 -55 -241 -59c-10 -1.33301 -21.333 -2 -34 -2c-67.333 0 -127.333 19.667 -180 59c-26 18.667 -42.667 28 -50 28
c-10 0 -18 -20 -24 -60c-8.66699 -56 -31.334 -84 -68.001 -84c-28.667 0 -90 35 -184 105l-77 57c-35.333 26.667 -60 40 -74 40c-8 0 -17 -6 -27 -18l-28 -33c-31.333 -36.667 -59.166 -61.334 -83.499 -74.001s-55.5 -19 -93.5 -19c-9.33301 0 -17.333 0.333008 -24 1
c-10.667 -1.33301 -23.667 -2 -39 -2c-64.667 0 -115.167 13.833 -151.5 41.5s-61.5 71.167 -75.5 130.5c-6.66699 29.333 -15.667 44 -27 44c-9.33301 0 -20.666 -11.667 -33.999 -35c-66 -111.333 -169.333 -167 -310 -167c-56.667 0 -107.5 6.83301 -152.5 20.5
s-69.167 29.5 -72.5 47.5c2 52 11.5 104.833 28.5 158.5s32.167 80.5 45.5 80.5c4 0 7.33301 -7 10 -21c5.33301 -27.333 23 -48.333 53 -63s69.667 -22 119 -22c100.667 0 169.834 12.667 207.501 38s56.5 71.333 56.5 138c0 22 -3.33301 59 -10 111l-10 75
c-4.66699 36 -19 114 -43 234l124 143l65 -482c22.667 -166.667 69.334 -250 140.001 -250h125z" />
    <glyph glyph-name="sf256.004" unicode="&#xfdfa;" horiz-adv-x="1991" arabic-form="isolated" 
d="M1035 1228c0 -3.33301 0.166992 -7.66992 0.5 -13.0029l1 -16c0.333008 -5.33301 0.666016 -10.333 0.999023 -15s0.5 -7.66699 0.5 -9c0 -6.66699 0.833008 -12.167 2.5 -16.5s5.83398 -6.5 12.501 -6.5c11.333 0 17 5 17 15c0 2 0.166992 5.33301 0.5 10
s0.5 9.33398 0.5 14.001c0 5.33301 0.166992 10.5 0.5 15.5s0.5 8.83301 0.5 11.5c0 6.66699 1.33301 11.5 4 14.5s4.66699 -0.166992 6 -9.5c0.666992 -2 1.5 -5.33301 2.5 -10s1.83301 -9.5 2.5 -14.5s1.33398 -9.66699 2.00098 -14s1 -7.5 1 -9.5c2 -4 4.5 -8 7.5 -12
s7.16699 -6 12.5 -6c4.66699 0 7 2.66699 7 8c0 10.667 -1 21.334 -3 32.001s-1.66699 22 1 34c-2.66699 3.33301 -2.5 5.33301 0.5 6s5.16699 -1 6.5 -5l6 -31c2 -10.667 3 -22 3 -34c0 -9.33301 -1 -17.833 -3 -25.5s-9 -11.5 -21 -11.5c-12.667 0 -21 6 -25 18
l-14.5 -16.5c-3.66699 -4.33301 -9.16699 -6.5 -16.5 -6.5c-6.66699 0 -12.834 2.5 -18.501 7.5s-8.5 11.167 -8.5 18.5v48c0 -5.33301 1 -5.66602 3 -0.999023s4.66699 14.667 8 30zM606 1172c0 -6 0.836914 -11.0029 2.50391 -15.0029s6.16699 -6 13.5 -6
c10 0 16 4.66699 18 14c0 2 0.166992 5.16699 0.5 9.5s0.666016 9.16602 0.999023 14.499l1 15.5c0.333008 5 0.5 8.83301 0.5 11.5c-2.66699 7.33301 -2.33398 12.333 0.999023 15s6.33301 -0.666016 9 -9.99902c0 -2 0.333008 -5.33301 1 -10l2 -14.5l2 -14.5
c0.666992 -4.66699 1 -8 1 -10c2.66699 -3.33301 5.16699 -6.66602 7.5 -9.99902s6.16602 -5 11.499 -5c3.33301 0 5 1.66699 5 5c0 12 -0.166992 23.333 -0.5 34s-0.5 21.334 -0.5 32.001c0 4 1.16699 6.33301 3.5 7s4.83301 -0.666016 7.5 -3.99902
c2.66699 -12 4.83398 -23.333 6.50098 -34s2.5 -21.334 2.5 -32.001c0 -8.66699 -1.66699 -17.167 -5 -25.5s-11 -12.5 -23 -12.5c-9.33301 0 -16.333 6.33301 -21 19c-5.33301 -7.33301 -10.333 -13.166 -15 -17.499s-11.334 -6.5 -20.001 -6.5c-6 0 -11.5 2.66699 -16.5 8
s-7.5 11.333 -7.5 18v49c0 0.666992 0.5 2.66699 1.5 6l3 10c1 3.33301 2.16699 6.33301 3.5 9s2.66602 4 3.99902 4v-54zM554.004 873.993c-2.66699 -3.33301 -5.16797 -4.66895 -7.50098 -4.00195s-2.16602 3 0.500977 7c4 9.33301 6.83301 19 8.5 29s2.5 20 2.5 30
c0 10.667 -1 21 -3 31s-5.66699 19.667 -11 29c0 2 -0.166992 5.16699 -0.5 9.5s-0.333008 8.33301 0 12s1.5 6 3.5 7s5.33301 -0.5 10 -4.5c12.667 -23.333 18.667 -47.666 18 -72.999s-7.66699 -49.666 -21 -72.999zM336.003 869.99
c0 -0.666992 0.667969 -1.00195 2.00098 -1.00195c12.667 -4 25.667 -6.66699 39 -8s27.333 -0.666016 42 2.00098c5.33301 0 11.666 1.33301 18.999 4s12.333 6.66699 15 12c0 8.66699 0.5 15.834 1.5 21.501s1.5 12.167 1.5 19.5v6c0 3.33301 -0.5 7 -1.5 11
s-3.83301 5 -8.5 3c-18 -12 -36 -23.333 -54 -34s-36 -22 -54 -34zM950.004 1239.99c-0.666992 -26.667 0.000976562 -55.333 2.00098 -86s4.16699 -61.834 6.5 -93.501l7 -94c2.33301 -31 3.5 -60.167 3.5 -87.5c0 -26.667 -1.66699 -50.834 -5 -72.501
s-9.33301 -39.167 -18 -52.5c-6 68.667 -10.667 135.334 -14 200.001s-8 130.334 -14 197.001c2 4.66699 3.83301 11.167 5.5 19.5s3.5 16.833 5.5 25.5s4.66699 17 8 25s7.66602 14.333 12.999 19zM1466 667.989c48 -9.33301 95.999 -12.5 143.999 -9.5
s96 9.16699 144 18.5c-8.66699 24.667 -20.167 43.5 -34.5 56.5s-30 21.5 -47 25.5s-35.167 4 -54.5 0s-38.166 -10.5 -56.499 -19.5s-35.833 -19.833 -52.5 -32.5s-31 -25.667 -43 -39zM1230 435.989c2.66699 -4 6.33398 -9 11.001 -15s10.5 -11.167 17.5 -15.5
s15 -7 24 -8s19.5 1.5 31.5 7.5c-2.66699 8.66699 -7.33398 16.667 -14.001 24s-14.167 12.833 -22.5 16.5s-16.833 5 -25.5 4s-16 -5.5 -22 -13.5zM314.004 315.989c6 -5.33301 13.1689 -10.166 21.502 -14.499s16.833 -8.33301 25.5 -12s17 -7 25 -10l20 -7.5
c-3.33301 7.33301 -7.83301 15.666 -13.5 24.999s-12.334 17 -20.001 23s-16.334 9.33301 -26.001 10s-20.5 -4 -32.5 -14zM1178.01 129.989c-6.66699 0.666992 -13 1.16504 -19 1.49805s-12.333 0.5 -19 0.5c-19.333 0 -37.833 0.5 -55.5 1.5s-34.167 6.16699 -49.5 15.5
l56.5 8c19 2.66699 36.5 8.66699 52.5 18c12.667 4.66699 26.834 11.167 42.501 19.5s31.167 17.833 46.5 28.5s29.833 22.334 43.5 35.001s25 26 34 40s14.833 28.167 17.5 42.5s0.666992 28.5 -6 42.5c-4 -6.66699 -7.66699 -13.334 -11 -20.001s-7 -12.667 -11 -18
s-9 -9.66602 -15 -12.999s-13.667 -5 -23 -5c-16 0 -31 5.16699 -45 15.5s-22.333 24.833 -25 43.5c4.66699 44.667 16.167 78.334 34.5 101.001s37.666 34.5 57.999 35.5s38.5 -8.66699 54.5 -29s24 -50.833 24 -91.5c0.666992 -22 -1.33301 -42.333 -6 -61
s-11.167 -36.667 -19.5 -54s-18.333 -34.333 -30 -51s-24.5 -34 -38.5 -52c-12 -13.333 -26 -25 -42 -35s-32.333 -16.333 -49 -19zM50.0059 124.987c0.666992 0 5.66797 1.82227 15.001 5.48926s21.333 8.66699 36 15l50 21.5l56 24.5l53.5 25
c17 8.33301 31.5 15.833 43.5 22.5c0 1.33301 -2.16699 3.5 -6.5 6.5s-9.33301 6.66699 -15 11s-10.667 9.33301 -15 15s-6.5 11.834 -6.5 18.501c0 9.33301 4.16699 20.333 12.5 33s18.5 24.667 30.5 36s24.167 21 36.5 29s22.5 12 30.5 12
c13.333 -1.33301 25 -8.33301 35 -21l32 -41c11.333 -14.667 24.166 -28 38.499 -40s32.5 -18 54.5 -18c4 0 9 0.5 15 1.5s12 3.5 18 7.5s10.833 9.66699 14.5 17s4.83398 17.333 3.50098 30c-4 38.667 -7.16699 71.334 -9.5 98.001s-4.33301 48.667 -6 66
s-2.66699 30.833 -3 40.5s-0.5 16.834 -0.5 21.501v13c0 19.333 2.33301 38.833 7 58.5s8.66699 39.5 12 59.5c-24 -10 -44.5 -11.667 -61.5 -5s-30.5 18.167 -40.5 34.5s-17 35.5 -21 57.5s-5 43.667 -3 65c-4.66699 -12 -11.334 -21.667 -20.001 -29
s-18.5 -12.666 -29.5 -15.999s-22.5 -4.83301 -34.5 -4.5s-23.333 1.83301 -34 4.5c-5.33301 0 -11.166 0.833008 -17.499 2.5s-12.333 4.16699 -18 7.5s-10.5 7.33301 -14.5 12s-6 10.334 -6 17.001c8 18 18.667 33.667 32 47s28 25.333 44 36s33 20.5 51 29.5l53 26.5
c0 3.33301 0.666992 8 2 14s2.33301 10.333 3 13c2 2.66699 4.33301 6.33398 7 11.001l8 14c2.66699 4.66699 4.83398 8.83398 6.50098 12.501s2.5 6.16699 2.5 7.5h5c1.33301 -12.667 2.16602 -26.5 2.49902 -41.5s0.5 -30.167 0.5 -45.5
c0 -14.667 -0.333008 -29.334 -1 -44.001s-1.33398 -28 -2.00098 -40c0 -11.333 0.5 -23.833 1.5 -37.5s3.83301 -26.334 8.5 -38.001s11.334 -21.5 20.001 -29.5s20.667 -12 36 -12c18 0 33.5 6.66699 46.5 20s20.833 28.666 23.5 45.999
c1.33301 18.667 1.66602 37.167 0.999023 55.5s-1.5 36.833 -2.5 55.5s-1.33301 37.167 -1 55.5s2.16602 36.833 5.49902 55.5c1.33301 4.66699 2.83301 10.334 4.5 17.001s3.16699 13.334 4.5 20.001s2.83301 12.334 4.5 17.001s3.16699 7 4.5 7
c0 0.666992 0.333008 0.666992 1 0c6 -38 10.667 -75.833 14 -113.5s8 -75.5 14 -113.5c0.666992 -14 2.83398 -27.667 6.50098 -41s9 -25.166 16 -35.499s15.833 -18.666 26.5 -24.999s23.667 -9.5 39 -9.5h19c8 0 12.667 2.66699 14 8
c0 12.667 -1.83301 28.334 -5.5 47.001s-7.66699 38 -12 58s-8.33301 39.5 -12 58.5s-5.5 34.833 -5.5 47.5c0.666992 8 1.66699 17.5 3 28.5s2.83301 22 4.5 33s3.5 21.667 5.5 32s4 18.833 6 25.5c0 5.33301 1.33301 8.5 4 9.5s5 -1.83301 7 -8.5l36 -259
c8 -47.333 -1.66699 -92.666 -29 -135.999c-3.33301 -5.33301 -9.33301 -8 -18 -8s-13.334 -3 -14.001 -9c-6.66699 -18.667 -12.167 -36.334 -16.5 -53.001s-6.5 -35 -6.5 -55c0 -44.667 13.5 -76.834 40.5 -96.501s61.5 -29.5 103.5 -29.5c36 0 72.833 7.16699 110.5 21.5
s71.5 32.833 101.5 55.5c-30 12 -59.333 21 -88 27s-57 15 -85 27c0 5.33301 0.166992 12.666 0.5 21.999s4.83301 15.333 13.5 18l43 7.5l37.5 6.5c11 2 20.333 4.33301 28 7s12.5 6 14.5 10c0 14.667 0.166992 25 0.5 31s0.5 11.333 0.5 16v17c0 6 -0.333008 13.667 -1 23
s-1.5 22 -2.5 38s-2.5 35.833 -4.5 59.5s-4.33301 53.167 -7 88.5c0 2.66699 -0.5 7.33398 -1.5 14.001s-1.5 11.667 -1.5 15c0 23.333 2.33301 46.333 7 69s9.66699 45.667 15 69c1.33301 2 2.16602 3.83301 2.49902 5.5s1.83301 2.83398 4.5 3.50098h3l40 -353
c3.33301 -26 13.833 -44.833 31.5 -56.5s38.167 -17.5 61.5 -17.5c27.333 0 49.666 4.83301 66.999 14.5s35 24.167 53 43.5c0 0.666992 0.666992 1.33398 2 2.00098s2 0 2 -2c-2 -12.667 0 -23.167 6 -31.5s13.833 -15.166 23.5 -20.499s20 -9.5 31 -12.5
s20.833 -5.5 29.5 -7.5c20.667 22.667 42.834 44.167 66.501 64.5s48 37.666 73 51.999s49.833 24.833 74.5 31.5s47.834 7.66699 69.501 3s41.667 -16.167 60 -34.5s33.5 -45.166 45.5 -80.499c0 -0.666992 -0.166992 -1.83398 -0.5 -3.50098s-1.5 -5 -3.5 -10
s-5.33301 -12.333 -10 -22l-20 -39.5c-1.33301 -4 -4.16602 -7.83301 -8.49902 -11.5s-9.16602 -6.83398 -14.499 -9.50098s-10.666 -4.83398 -15.999 -6.50098s-10 -2.5 -14 -2.5c-56.667 -15.333 -112.834 -23.5 -168.501 -24.5s-112.834 3.83301 -171.501 14.5h-5
c-5.33301 -7.33301 -11.333 -15 -18 -23s-13.667 -15.333 -21 -22c-2 -2 -3.83301 -2.5 -5.5 -1.5s-1.16699 2.83301 1.5 5.5c2 9.33301 5.83301 17.833 11.5 25.5l16.5 22.5c-15.333 8.66699 -29 18 -41 28s-20.667 23.333 -26 40c-9.33301 -21.333 -24.5 -38 -45.5 -50
s-42.833 -18.333 -65.5 -19s-43.167 5 -61.5 17s-29.5 31 -33.5 57c-4 -8 -7.66699 -14.667 -11 -20s-6.5 -9.83301 -9.5 -13.5l-9 -10.5l-10.5 -12c2.66699 -1.33301 6.33398 -2.83301 11.001 -4.5s9.5 -3.16699 14.5 -4.5s9.66699 -2.5 14 -3.5s7.5 -1.5 9.5 -1.5
c10 -4 16.5 -9 19.5 -15s4.5 -14.333 4.5 -25c0 -27.333 -9.5 -52 -28.5 -74s-42.333 -40.667 -70 -56s-56.667 -27.166 -87 -35.499s-56.833 -12.833 -79.5 -13.5c-25.333 -0.666992 -47.666 2.83301 -66.999 10.5s-35.666 18.667 -48.999 33s-23.5 31.333 -30.5 51
s-10.5 41.5 -10.5 65.5c0 28 4.16699 54.5 12.5 79.5s18.5 50.167 30.5 75.5c-8 0 -16.5 0.333008 -25.5 1s-17.667 2.5 -26 5.5s-15.833 7.16699 -22.5 12.5s-11.334 12.666 -14.001 21.999c-1.33301 2 -2.83301 5.33301 -4.5 10s-3.16699 9.66699 -4.5 15
s-2.5 10.333 -3.5 15s-1.5 8 -1.5 10c-5.33301 -16 -11.333 -31.667 -18 -47s-19.334 -31 -38.001 -47c7.33301 -58.667 13.5 -116 18.5 -172s12.5 -112.333 22.5 -169c4.66699 -24.667 14.334 -43.334 29.001 -56.001s31.167 -19.834 49.5 -21.501
s36.833 1.83301 55.5 10.5s34.334 22 47.001 40c2 4 4.33301 6 7 6c2 0 3 -2.66699 3 -8s-0.333008 -9.66602 -1 -12.999s-1 -7 -1 -11c0 -9.33301 5.5 -15.666 16.5 -18.999s21.167 -5 30.5 -5h16c12 0 22.167 0.833008 30.5 2.5s15.666 4.33398 21.999 8.00098
s12.333 8.66699 18 15s12.5 14.5 20.5 24.5c5.33301 4 8 3.33301 8 -2c0 -9.33301 -1.66699 -15.833 -5 -19.5s-4.5 -6.5 -3.5 -8.5s6.33301 -4.33301 16 -7l54.5 -15c0 7.33301 -1 14.5 -3 21.5s-3 13.167 -3 18.5c3.33301 6 7 13.667 11 23s7.33301 15 10 17
c0 1.33301 0.833008 4.16602 2.5 8.49902s3.66699 8.16602 6 11.499s4.5 5.33301 6.5 6s3.33301 -2 4 -8l11 -44c4 -16 5.66699 -30 5 -42c0 -15.333 -3 -29.833 -9 -43.5s-11.667 -28.167 -17 -43.5c-2.66699 -5.33301 -6.16699 -8.16602 -10.5 -8.49902
s-9.83301 -0.5 -16.5 -0.5c-17.333 2 -36 4.83301 -56 8.5s-38 10.834 -54 21.501c-12.667 -9.33301 -25.834 -16.166 -39.501 -20.499s-27.334 -6.16602 -41.001 -5.49902s-26.5 4.16699 -38.5 10.5s-22.667 15.833 -32 28.5c-9.33301 -12 -21.166 -21.167 -35.499 -27.5
s-29.166 -9.83301 -44.499 -10.5s-30.166 1.83301 -44.499 7.5s-26.166 14.167 -35.499 25.5c-5.33301 9.33301 -9.16602 18.833 -11.499 28.5l-7.5 32.5c0 2.66699 -0.166992 5 -0.5 7s-1.83301 1.33301 -4.5 -2l-15 -38c-4.66699 -11.333 -10.334 -21 -17.001 -29
s-14.834 -14.167 -24.501 -18.5s-21.834 -6.5 -36.501 -6.5c-18 0 -32.833 3.66699 -44.5 11s-23.5 17 -35.5 29c-2 0 -4.16699 -2.16699 -6.5 -6.5s-5.33301 -9 -9 -14s-7.66699 -9.5 -12 -13.5s-9.5 -6 -15.5 -6c-10.667 0 -20.834 2.16699 -30.501 6.5
s-19.167 9.16602 -28.5 14.499c-12 -19.333 -25.833 -36.333 -41.5 -51s-34.5 -24.667 -56.5 -30c-28.667 -6.66699 -57.334 -12.167 -86.001 -16.5s-60 -6.5 -94 -6.5zM338.007 -92.0234c-18.667 28 -37.0049 58.1602 -55.0049 90.4932s-35 64.5 -51 96.5
c-2.66699 4.66699 -3.5 8.16699 -2.5 10.5s2.83301 3.83301 5.5 4.5s5.66699 0.333984 9 -0.999023s5.66602 -3.33301 6.99902 -6c9.33301 -15.333 19.166 -29.5 29.499 -42.5s20.166 -27.167 29.499 -42.5l13 -20c5.33301 -8 11.333 -15.667 18 -23
s13.834 -13.666 21.501 -18.999s15.5 -8 23.5 -8c8 0.666992 15.5 3.5 22.5 8.5s14.5 13.333 22.5 25s17.333 27 28 46l39 72.5c7.33301 15.333 17 29 29 41s25.667 18 41 18c10.667 0 19.667 -2.16699 27 -6.5s13.666 -10 18.999 -17s10.333 -14.667 15 -23
s10 -16.5 16 -24.5c16 -21.333 34.5 -38.5 55.5 -51.5s43.333 -23.167 67 -30.5s48.167 -12.166 73.5 -14.499s50 -3.5 74 -3.5c32 0 66.167 3.16699 102.5 9.5s72.833 15.5 109.5 27.5s72.334 26.833 107.001 44.5s66 37.834 94 60.501c4 4 6.33301 5.16699 7 3.5
s1 -4.5 1 -8.5c-2.66699 -8.66699 -5.66699 -15.667 -9 -21s-5 -11.666 -5 -18.999c0 -6 2.83301 -11.167 8.5 -15.5s12.334 -7.83301 20.001 -10.5s15.167 -4.5 22.5 -5.5s12.666 -1.5 15.999 -1.5c12 0 23.5 0.833008 34.5 2.5s20.167 5.16699 27.5 10.5
s12.833 13.166 16.5 23.499s4.5 24.166 2.5 41.499l-27 294c0 4.66699 0.333008 9.5 1 14.5s2.16699 12.333 4.5 22s5.83301 22.667 10.5 39l19 65.5l40 -366c1.33301 -14 4.33301 -28.333 9 -43s11 -28 19 -40s18.167 -22 30.5 -30s26.5 -12 42.5 -12
c-9.33301 15.333 -17.166 30.666 -23.499 45.999s-9.5 31 -9.5 47c-1.33301 31.333 4 57.5 16 78.5s28 37 48 48s42.833 17.167 68.5 18.5s51.167 -1.66699 76.5 -9s49.333 -18.833 72 -34.5s41.334 -35.167 56.001 -58.5l-76.5 13c-27 4.66699 -53.5 7.5 -79.5 8.5
s-51 -1 -75 -6s-45 -14.833 -63 -29.5c0 -7.33301 1.83301 -15.666 5.5 -24.999s7.16699 -16.666 10.5 -21.999c17.333 -28 36.666 -47.5 57.999 -58.5s44.333 -15.667 69 -14s50.834 8.16699 78.501 19.5s56.834 25.333 87.501 42
c0.666992 1.33301 1.33398 1.66602 2.00098 0.999023s1 -1.66699 1 -3v-1c-17.333 -36 -38.833 -63.333 -64.5 -82s-57.5 -34 -95.5 -46c-24 -6.66699 -50.333 -12.167 -79 -16.5s-56.167 -4.66602 -82.5 -0.999023s-50 12.667 -71 27s-35.833 36.833 -44.5 67.5
c-5.33301 -15.333 -10.666 -29.833 -15.999 -43.5s-12.166 -26 -20.499 -37s-18.666 -19.667 -30.999 -26s-28.166 -9.5 -47.499 -9.5c-21.333 0 -41.166 6 -59.499 18s-32.833 28 -43.5 48c-26.667 -21.333 -58.5 -40.666 -95.5 -57.999s-76.5 -31.666 -118.5 -42.999
s-85.167 -19 -129.5 -23s-87.166 -3.66699 -128.499 1s-79.833 14.334 -115.5 29.001s-65.834 35.334 -90.501 62.001c-9.33301 11.333 -16.5 22.166 -21.5 32.499s-9.16699 19.5 -12.5 27.5s-6.5 14.333 -9.5 19s-7.16699 7 -12.5 7
c-6.66699 0 -13.167 -2.83301 -19.5 -8.5s-11.5 -11.167 -15.5 -16.5l-34 -69c-8.66699 -17.333 -15.667 -30.833 -21 -40.5s-9.33301 -16.5 -12 -20.5s-5 -7 -7 -9c-6.66699 -9.33301 -13.834 -17.5 -21.501 -24.5s-16 -11.833 -25 -14.5s-18.333 -2.5 -28 0.5
s-19.834 10.5 -30.501 22.5zM1163 -160.03c-7.33301 6.66699 -7.66602 13.333 -0.999023 20c2 4.66699 6.83301 13 14.5 25s18.167 26 31.5 42l78 -63c1.33301 -1.33301 4.66602 1.33398 9.99902 8.00098s11 14.167 17 22.5s11.833 16 17.5 23s9.5 10.5 11.5 10.5h5l38 -37
l37 -36c-1.33301 -3.33301 -4.33301 -7.83301 -9 -13.5l-15 -18l-16 -18.5c-5.33301 -6 -9.33301 -10.667 -12 -14c-2 -5.33301 -7 -5.33301 -15 0c-12 9.33301 -23.5 19.333 -34.5 30s-22.5 21 -34.5 31c-8.66699 -10 -17.167 -21 -25.5 -33s-17.833 -22.333 -28.5 -31
c-4 -4 -8.66699 -3 -14 3c-10.667 7.33301 -20.167 15.166 -28.5 23.499z" />
    <glyph glyph-name="uniFE94" unicode="&#x629;" horiz-adv-x="681" arabic-form="final" 
d="M428 240c-6.66699 -6 -11.6699 -10.6699 -15.0029 -14.0029l-28 -28l-33 -32c-22 -21.333 -43.667 -32 -65 -32c-24 0 -58.667 4.66699 -104 14s-73.666 17.666 -84.999 24.999c-20 12 -30 31.667 -30 59c0 60.667 31.833 126.334 95.5 197.001
s134.834 119.334 213.501 146.001l-14 83l97 129l70 -452l4 -27c5.33301 -37.333 16.333 -61.166 33 -71.499s51.334 -15.5 104.001 -15.5c29.333 0 44 -10 44 -30v-163c0 -18.667 -25.333 -28 -76 -28c-54 0 -95 11 -123 33s-49 59 -63 111l-16 61
c-1.33301 6.66699 -4.33301 18.334 -9 35.001zM215.997 353.997c0.666992 -4 4.66699 -6.66699 12 -8l63 -12c31.333 -6 60.333 -9 87 -9c13.333 0 22.166 4.16699 26.499 12.5s6.5 24.833 6.5 49.5c0 55.333 -8.66699 83 -26 83c-15.333 0 -37.333 -7.83301 -66 -23.5
s-51 -32.167 -67 -49.5l-29 -30c-5.33301 -6 -7.66602 -10.333 -6.99902 -13zM288.997 880.997c-60.667 51.333 -115 91.667 -163 121c41.333 54 78.333 109 111 165c46 -44.667 84 -76 114 -94c24 28.667 51.333 67.334 82 116.001c40 -38.667 92 -78 156 -118
c-24.667 -32.667 -49.667 -73.334 -75 -122.001c-5.33301 -11.333 -14 -28 -26 -50l-25 23c-36.667 32.667 -68.667 58 -96 76c-30 -36.667 -56 -75.667 -78 -117z" />
    <glyph glyph-name="sf314" unicode="&#xfefb;" horiz-adv-x="1000" arabic-form="isolated" 
d="M388 -57l0.00195312 198.001c55.333 0 100.166 11 134.499 33s78.833 68 133.5 138l29 37c-110.667 185.333 -220.334 335.333 -329.001 450l-55 58c-21.333 22.667 -33.666 34 -36.999 34c-6.66699 0 -15 -10 -25 -30c-7.33301 -12.667 -13.666 -19 -18.999 -19
c-11.333 0 -50.333 37.333 -117 112c-50.667 56 -76 96 -76 120c0 38.667 9.66699 79.167 29 121.5s37.666 63.5 54.999 63.5c44.667 0 131.5 -75 260.5 -225s238.833 -303.667 329.5 -461l34 -59c4 -6.66699 14.667 -23 32 -49c30 86 45 199.333 45 340
c0 160.667 -8 278.667 -24 354l22 25l28 31c23.333 26 45.333 55.333 66 88c22.667 -63.333 58.667 -114.333 108 -153c-34.667 -22.667 -56.667 -47.334 -66 -74.001s-14 -78 -14 -154c0 -204.667 -29.333 -390.667 -88 -558c35.333 -85.333 53 -154.333 53 -207
c0 -80.667 -22.167 -138.667 -66.5 -174s-117.5 -53 -219.5 -53c-42 0 -82.667 1.66699 -122 5l-57 5c-6.66699 0.666992 -21.334 1.66699 -44.001 3zM662.002 143.001l11.999 -0.000976562c52 0 91.667 5.66699 119 17c-10.667 32.667 -25 60.334 -43 83.001
c-29.333 -42 -58.666 -75.333 -87.999 -100z" />
    <glyph glyph-name=".notdef" horiz-adv-x="257" 
 />
    <glyph glyph-name="space" unicode=" " horiz-adv-x="585" 
 />
    <glyph glyph-name="sf266.008" unicode="!" horiz-adv-x="430" 
d="M70 1060l290 88l-86 -958h-122zM108 -63c3.33301 4.66699 9.33301 12.501 18 23.501l28 35l29 34.5c9.33301 10.667 16 18 20 22c5.33301 6.66699 10 9.83398 14 9.50098s8 -2.16602 12 -5.49902c24 -20.667 48.167 -40.334 72.5 -59.001s44.5 -36.334 60.5 -53.001
c3.33301 -3.33301 4.66602 -6.5 3.99902 -9.5s-2.66699 -6.5 -6 -10.5c-14.667 -21.333 -30 -41.666 -46 -60.999s-31.667 -39.333 -47 -60c-6.66699 -12 -15.667 -14.333 -27 -7c-8.66699 4.66699 -19.5 12 -32.5 22s-26 20.667 -39 32s-25.167 22.5 -36.5 33.5
s-19.666 20.167 -24.999 27.5c-4 5.33301 -5.66699 9.66602 -5 12.999s2.66699 7.66602 6 12.999z" />
    <glyph glyph-name="sf266.001" unicode="&#x22;" horiz-adv-x="542" 
d="M289 1403c25.333 4.66699 50.5 6.83301 75.5 6.5s50.833 -0.5 77.5 -0.5l-26 -359l-103 16zM100 1395c8.66699 1.33301 19.5 2.5 32.5 3.5s26.667 1.83301 41 2.5s28.5 1.16699 42.5 1.5s26.333 0.5 37 0.5l-26 -340c-30 -7.33301 -53 -12.333 -69 -15s-25.667 -4 -29 -4
c-0.666992 0 -1 0.333008 -1 1c-2 17.333 -3.83301 35.5 -5.5 54.5s-3.5 41.667 -5.5 68l-7 94z" />
    <glyph glyph-name="sf264.002.24428116" unicode="#" horiz-adv-x="1422" 
d="M526 295l5 -5h294l5 5l26 290l-5 5h-296l-5 -5zM369 290l5 5l26 290l-5 5h-325v150h338l5 5l30 330l149 -14l-29 -316l5 -5h296l5 5l31 336l148 -13l-27 -323l5 -5h315v-150h-332l-5 -5l-22 -290l5 -5h354v-148h-368l-5 -5l-31 -343l-151 14l31 329l-5 5h-295l-5 -5
l-32 -352l-149 14l30 338l-6 5h-285v148h299z" />
    <glyph glyph-name="sf263.001" unicode="$" horiz-adv-x="890" 
d="M388 1165h126.004v-107c14.667 -3.33301 29 -7.33301 43 -12c38 -13.333 72.5 -31.833 103.5 -55.5s57.833 -51.834 80.5 -84.501s38.667 -68.667 48 -108c5.33301 -21.333 8.5 -41.333 9.5 -60s1.5 -37.334 1.5 -56.001h-161v19c0 27.333 -5.16699 53.333 -15.5 78
s-24.333 46.5 -42 65.5s-38.834 33.833 -63.501 44.5l-4 2v-384l28 -14c26.667 -14 52.167 -29 76.5 -45s47.333 -33.167 69 -51.5s40.5 -38.666 56.5 -60.999s28.5 -47 37.5 -74s13.5 -56.5 13.5 -88.5c0 -46.667 -10 -88.834 -30 -126.501s-46.5 -69.834 -79.5 -96.501
s-70.5 -47 -112.5 -61c-20 -6.66699 -39.667 -11.667 -59 -15v-88h-126v87c-16.667 2.66699 -33.334 6.66699 -50.001 12c-34.667 10.667 -66.667 26 -96 46s-55.333 44.167 -78 72.5s-40 59.5 -52 93.5l-8 22.5c-2.66699 7.66699 -5 17.334 -7 29.001
s-3.66699 25.834 -5 42.501s-2 37.334 -2 62.001h158v-17c0 -20.667 4.66699 -43.167 14 -67.5s22.666 -46.666 39.999 -66.999s38.666 -37.5 63.999 -51.5c6.66699 -4 14 -7.33301 22 -10v362l-110 60c-24.667 12.667 -48.5 28.667 -71.5 48s-43.167 40.666 -60.5 63.999
s-31 48.5 -41 75.5s-15 54.833 -15 83.5c0 46 10 89.167 30 129.5s46.333 75.5 79 105.5s70 53.667 112 71c25.333 10.667 51 18 77 22v104zM376.004 893c-21.333 -8 -41.499 -19.001 -60.499 -33.001s-34.5 -30.5 -46.5 -49.5s-18 -39.5 -18 -61.5
c0 -25.333 13.333 -54.666 40 -87.999c21.333 -26 53.666 -54.333 96.999 -85v321c-4 -0.666992 -8 -2 -12 -4zM551.005 52.999c15.333 8 28.6689 18.167 40.002 30.5s20.166 26.166 26.499 41.499s9.5 32.666 9.5 51.999c0 27.333 -5.83301 50.333 -17.5 69
s-27.167 37.334 -46.5 56.001h-1c-3.33301 2.66699 -8.33301 6.33398 -15 11.001c-6 4 -17 10.667 -33 20v-296c13.333 4 25.666 9.33301 36.999 16z" />
    <glyph glyph-name="sf257" unicode="%" horiz-adv-x="1257" 
d="M897 -15c0.666992 -15.333 3.66992 -29.501 9.00293 -42.501s12.666 -24.5 21.999 -34.5s20.333 -17.833 33 -23.5s27 -8.5 43 -8.5c13.333 0 26.333 2.33301 39 7s24 11.334 34 20.001s18.5 18.834 25.5 30.501s11.167 24.167 12.5 37.5v70c0 14 0.166992 28 0.5 42
s0.5 28 0.5 42v24c0 8.66699 -0.166992 17.167 -0.5 25.5s-0.5 16.5 -0.5 24.5v22v62c-0.666992 12.667 -3.5 24.667 -8.5 36s-11.833 21.333 -20.5 30s-18.5 16 -29.5 22s-22.833 10 -35.5 12c-2.66699 0 -5.16699 0.166992 -7.5 0.5s-4.83301 0.5 -7.5 0.5
c-14.667 0 -28.5 -2.66699 -41.5 -8s-24.333 -12.666 -34 -21.999s-17.334 -20.333 -23.001 -33s-8.83398 -26.334 -9.50098 -41.001c-0.666992 -14 -1.16699 -29.333 -1.5 -46s-0.5 -34.334 -0.5 -53.001v-26v-28v-29v-26c0.666992 -15.333 1 -30.333 1 -45v-41v-1z
M804.003 69.999c0 36 0.166992 72.667 0.5 110s0.833008 74.333 1.5 111c2 25.333 8.83301 49.333 20.5 72s26.5 42.5 44.5 59.5s38.5 30.333 61.5 40s47.167 14.5 72.5 14.5c28.667 0 55.334 -5.5 80.001 -16.5s46 -25.833 64 -44.5s32.167 -40.667 42.5 -66
s15.5 -52 15.5 -80v-154v-30.5v-29.5v-86c-2 -26.667 -8.83301 -51.334 -20.5 -74.001s-26.834 -42.167 -45.501 -58.5s-40 -29.166 -64 -38.499s-48.667 -14 -74 -14c-27.333 0 -53 5.16699 -77 15.5s-45 24.5 -63 42.5s-32.333 39.167 -43 63.5s-16 50.5 -16 78.5v85z
M143.003 670.999c0.666992 -15.333 3.66992 -29.501 9.00293 -42.501s12.666 -24.5 21.999 -34.5s20.333 -17.833 33 -23.5s27 -8.5 43 -8.5c13.333 0 26.333 2.33301 39 7s24 11.334 34 20.001s18.5 18.834 25.5 30.501s11.167 24.167 12.5 37.5v70
c0 14 0.166992 28 0.5 42s0.5 28 0.5 42v24c0 8.66699 -0.166992 17.167 -0.5 25.5s-0.5 16.5 -0.5 24.5v22v62c-0.666992 12.667 -3.5 24.667 -8.5 36s-11.833 21.333 -20.5 30s-18.5 16 -29.5 22s-22.833 10 -35.5 12c-2.66699 0 -5.16699 0.166992 -7.5 0.5
s-4.83301 0.5 -7.5 0.5c-14.667 0 -28.5 -2.66699 -41.5 -8s-24.333 -12.666 -34 -21.999s-17.334 -20.333 -23.001 -33s-8.83398 -26.334 -9.50098 -41.001c-0.666992 -14 -1.16699 -29.333 -1.5 -46s-0.5 -34.334 -0.5 -53.001v-26v-28v-29v-26
c0.666992 -15.333 1 -30.333 1 -45v-41v-1zM50.0059 755.998c0 36 0.166992 72.667 0.5 110s0.833008 74.333 1.5 111c2 25.333 8.83301 49.333 20.5 72s26.5 42.5 44.5 59.5s38.5 30.333 61.5 40s47.167 14.5 72.5 14.5c28.667 0 55.334 -5.5 80.001 -16.5
s46 -25.833 64 -44.5s32.167 -40.667 42.5 -66s15.5 -52 15.5 -80v-154v-30.5v-29.5v-86c-2 -26.667 -8.83301 -51.334 -20.5 -74.001s-26.834 -42.167 -45.501 -58.5s-40 -29.166 -64 -38.499s-48.667 -14 -74 -14c-27.333 0 -53 5.16699 -77 15.5s-45 24.5 -63 42.5
s-32.333 39.167 -43 63.5s-16 50.5 -16 78.5v85zM326.006 -216.002l-131 -1l733 1373l129 1z" />
    <glyph glyph-name="three.001" unicode="&#x26;" horiz-adv-x="905" 
d="M416 881c-18 0 -34.167 -3.49707 -48.5 -10.4971s-26.5 -16.333 -36.5 -28s-17.833 -25.334 -23.5 -41.001s-8.5 -31.834 -8.5 -48.501c1.33301 -21.333 5.66602 -41.5 12.999 -60.5s16.666 -37.167 27.999 -54.5s23.833 -33.666 37.5 -48.999l40.5 -44l8 -1
c28.667 28.667 53.334 61.167 74.001 97.5s31.334 75.166 32.001 116.499c0 16.667 -2.66699 32.5 -8 47.5s-13 28.167 -23 39.5s-22.167 20.166 -36.5 26.499s-30.5 9.5 -48.5 9.5zM394 350.003c-23.333 -11.333 -44.668 -26.833 -64.001 -46.5s-36 -41.5 -50 -65.5
s-25.167 -49 -33.5 -75s-12.833 -51.333 -13.5 -76c0 -24 4 -44.833 12 -62.5s18.833 -32.167 32.5 -43.5s29.834 -19.666 48.501 -24.999s38.667 -8 60 -8c22.667 0 45.167 2.66699 67.5 8s43.833 13.166 64.5 23.499s39.5 23 56.5 38s31.167 32.167 42.5 51.5v6l-41.5 52
l-40.5 52l-67 85l-68 84zM687.998 759.003c-1.33301 -28.667 -6.99609 -56 -16.9961 -82s-22.5 -51 -37.5 -75s-31.667 -47.167 -50 -69.5l-55.5 -65.5c-2.66699 -2.66699 -5 -5.16699 -7 -7.5s-4.33301 -4.83301 -7 -7.5v-7l41.5 -53l41.5 -54l54.5 -69.5l54.5 -69.5h8
l33 49.5l32 49.5l29 44l30 44l4 -2c7.33301 -2 16.166 -4.66699 26.499 -8s18.666 -6.16602 24.999 -8.49902s10.166 -3.5 11.499 -3.5l-143 -255v-5c7.33301 -11.333 15.333 -22.5 24 -33.5l26 -33.5l28.5 -37c9.66699 -12 18.5 -24.667 26.5 -38
c-5.33301 -12 -10.333 -23.833 -15 -35.5l-15 -36.5l-16 -38.5c-4.66699 -11.667 -10 -24.167 -16 -37.5l-40 52l-40.5 55c-13.667 18 -27.834 35.667 -42.501 53h-8c-26 -36 -56.667 -69.667 -92 -101s-75 -55 -119 -71c-32.667 -11.333 -64.667 -17 -96 -17
c-38.667 0 -76 7.5 -112 22.5s-66.667 37.833 -92 68.5c-25.333 30 -45.166 62.667 -59.499 98s-21.5 72.333 -21.5 111c0 17.333 2 36 6 56c12 60.667 36.5 116 73.5 166s81.5 92 133.5 126v8c-21.333 18.667 -41.833 39.5 -61.5 62.5s-37 47.5 -52 73.5
s-27 53.167 -36 81.5s-13.5 57.5 -13.5 87.5c0 15.333 1.33301 30.666 4 45.999c5.33301 32.667 15.5 64.667 30.5 96s34 59.166 57 83.499s49.5 44 79.5 59s62.667 23.167 98 24.5h1c5.33301 1.33301 10.333 2 15 2h16c35.333 0 68.5 -8 99.5 -24s58.167 -37 81.5 -63
s41.666 -55.5 54.999 -88.5s20 -66.5 20 -100.5v-11c0 -3.33301 -0.333008 -6.66602 -1 -9.99902v-1z" />
    <glyph glyph-name="sf266.003" unicode="'" horiz-adv-x="353" 
d="M100 1397c25.333 5.33301 50.833 7.5 76.5 6.5s51.167 -1.5 76.5 -1.5l-26 -358l-102 16z" />
    <glyph glyph-name="sf270.005" unicode="(" horiz-adv-x="602" 
d="M495 -798c-150.667 151.333 -264.167 317 -340.5 497s-111.833 378.333 -106.5 595c4.66699 199.333 42.667 381.833 114 547.5s182.333 317.5 333 455.5c11.333 9.33301 22 14.5 32 15.5s18 -1 24 -6s9.33301 -12.5 10 -22.5s-2.66602 -21.333 -9.99902 -34
c-56 -62.667 -104.667 -132.167 -146 -208.5s-75.5 -156.833 -102.5 -241.5s-46.833 -172 -59.5 -262s-18.334 -179.667 -17.001 -269c1.33301 -88.667 7.5 -177 18.5 -265s28.833 -174.5 53.5 -259.5s57.167 -168 97.5 -249s90.5 -158.833 150.5 -233.5
c10 -12.667 15.167 -24.834 15.5 -36.501s-2.5 -21 -8.5 -28s-14.167 -10.667 -24.5 -11s-21.5 4.83398 -33.5 15.501z" />
    <glyph glyph-name="sf270.008" unicode=")" horiz-adv-x="602" 
d="M108 -798c-12 -10.667 -23.3311 -15.835 -33.998 -15.502s-19 4.16602 -25 11.499s-8.66699 16.833 -8 28.5s6 23.5 16 35.5c60 75.333 110.167 153.5 150.5 234.5s72.833 164 97.5 249s42.5 171.333 53.5 259s17.167 175.834 18.5 264.501
c0.666992 90.667 -5.33301 180.834 -18 270.501s-32.5 176.667 -59.5 261s-61 164.5 -102 240.5s-89.5 145.667 -145.5 209c-8 12.667 -11.833 24 -11.5 34s3.5 17.5 9.5 22.5s14.167 7 24.5 6s21.5 -5.83301 33.5 -14.5c75.333 -69.333 140.666 -141.833 195.999 -217.5
s101.166 -155.167 137.499 -238.5s63.833 -170.5 82.5 -261.5s29 -186.5 31 -286.5c4.66699 -216 -31 -414.167 -107 -594.5s-189.333 -346.166 -340 -497.499z" />
    <glyph glyph-name="sf258.001" unicode="*" horiz-adv-x="776" 
d="M587 690c-30 6 -59.1699 11.499 -87.5029 16.499l-87.5 15.5l71.5 -42c23.667 -14 46.834 -29.333 69.501 -46c30.667 -25.333 51 -49 61 -71s11.667 -38 5 -48s-20.167 -12 -40.5 -6s-45.5 23.667 -75.5 53c-18.667 21.333 -36.834 45.666 -54.501 72.999l-50.5 79
l20.5 -82.5c7 -27 13.167 -54.5 18.5 -82.5c4.66699 -35.333 2.66699 -64.833 -6 -88.5s-19 -37.834 -31 -42.501s-23.5 1.83301 -34.5 19.5s-16.5 50.167 -16.5 97.5c6.66699 32 12.667 62.167 18 90.5l17 88.5l-46 -75c-14.667 -24.667 -30.334 -49.667 -47.001 -75
c-15.333 -20 -30.666 -35.5 -45.999 -46.5s-29.166 -18 -41.499 -21s-22.333 -2.5 -30 1.5s-11.5 11.333 -11.5 22c0 10 4.16699 22.833 12.5 38.5s22.5 34.167 42.5 55.5c26 20 52.167 39 78.5 57l79.5 53l-99.5 -26c-35.667 -9.33301 -69.5 -15.333 -101.5 -18
c-36.667 0.666992 -63.167 5.83398 -79.5 15.501s-23.833 20 -22.5 31s11 21.167 29 30.5s43.667 14 77 14c2.66699 0 6.83398 -0.166992 12.501 -0.5s15.334 -1.5 29.001 -3.5s32.834 -5.33301 57.501 -10s58 -11.334 100 -20.001l-76 44.5l-75 46.5
c-26.667 22.667 -45.5 42.5 -56.5 59.5s-16.5 31.167 -16.5 42.5s4.66699 18.833 14 22.5s21.333 3 36 -2s31.167 -15 49.5 -30s36.5 -35.5 54.5 -61.5l14.5 -21l22.5 -32l22.5 -32l15.5 -22c-9.33301 34.667 -16.833 63.5 -22.5 86.5s-9.83398 41.833 -12.501 56.5
s-4.33398 26 -5.00098 34s-1 14.667 -1 20c0 34.667 4.5 60.167 13.5 76.5s19 23.833 30 22.5s21.333 -11.166 31 -29.499s14.834 -44.833 15.501 -79.5c-0.666992 -3.33301 -1.33398 -9 -2.00098 -17s-2.16699 -19.167 -4.5 -33.5s-5.66602 -32.833 -9.99902 -55.5
s-10.5 -50.334 -18.5 -83.001l46.5 73l44.5 71c26.667 32.667 51 53.834 73 63.501s37.667 10.834 47 3.50098s10.833 -21.666 4.5 -42.999s-24.5 -46.333 -54.5 -75l-74.5 -55c-24.333 -17.333 -49.166 -33.333 -74.499 -48l88 21c28 6.66699 56 13 84 19
c2 0 4.5 0.166992 7.5 0.5s6.5 0.5 10.5 0.5c8.66699 0 19.167 -0.666992 31.5 -2s24.166 -3.5 35.499 -6.5s21 -7.16699 29 -12.5s12 -12 12 -20c0 -9.33301 -5 -17.333 -15 -24s-21.667 -12 -35 -16s-26.5 -6.83301 -39.5 -8.5s-22.833 -2.16699 -29.5 -1.5z" />
    <glyph glyph-name="sf258.001" unicode="&#x66d;" horiz-adv-x="776" 
d="M587 690c-30 6 -59.1699 11.499 -87.5029 16.499l-87.5 15.5l71.5 -42c23.667 -14 46.834 -29.333 69.501 -46c30.667 -25.333 51 -49 61 -71s11.667 -38 5 -48s-20.167 -12 -40.5 -6s-45.5 23.667 -75.5 53c-18.667 21.333 -36.834 45.666 -54.501 72.999l-50.5 79
l20.5 -82.5c7 -27 13.167 -54.5 18.5 -82.5c4.66699 -35.333 2.66699 -64.833 -6 -88.5s-19 -37.834 -31 -42.501s-23.5 1.83301 -34.5 19.5s-16.5 50.167 -16.5 97.5c6.66699 32 12.667 62.167 18 90.5l17 88.5l-46 -75c-14.667 -24.667 -30.334 -49.667 -47.001 -75
c-15.333 -20 -30.666 -35.5 -45.999 -46.5s-29.166 -18 -41.499 -21s-22.333 -2.5 -30 1.5s-11.5 11.333 -11.5 22c0 10 4.16699 22.833 12.5 38.5s22.5 34.167 42.5 55.5c26 20 52.167 39 78.5 57l79.5 53l-99.5 -26c-35.667 -9.33301 -69.5 -15.333 -101.5 -18
c-36.667 0.666992 -63.167 5.83398 -79.5 15.501s-23.833 20 -22.5 31s11 21.167 29 30.5s43.667 14 77 14c2.66699 0 6.83398 -0.166992 12.501 -0.5s15.334 -1.5 29.001 -3.5s32.834 -5.33301 57.501 -10s58 -11.334 100 -20.001l-76 44.5l-75 46.5
c-26.667 22.667 -45.5 42.5 -56.5 59.5s-16.5 31.167 -16.5 42.5s4.66699 18.833 14 22.5s21.333 3 36 -2s31.167 -15 49.5 -30s36.5 -35.5 54.5 -61.5l14.5 -21l22.5 -32l22.5 -32l15.5 -22c-9.33301 34.667 -16.833 63.5 -22.5 86.5s-9.83398 41.833 -12.501 56.5
s-4.33398 26 -5.00098 34s-1 14.667 -1 20c0 34.667 4.5 60.167 13.5 76.5s19 23.833 30 22.5s21.333 -11.166 31 -29.499s14.834 -44.833 15.501 -79.5c-0.666992 -3.33301 -1.33398 -9 -2.00098 -17s-2.16699 -19.167 -4.5 -33.5s-5.66602 -32.833 -9.99902 -55.5
s-10.5 -50.334 -18.5 -83.001l46.5 73l44.5 71c26.667 32.667 51 53.834 73 63.501s37.667 10.834 47 3.50098s10.833 -21.666 4.5 -42.999s-24.5 -46.333 -54.5 -75l-74.5 -55c-24.333 -17.333 -49.166 -33.333 -74.499 -48l88 21c28 6.66699 56 13 84 19
c2 0 4.5 0.166992 7.5 0.5s6.5 0.5 10.5 0.5c8.66699 0 19.167 -0.666992 31.5 -2s24.166 -3.5 35.499 -6.5s21 -7.16699 29 -12.5s12 -12 12 -20c0 -9.33301 -5 -17.333 -15 -24s-21.667 -12 -35 -16s-26.5 -6.83301 -39.5 -8.5s-22.833 -2.16699 -29.5 -1.5z" />
    <glyph glyph-name="sf271.001" unicode="+" horiz-adv-x="1102" 
d="M501 259h-371v100h371v379h99v-379h372v-100h-372v-361h-99v361z" />
    <glyph glyph-name="sf273" unicode="," horiz-adv-x="421" 
d="M346 10c7.33301 -35.333 5.99707 -71.835 -4.00293 -109.502s-25.333 -74.5 -46 -110.5s-45 -70.333 -73 -103s-56.333 -62 -85 -88c-9.33301 -6.66699 -18.333 -12 -27 -16s-15 -5.33301 -19 -4c-4.66699 0.666992 -6.16699 4 -4.5 10s8.16699 16 19.5 30
c14.667 18.667 29.667 36.834 45 54.501s29.5 35.834 42.5 54.501s24.5 38.167 34.5 58.5s17 42.833 21 67.5c0.666992 9.33301 0.833984 19.833 0.500977 31.5s-2.16602 22.834 -5.49902 33.501s-8.33301 19.5 -15 26.5s-16 10.5 -28 10.5c-6 -4 -12.5 -11.5 -19.5 -22.5
l-21.5 -34.5c-7.33301 -12 -14.833 -22.667 -22.5 -32s-14.834 -14 -21.501 -14c-7.33301 0.666992 -13.833 5.33398 -19.5 14.001s-10.667 18.5 -15 29.5s-7.5 22.167 -9.5 33.5s-2.66699 20 -2 26c1.33301 15.333 8 31.666 20 48.999l40 57c18 20 37.833 33.167 59.5 39.5
s42.834 6.66602 63.501 0.999023s39.334 -16.5 56.001 -32.5s28.667 -36 36 -60z" />
    <glyph glyph-name="sf268.002" unicode="-" horiz-adv-x="627" 
d="M577 363v-104h-527v104h527z" />
    <glyph glyph-name="sf256.001" unicode="." horiz-adv-x="316" 
d="M32 -63c3.33301 4.66699 9.33301 12.501 18 23.501l28 35l29 34.5c9.33301 10.667 16 18 20 22c5.33301 6.66699 10 9.83398 14 9.50098s8 -2.16602 12 -5.49902c24 -20.667 48.167 -40.334 72.5 -59.001s44.5 -36.334 60.5 -53.001
c3.33301 -3.33301 4.66602 -6.5 3.99902 -9.5s-2.66699 -6.5 -6 -10.5c-14.667 -21.333 -30 -41.666 -46 -60.999s-31.667 -39.333 -47 -60c-6.66699 -12 -15.667 -14.333 -27 -7c-8.66699 4.66699 -19.5 12 -32.5 22s-26 20.667 -39 32s-25.167 22.5 -36.5 33.5
s-19.666 20.167 -24.999 27.5c-4 5.33301 -5.66699 9.66602 -5 12.999s2.66699 7.66602 6 12.999z" />
    <glyph glyph-name="sf273.001" unicode="/" horiz-adv-x="862" 
d="M131 -225l-131 -1l733 1373l129 1z" />
    <glyph glyph-name="zero" unicode="0" horiz-adv-x="1019" 
d="M100 236l0.00390625 104c0 37.333 0.166992 74.666 0.5 111.999l1 108.5c0.333008 35 0.5 66.167 0.5 93.5v69v34c1.33301 56 12.833 108.333 34.5 157s51 91 88 127s80 64.167 129 84.5s101.5 30.5 157.5 30.5c52.667 0 103 -10.333 151 -31s90.167 -48.667 126.5 -84
s65.5 -76.666 87.5 -123.999s33.667 -98 35 -152c0 -48.667 0.166992 -91.667 0.5 -129s0.666016 -71.333 0.999023 -102s0.666016 -59.5 0.999023 -86.5l1 -82c0.333008 -27.667 0.666016 -57.334 0.999023 -89.001s0.5 -67.5 0.5 -107.5
c-0.666992 -55.333 -12.334 -106.5 -35.001 -153.5s-52.667 -87.667 -90 -122s-80.5 -61.333 -129.5 -81s-99.833 -29.5 -152.5 -29.5c-56 0 -108.833 10.333 -158.5 31s-93 49.334 -130 86.001s-66.333 79.667 -88 129s-32.5 103 -32.5 161v46zM417.004 -15
c26 -12.667 56.3311 -18.998 90.998 -18.998c23.333 0 45.833 3.66699 67.5 11s41.834 17.666 60.501 30.999s34.834 29.333 48.501 48s24.167 39.334 31.5 62.001c2 8 3.83301 25.667 5.5 53s3.16699 60.166 4.5 98.499s2.33301 80.166 3 125.499s1 90.333 1 135
c0 33.333 -0.166992 65.5 -0.5 96.5s-1 59 -2 84s-2 46.167 -3 63.5s-2.16699 29 -3.5 35l-1 3l-357 -794c16 -13.333 34 -24.333 54 -33zM285.002 198.002c0 -20 2.00098 -38.333 6.00098 -55l353 782c-19.333 14 -39.666 25 -60.999 33c-22 8.66699 -45 13 -69 13
c-28 0 -55.667 -5.16699 -83 -15.5s-51.833 -24.666 -73.5 -42.999s-39.5 -39.833 -53.5 -64.5s-22 -51.334 -24 -80.001v-1c0 -8 0.166992 -23.5 0.5 -46.5s0.666016 -50.667 0.999023 -83s0.666016 -68 0.999023 -107l1 -118l1 -115.5
c0.333008 -37.333 0.5 -70.333 0.5 -99z" />
    <glyph glyph-name="one" unicode="1" horiz-adv-x="682" 
d="M180 856c0 61.333 0.333008 92.334 1 93.001l9 6l-1 -1c0 -0.666992 1 -0.333984 3 0.999023s3.66699 2.66602 5 3.99902c6 3.33301 11.833 7.16602 17.5 11.499s9.5 7.5 11.5 9.5c28 26.667 50.833 53.334 68.5 80.001s29.5 57.334 35.5 92.001h182l-2 -1369h-182v1063
l-10 10h-138z" />
    <glyph glyph-name="two" unicode="2" horiz-adv-x="1020" 
d="M859 542c-1.33301 -2.66699 -4.16699 -6.66797 -8.5 -12.001l-23.5 -28.5l-49 -57.5l-85.5 -97.5l-132.5 -149l-190 -212.5l7 -17l542 -6v-179l-819 2v191l582 642h1c15.333 17.333 27.333 37.333 36 60s13 45.667 13 69c0 30.667 -6.16699 59.334 -18.5 86.001
s-29 50 -50 70s-45 35.833 -72 47.5s-55.167 17.5 -84.5 17.5c-18 0 -34.5 -1.66699 -49.5 -5s-29 -8.16602 -42 -14.499s-25.5 -14.5 -37.5 -24.5s-24.333 -21.333 -37 -34c-11.333 -12.667 -20.666 -26.167 -27.999 -40.5s-13 -29 -17 -44s-6.66699 -30.167 -8 -45.5
s-2 -30.333 -2 -45l-181 -2c0 4.66699 -0.166992 7.5 -0.5 8.5s-0.5 3.83301 -0.5 8.5c0 58.667 9.83301 113.667 29.5 165s47.167 95.833 82.5 133.5s77.5 67.5 126.5 89.5s102.833 33.667 161.5 35c74.667 0 143.5 -17.667 206.5 -53s113.5 -84.666 151.5 -147.999h1
c19.333 -30 33.666 -62.833 42.999 -98.5s14 -71.834 14 -108.501c0 -37.333 -4.83301 -73.333 -14.5 -108s-25.167 -66.334 -46.5 -95.001z" />
    <glyph glyph-name="three" unicode="3" horiz-adv-x="1009" 
d="M100 196l0.00683594 9.99902c0 5.33301 0.333008 9 1 11l181 -1c0 -2.66699 -0.166992 -3.66699 -0.5 -3s-0.5 -0.333008 -0.5 -3c0 -31.333 5.5 -61.666 16.5 -90.999s26.333 -55.166 46 -77.499s43.167 -40.166 70.5 -53.499s57.666 -20 90.999 -20
c25.333 0 49.833 5.5 73.5 16.5s45.167 25.5 64.5 43.5s35.666 38.333 48.999 61s22.666 45.667 27.999 69c4.66699 19.333 7 40 7 62c0 30 -5.5 56.333 -16.5 79s-26 42.167 -45 58.5s-41.833 29.333 -68.5 39s-55.334 16.5 -86.001 20.5h-3
c-4.66699 0.666992 -9 1.16699 -13 1.5s-8 0.5 -12 0.5h-11v89c28.667 6 58.167 15.833 88.5 29.5s58 31 83 52s45.5 45.333 61.5 73s24 58.5 24 92.5c0 24.667 -4 49 -12 73s-19.333 45.5 -34 64.5s-32.834 34.333 -54.501 46s-45.834 17.5 -72.501 17.5
c-44 0 -81.667 -12.667 -113 -38s-53.666 -58 -66.999 -98c-6 -18 -10 -35.5 -12 -52.5s-3.33301 -33.167 -4 -48.5h-175v62c0 11.333 0.666992 22.666 2 33.999s3.33301 23.333 6 36c9.33301 44 25.666 84 48.999 120s51.666 66.5 84.999 91.5s70.5 44.333 111.5 58
s83.833 20.5 128.5 20.5c48.667 0 93.5 -8.16699 134.5 -24.5s76.5 -39.333 106.5 -69s53.5 -65 70.5 -106s25.5 -86.167 25.5 -135.5c0 -64 -13 -119.667 -39 -167s-63 -92 -111 -134l-3 -8v-1c25.333 -17.333 47.833 -35 67.5 -53s36.167 -37.833 49.5 -59.5
s23.5 -45.334 30.5 -71.001s10.5 -54.5 10.5 -86.5c0 -56 -10.5 -110.5 -31.5 -163.5s-50 -100.333 -87 -142s-80.333 -75 -130 -100s-103.167 -37.5 -160.5 -37.5c-51.333 0 -100.666 9.83301 -147.999 29.5s-89.333 46.5 -126 80.5s-66.334 73.833 -89.001 119.5
s-35 94.5 -37 146.5v37z" />
    <glyph glyph-name="four" unicode="4" horiz-adv-x="1004" 
d="M540 280l10 10l-2 642l-20 3l-229 -642l9 -13h232zM914 279v-154h-164l-11 -10v-332h-188l-1 333l-10 10h-440v167l346 858h293v-862l11 -10h164z" />
    <glyph glyph-name="five" unicode="5" horiz-adv-x="1014" 
d="M290 129c16.667 -48 43.3291 -86.8359 79.9961 -116.503s81.667 -44.5 135 -44.5c28 0 55.167 5.5 81.5 16.5s49.5 26.167 69.5 45.5s36.167 42 48.5 68s18.5 53.667 18.5 83c0 39.333 -0.5 70.833 -1.5 94.5s-2.16699 42.334 -3.5 56.001s-2.83301 23.667 -4.5 30
l-4.5 17.5h-1c-7.33301 20.667 -18 39.5 -32 56.5s-30.167 31.5 -48.5 43.5s-38.166 21.167 -59.499 27.5s-42.333 9.5 -63 9.5c-46.667 0 -90 -10.333 -130 -31s-72.667 -49.667 -98 -87h-173l1 745h732v-182l-540 1l-10 -10v-296l14 -9c34 15.333 67.167 28.333 99.5 39
s66.833 16 103.5 16c42.667 0 84.334 -6.66699 125.001 -20s78 -32 112 -56s63.833 -52.833 89.5 -86.5s45.167 -70.834 58.5 -111.501c9.33301 -28 15.833 -55 19.5 -81s5.5 -52.667 5.5 -80c0 -18 -0.666992 -36 -2 -54s-2.66602 -37.333 -3.99902 -58
c-3.33301 -52.667 -16.666 -101.667 -39.999 -147s-53.333 -84.666 -90 -117.999s-78.667 -59.5 -126 -78.5s-96.333 -28.5 -147 -28.5c-42 0 -83 5.66699 -123 17s-77 27.833 -111 49.5s-64.167 48.334 -90.5 80.001s-46.833 67.5 -61.5 107.5
c-5.33301 15.333 -9.83301 30.833 -13.5 46.5s-5.5 30.834 -5.5 45.501h190z" />
    <glyph glyph-name="six" unicode="6" horiz-adv-x="1024" 
d="M292 189c0 -31.333 5.66504 -60.5029 16.998 -87.5029s26.833 -50.5 46.5 -70.5s42.834 -35.833 69.501 -47.5s55.667 -17.5 87 -17.5c30.667 0 59.5 5.66699 86.5 17s50.5 27 70.5 47s35.833 43.333 47.5 70s17.5 55.334 17.5 86.001s-5.83301 59.334 -17.5 86.001
s-27.5 49.834 -47.5 69.501s-43.667 35 -71 46s-56.333 16.5 -87 16.5c-29.333 0 -57.166 -4.66699 -83.499 -14s-49.5 -22.833 -69.5 -40.5s-36 -39.5 -48 -65.5s-18 -55.667 -18 -89v-6zM104.998 170.997l-0.00683594 34.0088c0 15.333 -0.166992 32.5 -0.5 51.5
s-0.666016 39.5 -0.999023 61.5s-0.5 44.667 -0.5 68s-0.166992 46.166 -0.5 68.499s-0.666016 43.333 -0.999023 63s-0.666016 37 -0.999023 52s-0.5 26.5 -0.5 34.5c0 41.333 1 81 3 119s7 77 15 117c10 46 27.5 88.167 52.5 126.5s55.167 71.333 90.5 99
s74.833 49.167 118.5 64.5s88.5 23 134.5 23c60 0 115.167 -10.833 165.5 -32.5s93.666 -51.334 129.999 -89.001s64.5 -81.834 84.5 -132.501s30 -105.334 30 -164.001c0 -4.66699 -0.166992 -7.33398 -0.5 -8.00098s-0.5 -3.33398 -0.5 -8.00098l-185 1
c-0.666992 15.333 -1.5 30 -2.5 44s-3.16699 27.667 -6.5 41v1c-6.66699 24 -17 46.167 -31 66.5s-30.5 37.833 -49.5 52.5s-40.167 26 -63.5 34s-47.666 12 -72.999 12c-27.333 0 -54.166 -5.83301 -80.499 -17.5s-49.833 -27.334 -70.5 -47.001
s-37.167 -42.167 -49.5 -67.5s-18.5 -52 -18.5 -80c0 -21.333 -0.166992 -42.333 -0.5 -63s-0.5 -41 -0.5 -61v-123l17 -7c30 31.333 63.667 53.166 101 65.499s77 18.5 119 18.5c56.667 0 108.834 -10.5 156.501 -31.5s88.834 -49.667 123.501 -86s61.667 -79 81 -128
s29 -101.167 29 -156.5c0 -56.667 -10.333 -109.834 -31 -159.501s-49.334 -92.834 -86.001 -129.501s-79.667 -65.5 -129 -86.5s-102.666 -31.5 -159.999 -31.5c-41.333 0 -82.166 6.16699 -122.499 18.5s-77.5 29.833 -111.5 52.5s-64 50.167 -90 82.5
s-45.667 68.833 -59 109.5h-1c-7.33301 20.667 -12.833 41.334 -16.5 62.001s-6.16699 42.667 -7.5 66z" />
    <glyph glyph-name="seven" unicode="7" horiz-adv-x="949" 
d="M883 1138l-64 -198l-491 -1140h-210l520 1138l-9 14h-325l-9 -7l-19 -70h-176l1 263h782z" />
    <glyph glyph-name="eight" unicode="8" horiz-adv-x="1021" 
d="M500 389c-28 0 -54.8311 -4.33105 -80.498 -12.998s-48.167 -21.334 -67.5 -38.001s-34.666 -36.667 -45.999 -60s-17 -49.333 -17 -78v-13c1.33301 -32 7.66602 -61.333 18.999 -88s26.666 -49.667 45.999 -69s42.333 -34.5 69 -45.5s55.667 -16.5 87 -16.5
c32.667 0 62.667 6.16699 90 18.5s50.666 29.166 69.999 50.499s34.333 46 45 74s16 57.667 16 89c0 32 -5.83301 60 -17.5 84s-27.5 43.667 -47.5 59s-43.333 26.833 -70 34.5s-55 11.5 -85 11.5h-11zM290.002 766.002c0 -24 7.16602 -51.002 21.499 -81.002
s32.5 -58.5 54.5 -85.5s46.333 -49.667 73 -68s52.334 -27.5 77.001 -27.5h1c13.333 0 27.666 4.33301 42.999 13s30.833 19.834 46.5 33.501s30.667 29.334 45 47.001s27 35.5 38 53.5s19.833 35.333 26.5 52s10 31 10 43v1c0 29.333 -5.5 57.5 -16.5 84.5
s-26.167 50.833 -45.5 71.5s-42.166 37.167 -68.499 49.5s-54.833 18.5 -85.5 18.5c-27.333 0 -54.166 -5.16699 -80.499 -15.5s-49.833 -24.833 -70.5 -43.5s-37.334 -40.5 -50.001 -65.5s-19 -51.833 -19 -80.5zM100.001 192c0 26 2.16699 51.502 6.5 76.502
s12.5 48.833 24.5 71.5s28.5 44 49.5 64s48.167 38.333 81.5 55l1 18c-59.333 41.333 -101.333 84.666 -126 129.999s-37 94.666 -37 147.999c0 54.667 10.833 106.167 32.5 154.5s51 90.666 88 126.999s80 65 129 86s100.833 31.5 155.5 31.5c54 0 105.667 -10.333 155 -31
s92.833 -48.667 130.5 -84s67.667 -77.166 90 -125.499s33.5 -99.833 33.5 -154.5c0 -58.667 -14.833 -112.5 -44.5 -161.5s-68.5 -89.833 -116.5 -122.5l2 -18c51.333 -24.667 91.833 -57.667 121.5 -99s44.5 -92.333 44.5 -153c0 -58 -10 -112.667 -30 -164
s-48 -96 -84 -134s-79 -68.167 -129 -90.5s-104.667 -33.5 -164 -33.5c-55.333 0 -107.833 10.833 -157.5 32.5s-93.334 51 -131.001 88s-67.667 80.333 -90 130s-34.166 102.5 -35.499 158.5z" />
    <glyph glyph-name="nine" unicode="9" horiz-adv-x="1021" 
d="M731 748c0 30.667 -5.66699 59.5 -17 86.5s-26.833 50.667 -46.5 71s-43 36.5 -70 48.5s-56.167 18 -87.5 18c-30 0 -58.333 -5.83301 -85 -17.5s-50 -27.667 -70 -48s-35.833 -43.833 -47.5 -70.5s-17.5 -55 -17.5 -85c0 -31.333 5.66699 -60.5 17 -87.5
s27 -50.167 47 -69.5s43.333 -34.5 70 -45.5s55.667 -16.5 87 -16.5c30 0 58.333 4.66699 85 14s50 23 70 41s35.833 40 47.5 66s17.5 55.667 17.5 89v6zM919 549c0 -16 0.167969 -31.501 0.500977 -46.501s0.5 -29.833 0.5 -44.5c0 -17.333 0.166992 -33.833 0.5 -49.5
s0.5 -29.5 0.5 -41.5v-68c-0.666992 -34.667 -1.66699 -68.334 -3 -101.001s-5.66602 -66.667 -12.999 -102c-10 -46 -27.5 -88.167 -52.5 -126.5s-55.167 -71.333 -90.5 -99s-74.666 -49.167 -117.999 -64.5s-88.333 -23 -135 -23c-60 0 -115 11 -165 33
s-93.167 52 -129.5 90s-64.5 82.667 -84.5 134s-30 106 -30 164v12l184 -1c0.666992 -13.333 1.5 -26.666 2.5 -39.999s3.5 -28 7.5 -44v-1c6.66699 -24 17.167 -46 31.5 -66s31 -37.333 50 -52s40 -26 63 -34s47.167 -12 72.5 -12c27.333 0 54.166 5.83301 80.499 17.5
s49.666 27.167 69.999 46.5s36.833 41.833 49.5 67.5s19 52.5 19 80.5c0.666992 21.333 1 42 1 62v61v61c0 20 0.333008 40.667 1 62l-17 7c-29.333 -30 -62.5 -51.5 -99.5 -64.5s-75.5 -19.5 -115.5 -19.5h-5c-56 0 -107.667 10.333 -155 31s-88.5 48.834 -123.5 84.501
s-62.333 77.5 -82 125.5s-29.5 99.667 -29.5 155v6c0 56.667 10.5 109.667 31.5 159s49.667 92.333 86 129s79.166 65.667 128.499 87s102.333 32 159 32c42.667 0 84 -6.16699 124 -18.5s77 -30 111 -53s64 -50.833 90 -83.5s46.333 -69 61 -109
c7.33301 -20 12.5 -40.5 15.5 -61.5s5.5 -42.833 7.5 -65.5v-216z" />
    <glyph glyph-name="sf272" unicode=":" horiz-adv-x="416" 
d="M77 -56c4 4.66699 10.499 12.668 19.499 24.001l29 36l30 36c9.66699 11.333 16.5 19 20.5 23c4.66699 6.66699 9.33398 10 14.001 10s9 -2 13 -6c24.667 -21.333 49.667 -41.666 75 -60.999s46.333 -37.666 63 -54.999c4 -4 5.5 -7.33301 4.5 -10
s-3.16699 -6.33398 -6.5 -11.001c-15.333 -22 -31.166 -43 -47.499 -63l-48.5 -62c-7.33301 -13.333 -16.666 -16 -27.999 -8c-9.33301 5.33301 -20.833 13.166 -34.5 23.499s-27.334 21.333 -41.001 33s-26.334 23.167 -38.001 34.5s-20.167 21 -25.5 29
c-4 5.33301 -5.66699 9.66602 -5 12.999s2.66699 8 6 14zM76.999 545.001c4 4.66699 10.5 12.665 19.5 23.998l29 36l30 36c9.66699 11.333 16.5 19 20.5 23c5.33301 6.66699 10.166 9.83398 14.499 9.50098s8.5 -1.83301 12.5 -4.5c24.667 -22 49.667 -42.667 75 -62
s46.333 -37.666 63 -54.999c4 -3.33301 5.5 -6.66602 4.5 -9.99902s-3.16699 -7 -6.5 -11c-15.333 -22.667 -31.166 -44 -47.499 -64l-48.5 -62c-7.33301 -14 -16.666 -16.333 -27.999 -7c-9.33301 4.66699 -20.833 12.167 -34.5 22.5s-27.5 21.5 -41.5 33.5
s-26.833 23.667 -38.5 35s-19.834 20.666 -24.501 27.999c-4 6 -5.66699 10.833 -5 14.5s2.66699 8.16699 6 13.5z" />
    <glyph glyph-name="sf333.001" unicode=";" horiz-adv-x="433" 
d="M338 397c-3.33301 -4.66699 -9.66992 -12.833 -19.0029 -24.5l-29.5 -36.5l-29.5 -35.5c-9.33301 -11 -16 -18.5 -20 -22.5c-6 -7.33301 -11 -10.833 -15 -10.5s-8 2.5 -12 6.5l-76 61c-25.333 19.333 -46.333 37.666 -63 54.999c-6 6 -5 13 3 21
c14.667 22 30.334 43 47.001 63s33 41 49 63c7.33301 12 16.666 14.333 27.999 7c8.66699 -4.66699 19.834 -12.167 33.501 -22.5s27.334 -21.5 41.001 -33.5s26.334 -23.833 38.001 -35.5s20.167 -21.167 25.5 -28.5c4 -5.33301 5.83301 -9.66602 5.5 -12.999
s-2.5 -8 -6.5 -14zM348.996 54.001c12.667 -35.333 16.3369 -73.001 11.0039 -113.001s-16.5 -79.833 -33.5 -119.5s-37.833 -78.167 -62.5 -115.5s-50 -71.333 -76 -102c-8.66699 -8 -17.167 -14.5 -25.5 -19.5s-14.833 -7.5 -19.5 -7.5s-6.83398 3.16699 -6.50098 9.5
s5.83301 17.5 16.5 33.5l40 61.5c13.333 20.333 25.666 41 36.999 62s20.666 42.667 27.999 65s11.666 46.166 12.999 71.499c0 9.33301 -1 20.166 -3 32.499s-5.33301 23.833 -10 34.5s-11 19.334 -19 26.001s-18 9 -30 7c-6 -5.33301 -12 -14.166 -18 -26.499l-18 -38
c-6 -13 -12.333 -24.667 -19 -35s-13.667 -16.166 -21 -17.499c-6.66699 0 -13.5 4 -20.5 12s-13.5 17.5 -19.5 28.5s-10.833 22.167 -14.5 33.5s-5.5 20 -5.5 26c0 16 5 33.833 15 53.5l33 64.5c16.667 22.667 36.167 38.5 58.5 47.5s44.5 12 66.5 9s42.333 -11.667 61 -26
s32.667 -33.5 42 -57.5z" />
    <glyph glyph-name="sf261.001" unicode="&#x3c;" horiz-adv-x="795" 
d="M743 -1l-743 461l741 461v-156l-490 -300l494 -303z" />
    <glyph glyph-name="sf264.001" unicode="=" horiz-adv-x="917" 
d="M837 241v-105h-757v105h757zM837 539v-106h-757v106h757z" />
    <glyph glyph-name="sf261.002" unicode="&#x3e;" horiz-adv-x="795" 
d="M49 161l494 303l-490 300v156l741 -461l-743 -461z" />
    <glyph glyph-name="sf308.001" unicode="?" horiz-adv-x="705" 
d="M267 846c-0.666992 -9.33301 -1.16992 -19 -1.50293 -29s-0.5 -20 -0.5 -30c0 -20 -1 -39.333 -3 -58c-16 0.666992 -32.667 0.833984 -50 0.500977s-34.5 -0.833008 -51.5 -1.5s-33.333 -1.16699 -49 -1.5s-29.5 -0.166016 -41.5 0.500977c0.666992 0.666992 1 5 1 13
v14v28c0 28 1 56.167 3 84.5s9 54.5 21 78.5c14 34 33.833 62.667 59.5 86s54.5 41.5 86.5 54.5s65.667 20.5 101 22.5s69.666 -1.33301 102.999 -10c38.667 -10 71.834 -25.5 99.501 -46.5s49.834 -45.333 66.501 -73s28.167 -58.167 34.5 -91.5s8 -67.166 5 -101.499
s-10.5 -68.666 -22.5 -102.999s-28 -66.5 -48 -96.5c-21.333 -36.667 -44.166 -72.334 -68.499 -107.001s-47.166 -69.834 -68.499 -105.501s-40.166 -72.667 -56.499 -111s-27.166 -79.5 -32.499 -123.5c-0.666992 0.666992 -4.33398 1 -11.001 1h-12h-25h-50
c-16.667 0 -32.834 0.5 -48.501 1.5s-30.167 3.16699 -43.5 6.5c0 40 6 79.5 18 118.5s29 75.5 51 109.5l85 109c30 37.333 56.5 76.166 79.5 116.499s40.5 82.5 52.5 126.5s13.333 90.333 4 139c-8 21.333 -21.5 36.333 -40.5 45s-38.667 11.667 -59 9
s-39 -10.334 -56 -23.001s-27.5 -30 -31.5 -52zM147.997 -90c-4 4.66699 -5.50195 8.83398 -4.50195 12.501s3.16699 8.5 6.5 14.5l19.5 23.5l28.5 35l29 35c9.33301 11 16 18.5 20 22.5c5.33301 7.33301 10 10.833 14 10.5s8 -2.16602 12 -5.49902
c24.667 -22 49.5 -42.333 74.5 -61s45.5 -36.334 61.5 -53.001c3.33301 -4 4.66602 -7.5 3.99902 -10.5s-2.33398 -6.5 -5.00098 -10.5c-15.333 -22 -31.166 -42.833 -47.499 -62.5l-48.5 -60.5c-6.66699 -12.667 -15.667 -15 -27 -7
c-9.33301 4.66699 -20.666 12 -33.999 22s-26.666 20.667 -39.999 32s-25.666 22.666 -36.999 33.999s-20 21 -26 29z" />
    <glyph glyph-name="sf259.001" unicode="@" horiz-adv-x="1325" 
d="M753 254c1.33301 24.667 2.16895 49.166 2.50195 73.499s0.5 49.5 0.5 75.5c0 22 -0.166992 44 -0.5 66s-0.5 43.667 -0.5 65v44c0 8 -0.166992 15.667 -0.5 23s-0.5 15 -0.5 23v2c-2 16.667 -6.66699 31.167 -14 43.5s-16.5 22.5 -27.5 30.5s-23.167 14.167 -36.5 18.5
s-27 6.5 -41 6.5c-14.667 0 -29.167 -2.33301 -43.5 -7s-27.166 -11.5 -38.499 -20.5s-20.5 -20.333 -27.5 -34s-10.833 -29.167 -11.5 -46.5v-43c0 -6.66699 -0.166992 -13.667 -0.5 -21s-0.5 -15 -0.5 -23c-0.666992 -15.333 -1 -31.333 -1 -48v-49v-92
c0 -15.333 0.166992 -29.666 0.5 -42.999s0.833008 -26 1.5 -38c0.666992 -18 4.66699 -33.667 12 -47s16.666 -24.5 27.999 -33.5s23.833 -15.667 37.5 -20s27.5 -6.5 41.5 -6.5s27.833 2.16699 41.5 6.5s26.167 10.666 37.5 18.999s20.666 18.833 27.999 31.5
s11.666 27.334 12.999 44.001zM1216 852.999c5.33301 -11.333 10 -27.666 14 -48.999s7.5 -46.5 10.5 -75.5s5.16699 -60.5 6.5 -94.5s2 -69.667 2 -107c0 -35.333 -0.666992 -71.166 -2 -107.499s-3.5 -72 -6.5 -107s-6.83301 -69 -11.5 -102s-10 -63.5 -16 -91.5
c-9.33301 -26.667 -20.5 -52.334 -33.5 -77.001s-28.5 -47.167 -46.5 -67.5s-38.5 -38 -61.5 -53s-49.5 -26.167 -79.5 -33.5c-16 -4 -34 -6 -54 -6c-21.333 0 -42.166 2.83301 -62.499 8.5s-38.833 14.667 -55.5 27s-31.167 27.666 -43.5 45.999s-20.833 39.5 -25.5 63.5
l-3 4l-7 2l-4 -1c-21.333 -19.333 -45.5 -34.333 -72.5 -45s-54.833 -16 -83.5 -16c-42.667 0 -81.334 11 -116.001 33c-20 11.333 -38.333 25.5 -55 42.5s-31.167 35.667 -43.5 56s-22.5 41.833 -30.5 64.5s-13.333 45.667 -16 69c-1.33301 29.333 -2 57.666 -2 84.999v85
v84c0 27.333 0.333008 55 1 83v58c2.66699 30 9 59 19 87s23.667 53.833 41 77.5s37.666 44.334 60.999 62.001s49.333 30.834 78 39.501h1c10 4 20.167 6.66699 30.5 8s20.833 2 31.5 2c30 0 59 -5.66699 87 -17s53 -27.333 75 -48h5l7 4l2 3v17
c0 0.666992 -0.166992 2 -0.5 4s-0.5 3.33301 -0.5 4v30h92c6 0 11.833 -0.166992 17.5 -0.5s11.5 -0.5 17.5 -0.5h51c1.33301 -44.667 2.16602 -87.5 2.49902 -128.5s0.5 -83.167 0.5 -126.5v-46v-45v-256v-83v-83c2 -34 11.5 -58.833 28.5 -74.5s36.5 -23.5 58.5 -23.5
c14 0 27.833 2.83301 41.5 8.5s26.5 13.834 38.5 24.501s22.333 23.834 31 39.501s14.334 33.5 17.001 53.5c7.33301 54.667 12.666 110.667 15.999 168s5 115.666 5 174.999c0 85.333 -3.66699 168.666 -11 249.999v2c-6.66699 32 -17.834 63.833 -33.501 95.5
s-34.834 60.334 -57.501 86.001s-48.667 47.5 -78 65.5s-61.666 29.667 -96.999 35h-1c-17.333 0 -34.666 0.166992 -51.999 0.5s-34.666 0.833008 -51.999 1.5h-24h-25c-24 0.666992 -47.833 1.16699 -71.5 1.5s-47.167 0.5 -70.5 0.5c-33.333 0 -66.333 -0.333008 -99 -1
s-65.334 -2.66699 -98.001 -6h-2c-32 -6.66699 -60.333 -18.667 -85 -36s-46.334 -38.333 -65.001 -63s-34.834 -51.834 -48.501 -81.501s-24.834 -60.5 -33.501 -92.5c-6.66699 -48.667 -11.167 -97.5 -13.5 -146.5s-3.5 -98.5 -3.5 -148.5
c0 -37.333 0.5 -74.666 1.5 -111.999s1.83301 -74.333 2.5 -111c0.666992 -11.333 1 -22.333 1 -33s0.333008 -21.334 1 -32.001c0.666992 -10 1.16699 -20.167 1.5 -30.5s0.5 -20.5 0.5 -30.5c2 -30.667 6.83301 -63.167 14.5 -97.5s19 -66.333 34 -96
s34.167 -55.5 57.5 -77.5s52 -36.333 86 -43h2c74 -6.66699 147 -12.334 219 -17.001s145 -7 219 -7c46.667 0 92.334 1.16699 137.001 3.5s89.334 5.83301 134.001 10.5c27.333 4 50.5 14 69.5 30s36.167 33.667 51.5 53c2.66699 -1.33301 5.5 -2.33301 8.5 -3
s6.16699 -1.66699 9.5 -3l12 -3v-1c8.66699 -4 16.834 -7.33301 24.501 -10s13.167 -5.66699 16.5 -9c-8.66699 -16 -19 -31.5 -31 -46.5s-25.333 -29 -40 -42s-30.834 -24.333 -48.501 -34s-36.5 -16.5 -56.5 -20.5c-9.33301 -0.666992 -18.666 -1 -27.999 -1
c-8.66699 0 -17.667 -0.333008 -27 -1c-6 0 -11.833 -0.166992 -17.5 -0.5s-11.5 -0.5 -17.5 -0.5c-9.33301 -0.666992 -18.333 -1 -27 -1s-18 -0.333008 -28 -1c-40 -0.666992 -80.833 -1.5 -122.5 -2.5s-83.167 -1.5 -124.5 -1.5c-64.667 0 -129 1.66699 -193 5
s-128.333 9.66602 -193 18.999c-40 14.667 -74.333 37.334 -103 68.001s-52.334 65.667 -71.001 105s-32.5 80.666 -41.5 123.999s-13.833 85 -14.5 125c1.33301 20 2.16602 40.5 2.49902 61.5s0.5 42.5 0.5 64.5v44v23v23v28c0 8.66699 -0.333008 17.334 -1 26.001
c0 8.66699 -0.333008 17.334 -1 26.001s-1 17.334 -1 26.001c0 54.667 0.833008 108.167 2.5 160.5s4.83398 105.5 9.50098 159.5c8.66699 44 21.834 85.333 39.501 124s39.834 73.167 66.501 103.5s57.667 55.666 93 75.999s75 34.166 119 41.499
c19.333 0.666992 38.5 1.16699 57.5 1.5s38.167 0.5 57.5 0.5c22 0 44.167 -0.166992 66.5 -0.5s44.5 -0.833008 66.5 -1.5c11.333 0 22.5 -0.166992 33.5 -0.5s22.167 -0.5 33.5 -0.5c32.667 0 65.334 -0.166992 98.001 -0.5s65.334 -0.5 98.001 -0.5
c37.333 -4 72 -14.333 104 -31s60.833 -37.5 86.5 -62.5s48.167 -53.167 67.5 -84.5s34.666 -64 45.999 -98z" />
    <glyph glyph-name="A" unicode="A" horiz-adv-x="1016" 
d="M504 983c-32 0 -61.334 -6.99902 -88.001 -20.999s-49.667 -30.667 -69 -50s-34.333 -39 -45 -59s-16 -35.667 -16 -47v-290l10 -10h423l10 10v291c0 15.333 -6 33.166 -18 53.499s-28.167 39.5 -48.5 57.5s-44.166 33.333 -71.499 46s-56.333 19 -87 19zM99.999 798.001
c4.66699 51.333 19.1709 99.5 43.5039 144.5s55.333 84.167 93 117.5s80.167 59.666 127.5 78.999s96.333 29 147 29c51.333 0 100.166 -9 146.499 -27s87.666 -43.167 123.999 -75.5s66.166 -70.666 89.499 -114.999s37.666 -92.5 42.999 -144.5
c0 -60.667 0.166992 -119.5 0.5 -176.5s0.5 -114.167 0.5 -171.5c0 -46 0.166992 -91.667 0.5 -137s0.5 -91 0.5 -137c0 -64.667 -0.166992 -131 -0.5 -199s-0.833008 -135.667 -1.5 -203l-185 -1v534l-10 10h-423l-10 -10v-531l-186 -1v1015z" />
    <glyph glyph-name="B" unicode="B" horiz-adv-x="1059" 
d="M286 540l9.00293 -11.0029c4.66699 -0.666992 11.167 -1.16699 19.5 -1.5s18.166 -0.5 29.499 -0.5h72c26 0 50.5 0.333008 73.5 1s40.167 1.33398 51.5 2.00098h1c26.667 2 51.667 9.33301 75 22s43.5 28.834 60.5 48.501s30.333 41.834 40 66.501s14.5 50.667 14.5 78
c-1.33301 50 -11.833 89.333 -31.5 118s-45.334 50.167 -77.001 64.5s-67.334 23.5 -107.001 27.5s-80.167 6 -121.5 6h-101l-10 -10zM288.003 -20.0029l8.99707 -9.99707c17.333 -2.66699 35.833 -4.83398 55.5 -6.50098s40.5 -2.5 62.5 -2.5c40 0 81 3.33301 123 10
s80.333 18.5 115 35.5s63 40.167 85 69.5s33.667 66.666 35 111.999v6c0 46.667 -9 84.5 -27 113.5s-41.833 51.167 -71.5 66.5s-63.667 25.666 -102 30.999s-78.166 8 -119.499 8c-19.333 0 -39.166 -0.333008 -59.499 -1s-40.166 -1.66699 -59.499 -3
c-6.66699 -0.666992 -13 -1.16699 -19 -1.5s-12 -0.5 -18 -0.5l-10 -10zM781 487c55.333 -35.333 98.8301 -77.9941 130.497 -127.994s47.5 -108.333 47.5 -175v-3c-0.666992 -52.667 -11.5 -102.334 -32.5 -149.001s-49 -87.834 -84 -123.501
s-75.833 -64.334 -122.5 -86.001s-96 -33.834 -148 -36.501l-472 -1l3 1364c72 0 134.5 -0.166992 187.5 -0.5s98.5 -1 136.5 -2s69.833 -2.33301 95.5 -4s47.334 -3.5 65.001 -5.5s32.334 -4.5 44.001 -7.5s22.834 -6.5 33.501 -10.5h1c37.333 -14 71.5 -33.667 102.5 -59
s57.5 -54.333 79.5 -87s39.167 -67.834 51.5 -105.501s18.5 -75.5 18.5 -113.5c0 -48.667 -10.833 -94.834 -32.5 -138.501s-56.5 -81.167 -104.5 -112.5v-16z" />
    <glyph glyph-name="C" unicode="C" horiz-adv-x="1015" 
d="M501 982c-28.667 0 -55.6709 -5.50098 -81.0039 -16.501s-47.666 -25.833 -66.999 -44.5s-35.166 -40.334 -47.499 -65.001s-19.833 -50.667 -22.5 -78v-616c0 -12 5 -29 15 -51s24.5 -43.833 43.5 -65.5s42.167 -40.334 69.5 -56.001s58.666 -23.5 93.999 -23.5h7
c24.667 0 49 4.33301 73 13s45.833 20.5 65.5 35.5s36.334 33 50.001 54s23.167 44.167 28.5 69.5v1c2 14.667 3.66699 31.5 5 50.5s2 37.167 2 54.5v5h179v-106c0 -14.667 -1.33301 -30 -4 -46s-6 -30.333 -10 -43c-14 -41.333 -34.167 -78.666 -60.5 -111.999
s-56.833 -61.666 -91.5 -84.999s-72.5 -41.5 -113.5 -54.5s-82.833 -19.5 -125.5 -19.5c-55.333 0 -107.166 9.83301 -155.499 29.5s-90.833 46.834 -127.5 81.501s-66.167 75.5 -88.5 122.5s-35.166 97.5 -38.499 151.5v592c0 15.333 0.333008 30.5 1 45.5s3 30.167 7 45.5
c10.667 46 28.334 88.333 53.001 127s54.5 72.167 89.5 100.5s74 50.333 117 66s88.5 23.5 136.5 23.5c46 0 89.333 -7 130 -21s77.834 -33.5 111.501 -58.5s63.167 -55.167 88.5 -90.5s46 -74 62 -116c7.33301 -21.333 11.833 -43.333 13.5 -66s2.5 -45.334 2.5 -68.001
v-24h-186c-0.666992 1.33301 -1 6 -1 14c0 14.667 -0.5 27.334 -1.5 38.001s-2.5 24.667 -4.5 42v1c-6 24.667 -16 47 -30 67s-30.833 37.167 -50.5 51.5s-41.334 25.333 -65.001 33s-47.834 11.5 -72.501 11.5z" />
    <glyph glyph-name="D" unicode="D" horiz-adv-x="1038" 
d="M907 515l-0.000976562 -180.002c0 -58.667 -0.333008 -118 -1 -178c-2.66699 -46 -13.667 -88.833 -33 -128.5s-44.5 -75 -75.5 -106s-66.667 -57 -107 -78s-82.5 -35.167 -126.5 -42.5c-29.333 -5.33301 -63 -8.83301 -101 -10.5s-78 -2.5 -120 -2.5
c-25.333 0 -50.333 0.166992 -75 0.5s-48.667 0.833008 -72 1.5c-19.333 0.666992 -36 1.16699 -50 1.5s-29.333 0.5 -46 0.5l1 1351c14.667 0.666992 27.334 1 38.001 1h39c32 0 64.167 -0.166992 96.5 -0.5s64.5 -0.833008 96.5 -1.5
c30.667 -0.666992 60.667 -1.16699 90 -1.5s58.333 -0.5 87 -0.5c46.667 -6.66699 90.667 -20.667 132 -42s78 -48.166 110 -80.499s58 -69.166 78 -110.499s32.667 -85.333 38 -132c0.666992 -44 1 -87.667 1 -131v-130zM718.999 777.998
c-4 21.333 -11.667 42.668 -23 64.001s-25.5 40.666 -42.5 57.999s-36.333 31.333 -58 42s-44.5 16.334 -68.5 17.001h-232l-10 -10l1 -963l10 -11h39c18 0 37.333 0.333008 58 1c19.333 0 37.833 0.166992 55.5 0.5s30.167 0.5 37.5 0.5h2c32 0 61.667 4.5 89 13.5
s51.166 22.333 71.499 40s36.833 39.167 49.5 64.5s20.334 54.666 23.001 87.999v163c0 72 -0.166992 143 -0.5 213s-0.833008 142.333 -1.5 217v2z" />
    <glyph glyph-name="E" unicode="E" horiz-adv-x="1003" 
d="M287 544l10 -11h536v-180h-536l-10 -10v-368l10 -10h606v-182h-803v1365h803v-180l-606 1l-10 -11v-414z" />
    <glyph glyph-name="F" unicode="F" horiz-adv-x="1005" 
d="M905 961h-610l-10 -10l1 -406l10 -11h539v-181h-540l-10 -10v-560h-185v1365h805v-187z" />
    <glyph glyph-name="G" unicode="G" horiz-adv-x="1013" 
d="M715 -105c-13.333 -14.667 -27.9951 -28.8311 -43.9951 -42.498s-32.667 -25.667 -50 -36s-35.333 -18.5 -54 -24.5s-37.334 -9 -56.001 -9c-55.333 0 -107 9.83301 -155 29.5s-90.333 46.834 -127 81.501s-66.334 75.5 -89.001 122.5s-36 97.5 -40 151.5v582
c0 17.333 0.333008 34.166 1 50.499s3 33.166 7 50.499c10.667 46 28.5 88.5 53.5 127.5s55 72.5 90 100.5s74 49.833 117 65.5s88.167 23.5 135.5 23.5c46.667 0 90.334 -7 131.001 -21s77.667 -33.5 111 -58.5s62.833 -55.167 88.5 -90.5s46.5 -74 62.5 -116
c7.33301 -22.667 11.833 -46 13.5 -70s2.5 -48 2.5 -72v-16h-185l-8 94v1c-6 24.667 -16 47 -30 67s-31 37.167 -51 51.5s-41.833 25.333 -65.5 33s-47.834 11.5 -72.501 11.5c-29.333 0 -56.5 -5.5 -81.5 -16.5s-47 -25.833 -66 -44.5s-34.5 -40.334 -46.5 -65.001
s-19.667 -50.667 -23 -78v-616c0 -12.667 4.83301 -29.667 14.5 -51s23.667 -42.5 42 -63.5s40.666 -39.5 66.999 -55.5s56.166 -24.667 89.499 -26h1c30.667 2 58.667 9.66699 84 23s47.166 30.833 65.499 52.5s32.5 46.167 42.5 73.5s15 56 15 86
c0 7.33301 -0.333008 14.833 -1 22.5s-1.66699 15.167 -3 22.5l-10 9h-102c-0.666992 7.33301 -1.16699 16 -1.5 26s-0.5 21.667 -0.5 35v65h326v-598h-129l-10 166l-3 6l-1 1l-7 3l-11 -13c-7.33301 -8.66699 -14.333 -17.667 -21 -27h-1
c-3.33301 -6 -6.5 -11.333 -9.5 -16s-5.16699 -7.66699 -6.5 -9z" />
    <glyph glyph-name="H" unicode="H" horiz-adv-x="1016" 
d="M298 366l-10 -10v-573h-187l-1 1366h188v-588l10 -10h419l10 10v588h189v-1367l-189 1v573l-10 10h-419z" />
    <glyph glyph-name="I" unicode="I" horiz-adv-x="428" 
d="M125 1148h183v-1365h-183v1365z" />
    <glyph glyph-name="J" unicode="J" horiz-adv-x="853" 
d="M289 167l0.000976562 -81c0.666992 -20 5 -37.833 13 -53.5s18.167 -28.667 30.5 -39s26.333 -18.166 42 -23.499s31.5 -8 47.5 -8c17.333 0 34.5 3 51.5 9s32.167 15 45.5 27s24.166 26.667 32.499 44s12.5 37.666 12.5 60.999v1045h189v-1074
c-1.33301 -42 -11.333 -80.833 -30 -116.5s-43 -66.5 -73 -92.5s-64.333 -46.167 -103 -60.5s-78 -21.5 -118 -21.5h-7c-38.667 0 -76.667 5.83301 -114 17.5s-71 29 -101 52s-54.667 51.833 -74 86.5s-30 75 -32 121v107h188z" />
    <glyph glyph-name="K" unicode="K" horiz-adv-x="1018" 
d="M697 1148h220l-401 -681v-11l402 -673h-226l-385 614l-18 -6v-608h-189v1365h188v-625l19 -5z" />
    <glyph glyph-name="L" unicode="L" horiz-adv-x="930" 
d="M287 1148v-1169l10 -10h561l2 -186h-760v1365h187z" />
    <glyph glyph-name="M" unicode="M" 
d="M911 1148h188l1 -1365h-185v746l-19 3l-276 -750l-53 -1l-263 751l-19 -3l1 -746h-186l1 1365h188l293 -855h18z" />
    <glyph glyph-name="N" unicode="N" horiz-adv-x="1038" 
d="M752 1149h186l-2 -1366h-188l-445 904l-19 -4l2 -901l-186 1v1366h190l442 -903l20 4v899z" />
    <glyph glyph-name="O" unicode="O" horiz-adv-x="1006" 
d="M285 184c2 -30.667 8.33008 -59.168 18.9971 -85.501s25.167 -49.333 43.5 -69s40.333 -35.167 66 -46.5s54.5 -17 86.5 -17c26.667 0 52.5 4.66699 77.5 14s47.667 22.5 68 39.5s37.333 37.167 51 60.5s22.167 48.666 25.5 75.999v139c0 28 0.166992 56.167 0.5 84.5
s0.5 56.5 0.5 84.5v47c0 17.333 -0.166992 34.5 -0.5 51.5s-0.5 33.5 -0.5 49.5v44v124c-1.33301 25.333 -7.16602 49.166 -17.499 71.499s-24 42.333 -41 60s-36.667 32.334 -59 44.001s-45.833 19.5 -70.5 23.5c-5.33301 0.666992 -10.333 1.16699 -15 1.5
s-9.66699 0.5 -15 0.5c-30 0 -58 -5.33301 -84 -16s-48.667 -25.167 -68 -43.5s-34.666 -40.166 -45.999 -65.499s-17.666 -52.666 -18.999 -81.999c-1.33301 -28 -2.33301 -58.833 -3 -92.5s-1 -69.167 -1 -106.5v-52c0 -18 0.166992 -36.5 0.5 -55.5
s0.5 -38.167 0.5 -57.5v-53c0.666992 -30 1 -59.667 1 -89v-83v-1zM99.9971 352.999c0 72.667 0.168945 146.167 0.501953 220.5s1.16602 148.166 2.49902 221.499c4.66699 50.667 18.5 98.667 41.5 144s52.5 85 88.5 119s77.167 60.833 123.5 80.5s94.833 29.5 145.5 29.5
c57.333 0 110.666 -11 159.999 -33s92 -51.833 128 -89.5s64.333 -81.667 85 -132s31 -103.5 31 -159.5v-309c0 -20 -0.166992 -40.167 -0.5 -60.5s-0.5 -40.166 -0.5 -59.499v-172c-3.33301 -53.333 -16.833 -102.5 -40.5 -147.5s-54.167 -84 -91.5 -117
s-79.833 -58.833 -127.5 -77.5s-97.167 -28 -148.5 -28c-54.667 0 -106 10.5 -154 31.5s-90 49.5 -126 85.5s-64.5 78.333 -85.5 127s-31.5 100.667 -31.5 156v170z" />
    <glyph glyph-name="P" unicode="P" horiz-adv-x="1000" 
d="M291 549l8.00098 -10c9.33301 -2 25.666 -3.16699 48.999 -3.5s47.666 -0.5 72.999 -0.5c26 0 50.333 0.5 73 1.5s39.334 1.83301 50.001 2.5h1c26.667 2 51.667 9.33301 75 22s43.5 28.667 60.5 48s30.333 41.333 40 66s14.5 50.667 14.5 78
c0 50 -9.66699 89.5 -29 118.5s-44.833 50.833 -76.5 65.5s-67.5 24 -107.5 28s-81 6 -123 6h-98l-10 -11v-411zM323.001 1149c40.667 0 81.001 -0.167969 121.001 -0.500977s81 -1.16602 123 -2.49902c50.667 -7.33301 97.5 -22.333 140.5 -45s80.333 -51.5 112 -86.5
s56.334 -75.167 74.001 -120.5s26.5 -94 26.5 -146c0 -46 -7.83301 -89.667 -23.5 -131s-37.334 -78.833 -65.001 -112.5s-60.334 -62.667 -98.001 -87s-78.167 -42.833 -121.5 -55.5c-15.333 -4.66699 -34.833 -7.66699 -58.5 -9s-48.167 -2 -73.5 -2
c-10.667 0 -21.167 0.166992 -31.5 0.5s-20.5 0.5 -30.5 0.5c-10.667 0 -21 0.166992 -31 0.5s-19.667 0.5 -29 0.5c-14 0 -26.333 -0.333008 -37 -1s-18.667 -1.66699 -24 -3l-7 -10c0 -15.333 0.166992 -30.5 0.5 -45.5s0.5 -30.167 0.5 -45.5
c0 -40 0.166992 -79.667 0.5 -119s0.5 -79 0.5 -119s-0.166992 -78 -0.5 -114s-0.833008 -73.667 -1.5 -113h-190v670c0 36 0.166992 71.833 0.5 107.5s0.5 71.167 0.5 106.5v482h222z" />
    <glyph glyph-name="Q" unicode="Q" horiz-adv-x="1031" 
d="M287 176c4 -28 11.9971 -54.502 23.9971 -79.502s27.333 -46.667 46 -65s40.334 -33 65.001 -44s52 -16.5 82 -16.5h19c6 0 12.5 0.333008 19.5 1s13.667 1.83398 20 3.50098s11.5 3.83398 15.5 6.50098s6 6.33398 6 11.001l-1 5c-10 20 -22 35.5 -36 46.5
s-28.833 19.5 -44.5 25.5s-32.167 9.83301 -49.5 11.5s-34.333 2.83398 -51 3.50098c0 1.33301 -0.166992 0.666016 -0.5 -2.00098s-0.5 -3.33398 -0.5 -2.00098c0 8.66699 5.33301 15.834 16 21.501s23 10.167 37 13.5s27.833 5.66602 41.5 6.99902s23.834 2 30.501 2h4
c28.667 0 53.667 -5.5 75 -16.5s42 -26.5 62 -46.5l1 -1l7 -3c5.33301 0 11 4.83301 17 14.5s11.5 20.834 16.5 33.501s9 25 12 37s4.5 20.333 4.5 25c2 50.667 3.33301 100.667 4 150s1 99 1 149c0 30 -0.166992 63.333 -0.5 100s-0.5 70.334 -0.5 101.001
c0 16 -0.166992 32.167 -0.5 48.5s-0.5 32.5 -0.5 48.5c0 30.667 -5.83301 59.5 -17.5 86.5s-27.5 50.667 -47.5 71s-43.5 36.333 -70.5 48s-55.833 17.5 -86.5 17.5h-5c-34.667 -1.33301 -65.5 -8.83301 -92.5 -22.5s-49.667 -31.834 -68 -54.501
s-32.166 -48.834 -41.499 -78.501s-14 -60.834 -14 -93.501v-53c0 -16 0.166992 -33.667 0.5 -53s0.5 -39.666 0.5 -60.999v-335v-35c0 -10 0.333008 -18.667 1 -26zM683.997 -175.002c-3.33301 -1.33301 -6.17676 -2.3291 -8.50977 -2.99609s-4.83301 -1.66699 -7.5 -3
c-25.333 -9.33301 -50.166 -17.333 -74.499 -24s-51.166 -10.334 -80.499 -11.001h-9c-56 0 -108 10.667 -156 32s-90 50.5 -126 87.5s-64.667 80 -86 129s-32.666 101.167 -33.999 156.5v1c-0.666992 7.33301 -1 16.666 -1 27.999v40v220v36
c0 13.333 -0.166992 26.666 -0.5 39.999s-0.5 26 -0.5 38v34v167c2.66699 52 15.334 100.5 38.001 145.5s51.834 84.333 87.501 118s76.5 60.5 122.5 80.5s94.333 30.667 145 32h10c51.333 0 100 -8.66699 146 -26s87 -41.5 123 -72.5s66 -68 90 -111s40 -90.167 48 -141.5
c0.666992 -19.333 1.33398 -45.5 2.00098 -78.5s1.16699 -69 1.5 -108l1 -121.5c0.333008 -42 0.5 -82 0.5 -120s-0.166992 -73.333 -0.5 -106s-0.833008 -59.667 -1.5 -81c-1.33301 -32 -5.16602 -63.333 -11.499 -94s-15 -59.667 -26 -87s-23.833 -52.166 -38.5 -74.499
s-31 -40.833 -49 -55.5l-4 -8v-2l3 -7c9.33301 -8 20 -13.833 32 -17.5s24 -5.5 36 -5.5h5c12.667 0 24.167 3 34.5 9s19.333 13.667 27 23s14.334 19.166 20.001 29.499s10.834 20.166 15.501 29.499l13 26c2 0 3.83301 -3 5.5 -9s2.83398 -13 3.50098 -21
s1.16699 -15.667 1.5 -23s0.5 -12.333 0.5 -15v-9c0 -21.333 -3 -42 -9 -62s-14.833 -37.667 -26.5 -53s-26 -27.833 -43 -37.5s-36.833 -14.834 -59.5 -15.501c-16 0 -30.833 2.66699 -44.5 8s-26.167 12.333 -37.5 21s-22 18.834 -32 30.501s-19.333 23.5 -28 35.5l-1 1
c0.666992 -1.33301 1 -3.33301 1 -6l-11 12h-2z" />
    <glyph glyph-name="R" unicode="R" horiz-adv-x="1032" 
d="M286 545l8.00195 -11.002c8.66699 -1.33301 24.667 -2.16602 48 -2.49902s48.333 -0.5 75 -0.5c26 0 50.667 0.333008 74 1s40.333 1.33398 51 2.00098h1c26 2.66699 50.167 10.167 72.5 22.5s41.5 27.833 57.5 46.5s28.667 40 38 64s14 49 14 75v6
c0 50 -9.5 89.5 -28.5 118.5s-43.833 50.667 -74.5 65s-65.834 23.5 -105.501 27.5s-79.834 6 -120.501 6h-100l-10 -10v-410zM847.002 -219.002c-10 0 -20.001 0.167969 -30.001 0.500977s-19.667 0.833008 -29 1.5c-18.667 15.333 -33.167 33.166 -43.5 53.499
s-18 42.166 -23 65.499s-8.16699 47.5 -9.5 72.5s-2.33301 49.833 -3 74.5c0 5.33301 -0.166992 10.333 -0.5 15s-0.5 9.33398 -0.5 14.001c-1.33301 42 -3.66602 78.833 -6.99902 110.5s-11.5 58.5 -24.5 80.5s-32.833 39.5 -59.5 52.5s-64 21.5 -112 25.5h-117h-46
c-7.33301 0 -14.833 -0.166992 -22.5 -0.5s-15.5 -0.833008 -23.5 -1.5l-9 -10v-550h-187v1363c70 0 130.333 -0.166992 181 -0.5s93.667 -0.833008 129 -1.5s64.166 -1.33398 86.499 -2.00098s40.5 -1.5 54.5 -2.5s25.167 -2.16699 33.5 -3.5
s15.833 -2.66602 22.5 -3.99902c46 -11.333 88.667 -27.833 128 -49.5s73.5 -48.167 102.5 -79.5s51.667 -67.333 68 -108s24.5 -85.334 24.5 -134.001c0 -70 -18.333 -132.333 -55 -187c-35.333 -55.333 -85 -97.333 -149 -126l-1 -18c42 -25.333 77 -56.166 105 -92.499
s43.333 -78.833 46 -127.5v-1c1.33301 -24.667 2.33301 -48.667 3 -72s1.66699 -47.333 3 -72l3 -66v-1c6 -42 12.833 -80.667 20.5 -116s16.5 -69 26.5 -101c-8.66699 0 -15.167 -0.166992 -19.5 -0.5s-11.166 -0.5 -20.499 -0.5c-7.33301 0 -14.833 -0.166992 -22.5 -0.5
s-15.167 -0.5 -22.5 -0.5z" />
    <glyph glyph-name="S" unicode="S" horiz-adv-x="1020" 
d="M283 229l0.00195312 -20.0049c0 -24 5.33301 -50 16 -78s26 -53.833 46 -77.5s44.667 -43.5 74 -59.5s62.666 -24 99.999 -24c18 0 37 2 57 6c20.667 4.66699 39.667 11.834 57 21.501s32.5 21.5 45.5 35.5s23.167 30 30.5 48s11 38 11 60
c0 31.333 -6.66699 57.833 -20 79.5s-31.333 43.167 -54 64.5l-1 1c-3.33301 2.66699 -9 6.66699 -17 12s-23.167 14.333 -45.5 27l-96.5 53.5l-169 91.5c-28.667 14.667 -56.167 33.167 -82.5 55.5s-49.5 47 -69.5 74s-35.833 56.167 -47.5 87.5s-17.5 63.666 -17.5 96.999
c0 52.667 11.5 102.334 34.5 149.001s53.333 87.334 91 122.001s80.834 62.167 129.501 82.5s98.667 30.5 150 30.5c46 0 90.833 -7.66699 134.5 -23s83.5 -36.666 119.5 -63.999s67 -59.833 93 -97.5s44.667 -79.167 56 -124.5c6 -24.667 9.5 -47.834 10.5 -69.501
s1.5 -43.167 1.5 -64.5h-186v22c0 31.333 -5.83301 61.333 -17.5 90s-27.834 53.834 -48.501 75.501s-45 38.834 -73 51.501s-58.333 19 -91 19c-23.333 0 -47.666 -4.66699 -72.999 -14s-48.833 -22.166 -70.5 -38.499s-39.5 -35.5 -53.5 -57.5s-21 -45.667 -21 -71
c0 -29.333 15.333 -63 46 -101s82 -79.667 154 -125l1 -1c7.33301 -3.33301 14.666 -7 21.999 -11s14.666 -7.66699 21.999 -11l91 -47c30.667 -16 60.167 -33.167 88.5 -51.5s55 -38.166 80 -59.499s46.667 -45 65 -71s32.833 -54.5 43.5 -85.5s16 -65.167 16 -102.5
c0 -54 -11.667 -102.667 -35 -146s-54 -80.333 -92 -111s-81.333 -54.167 -130 -70.5s-98 -24.5 -148 -24.5c-42 0 -83 6.33301 -123 19s-77 30.667 -111 54s-64.167 51.333 -90.5 84s-46.5 68.667 -60.5 108l-8.5 25.5c-3 9 -5.66699 20.167 -8 33.5
s-4.33301 29.666 -6 48.999s-2.5 43.333 -2.5 72h183z" />
    <glyph glyph-name="T" unicode="T" horiz-adv-x="996" 
d="M100 969v179h796v-178h-296l-10 -11v-1176h-185v1175l-10 11h-295z" />
    <glyph glyph-name="U" unicode="U" horiz-adv-x="1009" 
d="M100 1148l186.997 -0.00195312c0 -56.667 -0.166992 -110.667 -0.5 -162s-0.5 -104.666 -0.5 -159.999c0 -46 -0.166992 -91.5 -0.5 -136.5s-0.5 -90.167 -0.5 -135.5c0 -64.667 0.166992 -128.834 0.5 -192.501s0.833008 -128.167 1.5 -193.5v-1
c4 -28 12.167 -54 24.5 -78s27.833 -45 46.5 -63s40.167 -32 64.5 -42s50.5 -15 78.5 -15c28.667 0 56.334 5.16699 83.001 15.5s50.334 24.666 71.001 42.999s37.5 40 50.5 65s19.833 52.5 20.5 82.5c0.666992 62.667 1.16699 127.167 1.5 193.5s0.5 133.833 0.5 202.5
c0 48 -0.166992 96 -0.5 144s-0.5 95.333 -0.5 142c0 53.333 -0.166992 103.5 -0.5 150.5s-0.5 93.833 -0.5 140.5h183v-675v-118c0 -38 -0.333008 -75.667 -1 -113v-18c-0.666992 -24.667 -1.66699 -48.667 -3 -72s-5.66602 -47.666 -12.999 -72.999
c-12 -43.333 -30.5 -83.166 -55.5 -119.499s-54.667 -67.5 -89 -93.5s-72.5 -46.333 -114.5 -61s-85.333 -22 -130 -22c-52 0 -101.167 9.33301 -147.5 28s-87.333 44.334 -123 77.001s-65.167 71.167 -88.5 115.5s-38 91.833 -44 142.5v1002z" />
    <glyph glyph-name="V" unicode="V" horiz-adv-x="1019" 
d="M304 -58l-67.002 56.5039c-23.333 20.333 -44.666 40.833 -63.999 61.5s-35.666 40.834 -48.999 60.501s-20.666 37.5 -21.999 53.5c-0.666992 62.667 -1.16699 124.667 -1.5 186s-0.5 124.333 -0.5 189c0 44.667 0.166992 89.5 0.5 134.5s0.5 90.5 0.5 136.5
c0 56.667 0.166992 111 0.5 163s0.5 107 0.5 165h189v-879c0 -14.667 4.5 -29.667 13.5 -45s20.833 -30.666 35.5 -45.999s31 -30.5 49 -45.5l54 -44.5l30.5 -24.5l27.5 -22.5h14c9.33301 9.33301 20.166 18.666 32.499 27.999l38.5 28l53 40.5
c17.333 13.667 32.833 27.667 46.5 42s24.667 28.666 33 42.999s12.5 28.833 12.5 43.5v663c0 38 0.166992 74 0.5 108s0.5 71 0.5 111h186l1 -955c0 -12.667 -3.66699 -26.834 -11 -42.501s-18.833 -33.334 -34.5 -53.001s-35.834 -41.834 -60.501 -66.501
s-54.667 -52.334 -90 -83.001l-124 -95.5l-66 -49.5c-3.33301 -2 -6 -4 -8 -6s-4 -3.66699 -6 -5c-4 -3.33301 -7 -5.33301 -9 -6c-3.33301 2.66699 -9.16602 7 -17.499 13l-36 27l-60.5 46z" />
    <glyph glyph-name="W" unicode="W" horiz-adv-x="1359" 
d="M71 1146h177l169 -954l5 -4h21l5 4l230 954h34l237 -945l5 -4l20 1l5 4l122 944h177l-194 -1365h-175l-202 612l-5 3h-19l-5 -3l-198 -612h-173z" />
    <glyph glyph-name="X" unicode="X" horiz-adv-x="1012" 
d="M912 740c-7.33301 -16.667 -16.334 -32.167 -27.001 -46.5s-22.667 -28 -36 -41s-27.333 -25.333 -42 -37l-44 -35.5l-58 -46.5c-18.667 -15.667 -35.667 -32.167 -51 -49.5v-12c16 -18.667 33.167 -35.667 51.5 -51l56.5 -46c30 -23.333 58.667 -47.5 86 -72.5
s48.666 -54.5 63.999 -88.5v-432h-188v349c-5.33301 16.667 -12.666 32 -21.999 46s-19.833 27 -31.5 39s-24.167 23.333 -37.5 34l-40 32l-41.5 33c-13.667 10.667 -26.167 22.334 -37.5 35.001h-14c-11.333 -12.667 -23.833 -24.334 -37.5 -35.001l-41.5 -33
c-28 -21.333 -54.167 -43.666 -78.5 -66.999s-42.166 -52 -53.499 -86v-218c0 -23.333 0.166992 -44.833 0.5 -64.5s0.5 -41.167 0.5 -64.5h-189l-1 431c14.667 34 36.167 63.667 64.5 89s58.166 49.666 89.499 72.999l57.5 46c19 15.333 36.167 32 51.5 50v13
c-14.667 16.667 -31.834 33 -51.501 49l-59.5 48l-46 36c-15.333 12 -29.666 24.5 -42.999 37.5s-25.5 26.667 -36.5 41s-19.833 29.833 -26.5 46.5l1 407h187l1 -318v-3c5.33301 -17.333 12.666 -33.333 21.999 -48s20 -28.167 32 -40.5s24.833 -24.166 38.5 -35.499
l41.5 -33l40.5 -31.5c13.667 -10.333 25.834 -21.833 36.501 -34.5h15c12 13.333 24.5 25.333 37.5 36l39.5 31c28 21.333 54.333 43.666 79 66.999s42.334 52.333 53.001 87v248c0 13.333 -0.166992 25.5 -0.5 36.5s-0.5 23.833 -0.5 38.5h189v-409z" />
    <glyph glyph-name="Y" unicode="Y" horiz-adv-x="1044" 
d="M617 -217l-189 1v655l-1 4l-347 705h35c13.333 0 27.833 0.166992 43.5 0.5s30.834 0.5 45.501 0.5c21.333 0 40.166 -0.166992 56.499 -0.5s27.833 -0.5 34.5 -0.5l223 -483h18l212 483h216l-348 -704l-1 -4z" />
    <glyph glyph-name="Z" unicode="Z" horiz-adv-x="894" 
d="M624 -199h-234.003c-76.667 0 -149 0.666992 -217 2c-35.333 4.66699 -63.833 16.667 -85.5 36s-32.5 47.333 -32.5 84c0 28.667 4.83301 57 14.5 85s21.834 54.333 36.501 79l558 886h-614v182h650c17.333 0 34.5 -3 51.5 -9s32.333 -14.167 46 -24.5
s24.834 -22.833 33.501 -37.5s13 -31 13 -49c0 -17.333 -3.66699 -34 -11 -50s-16.666 -31.333 -27.999 -46l-1 -1l-2 -3l-591 -951h620v-184h-149c-9.33301 0 -18.833 0.166992 -28.5 0.5s-19.5 0.5 -29.5 0.5zM175.997 -214v11h-4l-1 -11h5zM801.997 934l6 -1l-6 2v-1z
" />
    <glyph glyph-name="sf260.002" unicode="[" horiz-adv-x="564" 
d="M70 -701h1v2032h433v-131h-254v-1881h253v-131h-433v111z" />
    <glyph glyph-name="sf273.004" unicode="\" horiz-adv-x="801" 
d="M801 -216l-131 1l-670 1385l130 -2z" />
    <glyph glyph-name="sf260.003" unicode="]" horiz-adv-x="564" 
d="M494 1218h-1v-2032h-433v131h254v1881h-253v131h433v-111z" />
    <glyph glyph-name="sf261.004" unicode="^" horiz-adv-x="646" 
d="M0 545l323 520l323 -519l-108 -1l-220 350l-210 -350h-108z" />
    <glyph glyph-name="sf268.005" unicode="_" horiz-adv-x="897" 
d="M897 -177v-114h-897v114h897z" />
    <glyph glyph-name="sf266.007" unicode="`" horiz-adv-x="415" 
d="M0 1358c42.667 2.66699 77.667 4.33301 105 5s47.333 0.666992 60 0c0.666992 -0.666992 3.66699 -1 9 -1h10h20h38l123 -305l-102 16z" />
    <glyph glyph-name="a" unicode="a" horiz-adv-x="1001" 
d="M728 224c0 18 -0.333984 35.6699 -1.00098 53.0029s-2.66699 35.666 -6 54.999c-3.33301 25.333 -12.166 48.166 -26.499 68.499s-31.666 37.5 -51.999 51.5s-42.5 24.667 -66.5 32s-47.667 11 -71 11c-24.667 0 -48.167 -4.16699 -70.5 -12.5s-42.833 -19.5 -61.5 -33.5
s-35.334 -30.5 -50.001 -49.5s-26.334 -39.5 -35.001 -61.5c-6 -14.667 -10.167 -30.667 -12.5 -48s-3.5 -35.666 -3.5 -54.999c0 -22.667 1.33301 -44.334 4 -65.001s6.33398 -39.334 11.001 -56.001c6.66699 -23.333 17.167 -44.666 31.5 -63.999s31 -36 50 -50
s40 -24.833 63 -32.5s46.5 -11.5 70.5 -11.5c26 0 51.333 3.66699 76 11s47.167 18.333 67.5 33s37.5 32.667 51.5 54s23.667 45.666 29 72.999v11c0.666992 14.667 1.16699 29 1.5 43s0.5 28.333 0.5 43zM468.999 669.003c34.667 0 68.002 -5.67285 100.002 -17.0059
s60.667 -28.666 86 -51.999l8 -8v-1c1.33301 -1.33301 2.16602 -2.33301 2.49902 -3s1.16602 -1.66699 2.49902 -3l22.5 -22c7.66699 -7.33301 13.167 -11.666 16.5 -12.999l5 1l13 9l2 4v105h174v-888h-174v101l-3 5l-18 7l-6 -2c-27.333 -33.333 -59 -60.166 -95 -80.499
s-76 -30.5 -120 -30.5c-45.333 0 -88.5 8.16699 -129.5 24.5s-78.167 38.5 -111.5 66.5s-61.833 60.833 -85.5 98.5s-40.5 77.834 -50.5 120.501v2c-1.33301 4 -2.5 10 -3.5 18s-1.83301 19.833 -2.5 35.5s-1.16699 36.334 -1.5 62.001s-0.5 58.5 -0.5 98.5
c0 46 10.667 90.667 32 134s49.5 81.833 84.5 115.5s74.5 60.834 118.5 81.501s88.667 31 134 31z" />
    <glyph glyph-name="b" unicode="b" horiz-adv-x="1000" 
d="M273 227c0 -17.333 0.333984 -35.0059 1.00098 -53.0059s2.66699 -36 6 -54c4 -26 13 -49.167 27 -69.5s31 -37.5 51 -51.5s42 -24.667 66 -32s48 -11 72 -11c24.667 0 48.167 4 70.5 12s43 19.167 62 33.5s35.667 31 50 50s25.833 39.5 34.5 61.5
c6 14 10.167 30 12.5 48s3.5 36.667 3.5 56c0 22 -1.33301 43.333 -4 64s-6.33398 39.334 -11.001 56.001c-6.66699 24 -17 45.667 -31 65s-30.5 35.833 -49.5 49.5s-39.833 24.334 -62.5 32.001s-46 11.5 -70 11.5c-26 0 -51.5 -3.83301 -76.5 -11.5
s-47.833 -18.667 -68.5 -33s-38.167 -32.166 -52.5 -53.499s-23.833 -45.666 -28.5 -72.999v-17c-0.666992 -13.333 -1.16699 -26.666 -1.5 -39.999s-0.5 -26.666 -0.5 -39.999zM532.001 -219.006c-70 0 -132.666 23.001 -187.999 69.001l-10 11v1l-1 1
c-2.66699 2.66699 -5.5 5.33398 -8.5 8.00098l-4.5 4c-6 6.66699 -11.667 12.667 -17 18s-10.333 8 -15 8l-4 -2l-10 -11l-1 -3v-104h-173v1362h173v-575l3 -5l18 -6l6 2c27.333 33.333 59.166 60.166 95.499 80.499s76.5 30.5 120.5 30.5c45.333 0 88.5 -8.33301 129.5 -25
s78.167 -39.334 111.5 -68.001s61.833 -62 85.5 -100s41.167 -78.333 52.5 -121c0.666992 -3.33301 1.16699 -8.66602 1.5 -15.999l1.5 -34.5c0.666992 -15.667 1.16699 -36.5 1.5 -62.5s0.5 -59.333 0.5 -100c0 -46 -10.667 -90.667 -32 -134s-49.333 -81.833 -84 -115.5
s-74 -60.834 -118 -81.501s-88.667 -31 -134 -31z" />
    <glyph glyph-name="c" unicode="c" horiz-adv-x="950" 
d="M75 228c0 35.333 2.33496 69.5029 7.00195 102.503s13.667 65.5 27 97.5c15.333 36.667 36 70 62 100s55.333 55.333 88 76s68 36.667 106 48s77 17 117 17c47.333 0 93.5 -6.83301 138.5 -20.5s85.667 -33.5 122 -59.5s66.833 -57.5 91.5 -94.5s40 -78.5 46 -124.5h-186
c-17.333 39.333 -44.833 70.333 -82.5 93s-78.834 34 -123.501 34h-8c-23.333 -0.666992 -46.5 -4.83398 -69.5 -12.501s-44.333 -18.334 -64 -32.001s-36.667 -30.167 -51 -49.5s-24.5 -41 -30.5 -65c-4 -16.667 -7.33301 -34.667 -10 -54s-4 -39.666 -4 -60.999
c0 -39.333 4.66699 -74 14 -104l5 -4h-3c8 -24 19 -46 33 -66s30.5 -37 49.5 -51s40.167 -25 63.5 -33s48 -12 74 -12c42 0 80.833 8.33301 116.5 25s61.167 44 76.5 82l185 -1c-7.33301 -39.333 -21.166 -75.333 -41.499 -108s-45.166 -61.167 -74.499 -85.5
s-62.5 -43.833 -99.5 -58.5s-75.833 -23.334 -116.5 -26.001c-24.667 0 -45.667 0.5 -63 1.5s-31.833 2 -43.5 3s-20.834 2.16699 -27.501 3.5s-11.334 2.33301 -14.001 3c-33.333 8 -65.333 20.5 -96 37.5s-58.834 37.333 -84.501 61s-48 50.167 -67 79.5
s-32.833 60.666 -41.5 93.999c-8 29.333 -13.5 57 -16.5 83s-4.5 53 -4.5 81z" />
    <glyph glyph-name="sf256.002" unicode="d" horiz-adv-x="953" 
d="M484 -44c24 0 48 3.6709 72 11.0039s46.167 18 66.5 32s37.5 31 51.5 51s22.667 43 26 69c3.33301 18.667 5.33301 37 6 55s1 35.667 1 53c0 13.333 -0.166992 26.666 -0.5 39.999s-0.833008 26.666 -1.5 39.999v17c-4.66699 27.333 -14.167 51.666 -28.5 72.999
s-31.833 39.166 -52.5 53.499s-43.334 25.333 -68.001 33s-49.667 11.5 -75 11.5c-24 0 -47.5 -3.83301 -70.5 -11.5s-44 -18.5 -63 -32.5s-35.667 -30.667 -50 -50s-24.833 -40.666 -31.5 -63.999c-4.66699 -16.667 -8.33398 -35.334 -11.001 -56.001s-4 -42 -4 -64
c0 -19.333 1.16699 -38 3.5 -56s6.5 -34 12.5 -48c8.66699 -22 20.334 -42.5 35.001 -61.5s31.334 -35.667 50.001 -50s39.167 -25.5 61.5 -33.5s45.833 -12 70.5 -12zM448 -218.996c-45.333 0 -90.001 10.333 -134.001 31s-83.333 47.834 -118 81.501
s-62.667 72.167 -84 115.5s-32 88 -32 134v100c0 53.333 9.5 105.666 28.5 156.999s45.5 97 79.5 137s74.5 72.167 121.5 96.5s98.5 36.5 154.5 36.5c44 0 84 -10 120 -30s68 -47 96 -81l6 -2l18 6l3 5v575h173v-1362h-173v104l-1 3l-10 11l-4 2
c-17.333 -17.333 -35.166 -33.333 -53.499 -48s-37.5 -27.5 -57.5 -38.5s-41 -19.5 -63 -25.5s-45.333 -8.66699 -70 -8z" />
    <glyph glyph-name="e" unicode="e" horiz-adv-x="985" 
d="M481 500c-24.667 0 -49.165 -4.16895 -73.498 -12.502s-46.333 -20 -66 -35s-36.334 -33 -50.001 -54s-22.167 -44.167 -25.5 -69.5l1 -4l10 -12l4 -2h404l4 2l10 11l1 3c0 28.667 -6.5 53.834 -19.5 75.501s-29.667 39.834 -50 54.501s-43.333 25.5 -69 32.5
s-50.834 10.5 -75.501 10.5h-5zM82.002 238.998c0 28 1.33203 55 3.99902 81s8.66699 51.667 18 77h-3l5 4c12 40 30.667 76.833 56 110.5s54.833 62.5 88.5 86.5s70.5 42.667 110.5 56s81 20 123 20c78.667 0 150 -18.333 214 -55s115.333 -90 154 -160
c7.33301 -14 14.666 -30.833 21.999 -50.5s11 -37.834 11 -54.501v-155h-617c0 -31.333 5.5 -61.666 16.5 -90.999s26.5 -55.333 46.5 -78s43.833 -40.667 71.5 -54s58.5 -20 92.5 -20c45.333 0 85.333 5.33301 120 16s64.334 33.334 89.001 68.001h168
c-8.66699 -42 -25.167 -79.167 -49.5 -111.5s-53.833 -59.333 -88.5 -81s-73 -38.167 -115 -49.5s-84.667 -17 -128 -17c-42.667 0 -84 6.5 -124 19.5s-76.667 31.167 -110 54.5s-62.833 51.666 -88.5 84.999s-45.5 70.333 -59.5 111v1
c-11.333 30 -18.666 60.667 -21.999 92s-5 63 -5 95z" />
    <glyph glyph-name="f" unicode="f" horiz-adv-x="647" 
d="M40 551v123.998h165l4 2l10 11l1 3v10c0 1.33301 0.166992 3 0.5 5s0.5 4 0.5 6c1.33301 36 3.5 71.333 6.5 106s10.833 69.667 23.5 105c52 138.667 152.333 208 301 208h9c5.33301 0 11.666 0.166992 18.999 0.5s14.833 0.833008 22.5 1.5s14.167 1.33398 19.5 2.00098
v-176c-8 3.33301 -19 5.5 -33 6.5s-29 1.5 -45 1.5c-19.333 0 -37.666 -5 -54.999 -15s-32.5 -22.667 -45.5 -38s-23.333 -32.666 -31 -51.999s-11.5 -38.333 -11.5 -57v-114l1 -3l10 -11l4 -2h206v-124h-221v-770h-176l-1 770h-184z" />
    </font>
</defs>
</svg>
